<?xml version="1.0" encoding="utf-8"?><!-- Generator: Iparigrafika Gear Generator by Abel Vincze http://geargenerator.com/ --><svg version="1.2" class="svggear" xmlns="http://www.w3.org/2000/svg" xmlns:xlink="http://www.w3.org/1999/xlink" x="0px" y="0px" width="1250px" height="800px" viewBox="0 0 1250 800" xml:space="preserve"><g transform="translate(400,400) rotate(1956.176)"><path id="gearpoly0" data-id="0" class="gear" fill="#ddd" stroke="#444" stroke-width="1" stroke-miterlimit="10" d="M271.25,0 281.951,0 282.052,-0.003 282.213,-0.009 282.433,-0.021 282.713,-0.041 283.052,-0.069 283.449,-0.108 283.906,-0.159 284.42,-0.225 284.993,-0.306 285.623,-0.405 286.311,-0.523 287.055,-0.663 287.856,-0.824 288.713,-1.01 289.625,-1.222 290.591,-1.462 291.612,-1.731 292.686,-2.03 293.813,-2.363 294.992,-2.729 296.222,-3.13 297.503,-3.569 298.833,-4.047 300.212,-4.565 301.639,-5.125 303.112,-5.728 304.632,-6.375 306.196,-7.069 307.805,-7.811 309.456,-8.601 311.149,-9.442 312.883,-10.335 314.656,-11.282 316.467,-12.282 318.315,-13.339 320.199,-14.452 322.118,-15.624 324.07,-16.856 324.316,-17.014 324.439,-17.093 324.501,-17.133 324.532,-17.153 324.539,-17.158 324.543,-17.161 324.546,-17.163 323.205,-34.111 323.201,-34.112 323.197,-34.114 323.189,-34.118 323.155,-34.133 323.088,-34.162 322.954,-34.221 322.686,-34.339 320.564,-35.248 318.485,-36.104 316.45,-36.907 314.458,-37.659 312.512,-38.363 310.612,-39.018 308.76,-39.627 306.955,-40.191 305.2,-40.712 303.495,-41.192 301.841,-41.631 300.239,-42.031 298.688,-42.395 297.191,-42.723 295.748,-43.018 294.359,-43.28 293.026,-43.512 291.748,-43.716 290.526,-43.892 289.361,-44.042 288.253,-44.169 287.203,-44.274 286.21,-44.359 285.276,-44.425 284.401,-44.473 283.585,-44.507 282.828,-44.528 282.13,-44.536 281.492,-44.535 280.914,-44.525 280.395,-44.509 279.936,-44.488 279.538,-44.464 279.199,-44.438 278.919,-44.413 278.7,-44.39 278.54,-44.371 278.44,-44.358 267.872,-42.675 262.007,-70.205 272.343,-72.975 272.441,-73.003 272.594,-73.051 272.804,-73.12 273.069,-73.211 273.389,-73.326 273.763,-73.466 274.191,-73.634 274.671,-73.83 275.203,-74.057 275.786,-74.316 276.42,-74.608 277.103,-74.935 277.834,-75.299 278.614,-75.7 279.44,-76.141 280.311,-76.623 281.228,-77.147 282.188,-77.714 283.19,-78.326 284.234,-78.985 285.318,-79.692 286.442,-80.447 287.603,-81.253 288.801,-82.11 290.034,-83.02 291.302,-83.984 292.602,-85.003 293.933,-86.078 295.295,-87.21 296.685,-88.401 298.103,-89.652 299.546,-90.963 301.014,-92.336 302.505,-93.771 304.017,-95.27 305.548,-96.833 307.098,-98.462 308.665,-100.157 308.861,-100.373 308.96,-100.482 309.009,-100.536 309.034,-100.564 309.04,-100.57 309.043,-100.574 309.046,-100.577 303.364,-116.6 303.36,-116.601 303.355,-116.601 303.346,-116.603 303.31,-116.608 303.237,-116.62 303.092,-116.642 302.803,-116.686 300.519,-117.015 298.289,-117.304 296.115,-117.553 293.996,-117.764 291.934,-117.94 289.93,-118.081 287.983,-118.19 286.094,-118.268 284.264,-118.317 282.493,-118.339 280.781,-118.335 279.13,-118.307 277.538,-118.257 276.007,-118.186 274.537,-118.097 273.128,-117.991 271.779,-117.87 270.492,-117.736 269.266,-117.59 268.102,-117.434 266.999,-117.27 265.957,-117.099 264.977,-116.924 264.058,-116.746 263.2,-116.567 262.403,-116.388 261.666,-116.212 260.99,-116.039 260.374,-115.873 259.818,-115.714 259.321,-115.564 258.883,-115.425 258.504,-115.298 258.184,-115.186 257.92,-115.09 257.714,-115.011 257.565,-114.951 257.471,-114.912 247.699,-110.551 234.909,-135.625 244.176,-140.976 244.263,-141.029 244.399,-141.115 244.584,-141.235 244.816,-141.392 245.095,-141.585 245.42,-141.818 245.79,-142.091 246.203,-142.405 246.658,-142.762 247.154,-143.162 247.691,-143.609 248.266,-144.101 248.879,-144.642 249.527,-145.231 250.211,-145.871 250.929,-146.562 251.678,-147.305 252.459,-148.102 253.268,-148.953 254.106,-149.859 254.971,-150.822 255.86,-151.842 256.773,-152.921 257.709,-154.059 258.664,-155.257 259.639,-156.516 260.631,-157.837 261.639,-159.22 262.661,-160.667 263.696,-162.177 264.742,-163.752 265.797,-165.392 266.859,-167.098 267.927,-168.87 269,-170.709 270.075,-172.616 271.15,-174.59 272.225,-176.632 272.359,-176.892 272.426,-177.023 272.459,-177.088 272.476,-177.121 272.48,-177.129 272.482,-177.133 272.484,-177.137 262.848,-191.143 262.844,-191.143 262.84,-191.142 262.831,-191.141 262.794,-191.137 262.721,-191.13 262.575,-191.114 262.285,-191.081 259.993,-190.808 257.765,-190.509 255.6,-190.187 253.499,-189.843 251.462,-189.479 249.489,-189.097 247.58,-188.698 245.735,-188.285 243.955,-187.858 242.239,-187.421 240.587,-186.974 238.998,-186.52 237.474,-186.059 236.014,-185.595 234.616,-185.129 233.283,-184.662 232.012,-184.196 230.803,-183.733 229.657,-183.274 228.573,-182.822 227.55,-182.378 226.588,-181.944 225.686,-181.521 224.844,-181.111 224.062,-180.716 223.338,-180.337 222.672,-179.976 222.064,-179.634 221.512,-179.314 221.016,-179.017 220.575,-178.743 220.188,-178.496 219.855,-178.275 219.574,-178.084 219.345,-177.923 219.166,-177.793 219.037,-177.697 218.957,-177.635 210.647,-170.894 191.803,-191.803 199.369,-199.37 199.439,-199.443 199.548,-199.561 199.695,-199.726 199.879,-199.937 200.099,-200.196 200.353,-200.505 200.639,-200.864 200.957,-201.274 201.304,-201.737 201.68,-202.253 202.082,-202.822 202.51,-203.447 202.962,-204.128 203.436,-204.865 203.931,-205.66 204.445,-206.513 204.977,-207.425 205.525,-208.396 206.087,-209.428 206.661,-210.52 207.247,-211.674 207.842,-212.89 208.445,-214.168 209.054,-215.51 209.667,-216.914 210.283,-218.383 210.899,-219.915 211.515,-221.512 212.128,-223.174 212.736,-224.901 213.339,-226.692 213.933,-228.55 214.518,-230.472 215.091,-232.461 215.651,-234.515 216.196,-236.634 216.724,-238.82 217.233,-241.071 217.295,-241.357 217.326,-241.5 217.342,-241.572 217.349,-241.608 217.351,-241.617 217.352,-241.621 217.353,-241.625 204.421,-252.66 204.417,-252.659 204.413,-252.657 204.404,-252.654 204.37,-252.641 204.301,-252.614 204.165,-252.561 203.892,-252.455 201.749,-251.598 199.674,-250.732 197.666,-249.861 195.726,-248.985 193.853,-248.106 192.046,-247.226 190.305,-246.347 188.631,-245.47 187.021,-244.597 185.477,-243.731 183.996,-242.871 182.58,-242.021 181.227,-241.182 179.936,-240.356 178.707,-239.544 177.54,-238.747 176.433,-237.968 175.385,-237.208 174.397,-236.469 173.466,-235.752 172.593,-235.058 171.776,-234.389 171.015,-233.747 170.308,-233.134 169.654,-232.549 169.053,-231.996 168.504,-231.475 168.004,-230.988 167.554,-230.536 167.152,-230.12 166.797,-229.742 166.487,-229.402 166.222,-229.103 166.001,-228.846 165.821,-228.631 165.682,-228.459 165.582,-228.333 165.521,-228.252 159.238,-219.59 135.625,-234.909 140.975,-244.177 141.023,-244.266 141.098,-244.408 141.198,-244.605 141.321,-244.857 141.466,-245.164 141.631,-245.528 141.815,-245.949 142.016,-246.428 142.231,-246.964 142.461,-247.56 142.702,-248.214 142.954,-248.929 143.214,-249.703 143.481,-250.538 143.754,-251.434 144.03,-252.391 144.307,-253.409 144.585,-254.489 144.861,-255.631 145.133,-256.835 145.4,-258.101 145.66,-259.43 145.912,-260.82 146.153,-262.274 146.381,-263.789 146.596,-265.367 146.795,-267.007 146.976,-268.708 147.138,-270.472 147.279,-272.297 147.397,-274.184 147.491,-276.132 147.558,-278.14 147.597,-280.209 147.606,-282.338 147.584,-284.527 147.528,-286.774 147.437,-289.08 147.423,-289.373 147.416,-289.519 147.413,-289.593 147.411,-289.629 147.41,-289.638 147.41,-289.643 147.41,-289.647 132.062,-296.959 132.058,-296.957 132.055,-296.954 132.047,-296.949 132.018,-296.927 131.958,-296.884 131.84,-296.797 131.604,-296.623 129.756,-295.241 127.976,-293.868 126.262,-292.507 124.615,-291.158 123.033,-289.825 121.515,-288.507 120.062,-287.207 118.671,-285.927 117.342,-284.667 116.075,-283.431 114.867,-282.218 113.719,-281.03 112.629,-279.869 111.596,-278.737 110.619,-277.634 109.698,-276.563 108.83,-275.524 108.015,-274.519 107.252,-273.549 106.539,-272.615 105.875,-271.719 105.259,-270.862 104.689,-270.045 104.165,-269.269 103.685,-268.535 103.248,-267.845 102.852,-267.2 102.496,-266.6 102.178,-266.047 101.897,-265.541 101.652,-265.084 101.441,-264.676 101.262,-264.318 101.115,-264.012 100.997,-263.758 100.907,-263.556 100.843,-263.408 100.805,-263.315 96.978,-253.321 70.205,-262.007 72.974,-272.344 72.997,-272.442 73.033,-272.599 73.078,-272.815 73.132,-273.09 73.193,-273.425 73.258,-273.819 73.326,-274.273 73.396,-274.787 73.466,-275.361 73.533,-275.996 73.597,-276.691 73.655,-277.446 73.706,-278.261 73.748,-279.137 73.78,-280.072 73.798,-281.068 73.803,-282.124 73.792,-283.239 73.762,-284.413 73.714,-285.647 73.644,-286.939 73.552,-288.289 73.435,-289.698 73.291,-291.164 73.12,-292.687 72.919,-294.266 72.686,-295.902 72.421,-297.593 72.121,-299.338 71.785,-301.138 71.411,-302.991 70.997,-304.896 70.542,-306.854 70.044,-308.862 69.502,-310.921 68.914,-313.029 68.278,-315.186 67.594,-317.39 67.505,-317.669 67.46,-317.808 67.438,-317.878 67.426,-317.913 67.423,-317.922 67.422,-317.926 67.421,-317.93 50.703,-321.021 50.701,-321.018 50.698,-321.014 50.692,-321.007 50.669,-320.978 50.623,-320.921 50.531,-320.807 50.348,-320.578 48.921,-318.764 47.557,-316.978 46.254,-315.219 45.011,-313.49 43.828,-311.792 42.704,-310.127 41.636,-308.495 40.624,-306.898 39.666,-305.338 38.762,-303.815 37.91,-302.331 37.108,-300.887 36.356,-299.483 35.651,-298.122 34.993,-296.805 34.38,-295.531 33.811,-294.303 33.284,-293.121 32.798,-291.986 32.351,-290.9 31.941,-289.863 31.568,-288.875 31.23,-287.939 30.924,-287.054 30.65,-286.221 30.406,-285.441 30.191,-284.715 30.002,-284.044 29.838,-283.427 29.698,-282.866 29.579,-282.361 29.481,-281.912 29.401,-281.521 29.338,-281.187 29.29,-280.91 29.255,-280.693 29.232,-280.533 29.219,-280.433 28.11,-269.79 0,-271.25 0,-281.951 -0.003,-282.052 -0.009,-282.213 -0.021,-282.433 -0.041,-282.713 -0.069,-283.052 -0.108,-283.449 -0.159,-283.906 -0.225,-284.42 -0.306,-284.993 -0.405,-285.623 -0.523,-286.311 -0.663,-287.055 -0.824,-287.856 -1.01,-288.713 -1.222,-289.625 -1.462,-290.591 -1.731,-291.612 -2.03,-292.686 -2.363,-293.813 -2.729,-294.992 -3.13,-296.222 -3.569,-297.503 -4.047,-298.833 -4.565,-300.212 -5.125,-301.639 -5.728,-303.112 -6.375,-304.632 -7.069,-306.196 -7.811,-307.805 -8.601,-309.456 -9.442,-311.149 -10.335,-312.883 -11.282,-314.656 -12.282,-316.467 -13.339,-318.315 -14.452,-320.199 -15.624,-322.118 -16.856,-324.07 -17.014,-324.316 -17.093,-324.439 -17.133,-324.501 -17.153,-324.532 -17.158,-324.539 -17.161,-324.543 -17.163,-324.546 -34.111,-323.205 -34.112,-323.201 -34.114,-323.197 -34.118,-323.189 -34.133,-323.155 -34.162,-323.088 -34.221,-322.954 -34.339,-322.686 -35.248,-320.564 -36.104,-318.485 -36.907,-316.45 -37.659,-314.458 -38.363,-312.512 -39.018,-310.612 -39.627,-308.76 -40.191,-306.955 -40.712,-305.2 -41.192,-303.495 -41.631,-301.841 -42.031,-300.239 -42.395,-298.688 -42.723,-297.191 -43.018,-295.748 -43.28,-294.359 -43.512,-293.026 -43.716,-291.748 -43.892,-290.526 -44.042,-289.361 -44.169,-288.253 -44.274,-287.203 -44.359,-286.21 -44.425,-285.276 -44.473,-284.401 -44.507,-283.585 -44.528,-282.828 -44.536,-282.13 -44.535,-281.492 -44.525,-280.914 -44.509,-280.395 -44.488,-279.936 -44.464,-279.538 -44.438,-279.199 -44.413,-278.919 -44.39,-278.7 -44.371,-278.54 -44.358,-278.44 -42.675,-267.872 -70.205,-262.007 -72.975,-272.343 -73.003,-272.441 -73.051,-272.594 -73.12,-272.804 -73.211,-273.069 -73.326,-273.389 -73.466,-273.763 -73.634,-274.191 -73.83,-274.671 -74.057,-275.203 -74.316,-275.786 -74.608,-276.42 -74.935,-277.103 -75.299,-277.834 -75.7,-278.614 -76.141,-279.44 -76.623,-280.311 -77.147,-281.228 -77.714,-282.188 -78.326,-283.19 -78.985,-284.234 -79.692,-285.318 -80.447,-286.442 -81.253,-287.603 -82.11,-288.801 -83.02,-290.034 -83.984,-291.302 -85.003,-292.602 -86.078,-293.933 -87.21,-295.295 -88.401,-296.685 -89.652,-298.103 -90.963,-299.546 -92.336,-301.014 -93.771,-302.505 -95.27,-304.017 -96.833,-305.548 -98.462,-307.098 -100.157,-308.665 -100.373,-308.861 -100.482,-308.96 -100.536,-309.009 -100.564,-309.034 -100.57,-309.04 -100.574,-309.043 -100.577,-309.046 -116.6,-303.364 -116.601,-303.36 -116.601,-303.355 -116.603,-303.346 -116.608,-303.31 -116.62,-303.237 -116.642,-303.092 -116.686,-302.803 -117.015,-300.519 -117.304,-298.289 -117.553,-296.115 -117.764,-293.996 -117.94,-291.934 -118.081,-289.93 -118.19,-287.983 -118.268,-286.094 -118.317,-284.264 -118.339,-282.493 -118.335,-280.781 -118.307,-279.13 -118.257,-277.538 -118.186,-276.007 -118.097,-274.537 -117.991,-273.128 -117.87,-271.779 -117.736,-270.492 -117.59,-269.266 -117.434,-268.102 -117.27,-266.999 -117.099,-265.957 -116.924,-264.977 -116.746,-264.058 -116.567,-263.2 -116.388,-262.403 -116.212,-261.666 -116.039,-260.99 -115.873,-260.374 -115.714,-259.818 -115.564,-259.321 -115.425,-258.883 -115.298,-258.504 -115.186,-258.184 -115.09,-257.92 -115.011,-257.714 -114.951,-257.565 -114.912,-257.471 -110.551,-247.699 -135.625,-234.909 -140.976,-244.176 -141.029,-244.263 -141.115,-244.399 -141.235,-244.584 -141.392,-244.816 -141.585,-245.095 -141.818,-245.42 -142.091,-245.79 -142.405,-246.203 -142.762,-246.658 -143.162,-247.154 -143.609,-247.691 -144.101,-248.266 -144.642,-248.879 -145.231,-249.527 -145.871,-250.211 -146.562,-250.929 -147.305,-251.678 -148.102,-252.459 -148.953,-253.268 -149.859,-254.106 -150.822,-254.971 -151.842,-255.86 -152.921,-256.773 -154.059,-257.709 -155.257,-258.664 -156.516,-259.639 -157.837,-260.631 -159.22,-261.639 -160.667,-262.661 -162.177,-263.696 -163.752,-264.742 -165.392,-265.797 -167.098,-266.859 -168.87,-267.927 -170.709,-269 -172.616,-270.075 -174.59,-271.15 -176.632,-272.225 -176.892,-272.359 -177.023,-272.426 -177.088,-272.459 -177.121,-272.476 -177.129,-272.48 -177.133,-272.482 -177.137,-272.484 -191.143,-262.848 -191.143,-262.844 -191.142,-262.84 -191.141,-262.831 -191.137,-262.794 -191.13,-262.721 -191.114,-262.575 -191.081,-262.285 -190.808,-259.993 -190.509,-257.765 -190.187,-255.6 -189.843,-253.499 -189.479,-251.462 -189.097,-249.489 -188.698,-247.58 -188.285,-245.735 -187.858,-243.955 -187.421,-242.239 -186.974,-240.587 -186.52,-238.998 -186.059,-237.474 -185.595,-236.014 -185.129,-234.616 -184.662,-233.283 -184.196,-232.012 -183.733,-230.803 -183.274,-229.657 -182.822,-228.573 -182.378,-227.55 -181.944,-226.588 -181.521,-225.686 -181.111,-224.844 -180.716,-224.062 -180.337,-223.338 -179.976,-222.672 -179.634,-222.064 -179.314,-221.512 -179.017,-221.016 -178.743,-220.575 -178.496,-220.188 -178.275,-219.855 -178.084,-219.574 -177.923,-219.345 -177.793,-219.166 -177.697,-219.037 -177.635,-218.957 -170.894,-210.647 -191.803,-191.803 -199.37,-199.369 -199.443,-199.439 -199.561,-199.548 -199.726,-199.695 -199.937,-199.879 -200.196,-200.099 -200.505,-200.353 -200.864,-200.639 -201.274,-200.957 -201.737,-201.304 -202.253,-201.68 -202.822,-202.082 -203.447,-202.51 -204.128,-202.962 -204.865,-203.436 -205.66,-203.931 -206.513,-204.445 -207.425,-204.977 -208.396,-205.525 -209.428,-206.087 -210.52,-206.661 -211.674,-207.247 -212.89,-207.842 -214.168,-208.445 -215.51,-209.054 -216.914,-209.667 -218.383,-210.283 -219.915,-210.899 -221.512,-211.515 -223.174,-212.128 -224.901,-212.736 -226.692,-213.339 -228.55,-213.933 -230.472,-214.518 -232.461,-215.091 -234.515,-215.651 -236.634,-216.196 -238.82,-216.724 -241.071,-217.233 -241.357,-217.295 -241.5,-217.326 -241.572,-217.342 -241.608,-217.349 -241.617,-217.351 -241.621,-217.352 -241.625,-217.353 -252.66,-204.421 -252.659,-204.417 -252.657,-204.413 -252.654,-204.404 -252.641,-204.37 -252.614,-204.301 -252.561,-204.165 -252.455,-203.892 -251.598,-201.749 -250.732,-199.674 -249.861,-197.666 -248.985,-195.726 -248.106,-193.853 -247.226,-192.046 -246.347,-190.305 -245.47,-188.631 -244.597,-187.021 -243.731,-185.477 -242.871,-183.996 -242.021,-182.58 -241.182,-181.227 -240.356,-179.936 -239.544,-178.707 -238.747,-177.54 -237.968,-176.433 -237.208,-175.385 -236.469,-174.397 -235.752,-173.466 -235.058,-172.593 -234.389,-171.776 -233.747,-171.015 -233.134,-170.308 -232.549,-169.654 -231.996,-169.053 -231.475,-168.504 -230.988,-168.004 -230.536,-167.554 -230.12,-167.152 -229.742,-166.797 -229.402,-166.487 -229.103,-166.222 -228.846,-166.001 -228.631,-165.821 -228.459,-165.682 -228.333,-165.582 -228.252,-165.521 -219.59,-159.238 -234.909,-135.625 -244.177,-140.975 -244.266,-141.023 -244.408,-141.098 -244.605,-141.198 -244.857,-141.321 -245.164,-141.466 -245.528,-141.631 -245.949,-141.815 -246.428,-142.016 -246.964,-142.231 -247.56,-142.461 -248.214,-142.702 -248.929,-142.954 -249.703,-143.214 -250.538,-143.481 -251.434,-143.754 -252.391,-144.03 -253.409,-144.307 -254.489,-144.585 -255.631,-144.861 -256.835,-145.133 -258.101,-145.4 -259.43,-145.66 -260.82,-145.912 -262.274,-146.153 -263.789,-146.381 -265.367,-146.596 -267.007,-146.795 -268.708,-146.976 -270.472,-147.138 -272.297,-147.279 -274.184,-147.397 -276.132,-147.491 -278.14,-147.558 -280.209,-147.597 -282.338,-147.606 -284.527,-147.584 -286.774,-147.528 -289.08,-147.437 -289.373,-147.423 -289.519,-147.416 -289.593,-147.413 -289.629,-147.411 -289.638,-147.41 -289.643,-147.41 -289.647,-147.41 -296.959,-132.062 -296.957,-132.058 -296.954,-132.055 -296.949,-132.047 -296.927,-132.018 -296.884,-131.958 -296.797,-131.84 -296.623,-131.604 -295.241,-129.756 -293.868,-127.976 -292.507,-126.262 -291.158,-124.615 -289.825,-123.033 -288.507,-121.515 -287.207,-120.062 -285.927,-118.671 -284.667,-117.342 -283.431,-116.075 -282.218,-114.867 -281.03,-113.719 -279.869,-112.629 -278.737,-111.596 -277.634,-110.619 -276.563,-109.698 -275.524,-108.83 -274.519,-108.015 -273.549,-107.252 -272.615,-106.539 -271.719,-105.875 -270.862,-105.259 -270.045,-104.689 -269.269,-104.165 -268.535,-103.685 -267.845,-103.248 -267.2,-102.852 -266.6,-102.496 -266.047,-102.178 -265.541,-101.897 -265.084,-101.652 -264.676,-101.441 -264.318,-101.262 -264.012,-101.115 -263.758,-100.997 -263.556,-100.907 -263.408,-100.843 -263.315,-100.805 -253.321,-96.978 -262.007,-70.205 -272.344,-72.974 -272.442,-72.997 -272.599,-73.033 -272.815,-73.078 -273.09,-73.132 -273.425,-73.193 -273.819,-73.258 -274.273,-73.326 -274.787,-73.396 -275.361,-73.466 -275.996,-73.533 -276.691,-73.597 -277.446,-73.655 -278.261,-73.706 -279.137,-73.748 -280.072,-73.78 -281.068,-73.798 -282.124,-73.803 -283.239,-73.792 -284.413,-73.762 -285.647,-73.714 -286.939,-73.644 -288.289,-73.552 -289.698,-73.435 -291.164,-73.291 -292.687,-73.12 -294.266,-72.919 -295.902,-72.686 -297.593,-72.421 -299.338,-72.121 -301.138,-71.785 -302.991,-71.411 -304.896,-70.997 -306.854,-70.542 -308.862,-70.044 -310.921,-69.502 -313.029,-68.914 -315.186,-68.278 -317.39,-67.594 -317.669,-67.505 -317.808,-67.46 -317.878,-67.438 -317.913,-67.426 -317.922,-67.423 -317.926,-67.422 -317.93,-67.421 -321.021,-50.703 -321.018,-50.701 -321.014,-50.698 -321.007,-50.692 -320.978,-50.669 -320.921,-50.623 -320.807,-50.531 -320.578,-50.348 -318.764,-48.921 -316.978,-47.557 -315.219,-46.254 -313.49,-45.011 -311.792,-43.828 -310.127,-42.704 -308.495,-41.636 -306.898,-40.624 -305.338,-39.666 -303.815,-38.762 -302.331,-37.91 -300.887,-37.108 -299.483,-36.356 -298.122,-35.651 -296.805,-34.993 -295.531,-34.38 -294.303,-33.811 -293.121,-33.284 -291.986,-32.798 -290.9,-32.351 -289.863,-31.941 -288.875,-31.568 -287.939,-31.23 -287.054,-30.924 -286.221,-30.65 -285.441,-30.406 -284.715,-30.191 -284.044,-30.002 -283.427,-29.838 -282.866,-29.698 -282.361,-29.579 -281.912,-29.481 -281.521,-29.401 -281.187,-29.338 -280.91,-29.29 -280.693,-29.255 -280.533,-29.232 -280.433,-29.219 -269.79,-28.11 -271.25,0 -281.951,0 -282.052,0.003 -282.213,0.009 -282.433,0.021 -282.713,0.041 -283.052,0.069 -283.449,0.108 -283.906,0.159 -284.42,0.225 -284.993,0.306 -285.623,0.405 -286.311,0.523 -287.055,0.663 -287.856,0.824 -288.713,1.01 -289.625,1.222 -290.591,1.462 -291.612,1.731 -292.686,2.03 -293.813,2.363 -294.992,2.729 -296.222,3.13 -297.503,3.569 -298.833,4.047 -300.212,4.565 -301.639,5.125 -303.112,5.728 -304.632,6.375 -306.196,7.069 -307.805,7.811 -309.456,8.601 -311.149,9.442 -312.883,10.335 -314.656,11.282 -316.467,12.282 -318.315,13.339 -320.199,14.452 -322.118,15.624 -324.07,16.856 -324.316,17.014 -324.439,17.093 -324.501,17.133 -324.532,17.153 -324.539,17.158 -324.543,17.161 -324.546,17.163 -323.205,34.111 -323.201,34.112 -323.197,34.114 -323.189,34.118 -323.155,34.133 -323.088,34.162 -322.954,34.221 -322.686,34.339 -320.564,35.248 -318.485,36.104 -316.45,36.907 -314.458,37.659 -312.512,38.363 -310.612,39.018 -308.76,39.627 -306.955,40.191 -305.2,40.712 -303.495,41.192 -301.841,41.631 -300.239,42.031 -298.688,42.395 -297.191,42.723 -295.748,43.018 -294.359,43.28 -293.026,43.512 -291.748,43.716 -290.526,43.892 -289.361,44.042 -288.253,44.169 -287.203,44.274 -286.21,44.359 -285.276,44.425 -284.401,44.473 -283.585,44.507 -282.828,44.528 -282.13,44.536 -281.492,44.535 -280.914,44.525 -280.395,44.509 -279.936,44.488 -279.538,44.464 -279.199,44.438 -278.919,44.413 -278.7,44.39 -278.54,44.371 -278.44,44.358 -267.872,42.675 -262.007,70.205 -272.343,72.975 -272.441,73.003 -272.594,73.051 -272.804,73.12 -273.069,73.211 -273.389,73.326 -273.763,73.466 -274.191,73.634 -274.671,73.83 -275.203,74.057 -275.786,74.316 -276.42,74.608 -277.103,74.935 -277.834,75.299 -278.614,75.7 -279.44,76.141 -280.311,76.623 -281.228,77.147 -282.188,77.714 -283.19,78.326 -284.234,78.985 -285.318,79.692 -286.442,80.447 -287.603,81.253 -288.801,82.11 -290.034,83.02 -291.302,83.984 -292.602,85.003 -293.933,86.078 -295.295,87.21 -296.685,88.401 -298.103,89.652 -299.546,90.963 -301.014,92.336 -302.505,93.771 -304.017,95.27 -305.548,96.833 -307.098,98.462 -308.665,100.157 -308.861,100.373 -308.96,100.482 -309.009,100.536 -309.034,100.564 -309.04,100.57 -309.043,100.574 -309.046,100.577 -303.364,116.6 -303.36,116.601 -303.355,116.601 -303.346,116.603 -303.31,116.608 -303.237,116.62 -303.092,116.642 -302.803,116.686 -300.519,117.015 -298.289,117.304 -296.115,117.553 -293.996,117.764 -291.934,117.94 -289.93,118.081 -287.983,118.19 -286.094,118.268 -284.264,118.317 -282.493,118.339 -280.781,118.335 -279.13,118.307 -277.538,118.257 -276.007,118.186 -274.537,118.097 -273.128,117.991 -271.779,117.87 -270.492,117.736 -269.266,117.59 -268.102,117.434 -266.999,117.27 -265.957,117.099 -264.977,116.924 -264.058,116.746 -263.2,116.567 -262.403,116.388 -261.666,116.212 -260.99,116.039 -260.374,115.873 -259.818,115.714 -259.321,115.564 -258.883,115.425 -258.504,115.298 -258.184,115.186 -257.92,115.09 -257.714,115.011 -257.565,114.951 -257.471,114.912 -247.699,110.551 -234.909,135.625 -244.176,140.976 -244.263,141.029 -244.399,141.115 -244.584,141.235 -244.816,141.392 -245.095,141.585 -245.42,141.818 -245.79,142.091 -246.203,142.405 -246.658,142.762 -247.154,143.162 -247.691,143.609 -248.266,144.101 -248.879,144.642 -249.527,145.231 -250.211,145.871 -250.929,146.562 -251.678,147.305 -252.459,148.102 -253.268,148.953 -254.106,149.859 -254.971,150.822 -255.86,151.842 -256.773,152.921 -257.709,154.059 -258.664,155.257 -259.639,156.516 -260.631,157.837 -261.639,159.22 -262.661,160.667 -263.696,162.177 -264.742,163.752 -265.797,165.392 -266.859,167.098 -267.927,168.87 -269,170.709 -270.075,172.616 -271.15,174.59 -272.225,176.632 -272.359,176.892 -272.426,177.023 -272.459,177.088 -272.476,177.121 -272.48,177.129 -272.482,177.133 -272.484,177.137 -262.848,191.143 -262.844,191.143 -262.84,191.142 -262.831,191.141 -262.794,191.137 -262.721,191.13 -262.575,191.114 -262.285,191.081 -259.993,190.808 -257.765,190.509 -255.6,190.187 -253.499,189.843 -251.462,189.479 -249.489,189.097 -247.58,188.698 -245.735,188.285 -243.955,187.858 -242.239,187.421 -240.587,186.974 -238.998,186.52 -237.474,186.059 -236.014,185.595 -234.616,185.129 -233.283,184.662 -232.012,184.196 -230.803,183.733 -229.657,183.274 -228.573,182.822 -227.55,182.378 -226.588,181.944 -225.686,181.521 -224.844,181.111 -224.062,180.716 -223.338,180.337 -222.672,179.976 -222.064,179.634 -221.512,179.314 -221.016,179.017 -220.575,178.743 -220.188,178.496 -219.855,178.275 -219.574,178.084 -219.345,177.923 -219.166,177.793 -219.037,177.697 -218.957,177.635 -210.647,170.894 -191.803,191.803 -199.369,199.37 -199.439,199.443 -199.548,199.561 -199.695,199.726 -199.879,199.937 -200.099,200.196 -200.353,200.505 -200.639,200.864 -200.957,201.274 -201.304,201.737 -201.68,202.253 -202.082,202.822 -202.51,203.447 -202.962,204.128 -203.436,204.865 -203.931,205.66 -204.445,206.513 -204.977,207.425 -205.525,208.396 -206.087,209.428 -206.661,210.52 -207.247,211.674 -207.842,212.89 -208.445,214.168 -209.054,215.51 -209.667,216.914 -210.283,218.383 -210.899,219.915 -211.515,221.512 -212.128,223.174 -212.736,224.901 -213.339,226.692 -213.933,228.55 -214.518,230.472 -215.091,232.461 -215.651,234.515 -216.196,236.634 -216.724,238.82 -217.233,241.071 -217.295,241.357 -217.326,241.5 -217.342,241.572 -217.349,241.608 -217.351,241.617 -217.352,241.621 -217.353,241.625 -204.421,252.66 -204.417,252.659 -204.413,252.657 -204.404,252.654 -204.37,252.641 -204.301,252.614 -204.165,252.561 -203.892,252.455 -201.749,251.598 -199.674,250.732 -197.666,249.861 -195.726,248.985 -193.853,248.106 -192.046,247.226 -190.305,246.347 -188.631,245.47 -187.021,244.597 -185.477,243.731 -183.996,242.871 -182.58,242.021 -181.227,241.182 -179.936,240.356 -178.707,239.544 -177.54,238.747 -176.433,237.968 -175.385,237.208 -174.397,236.469 -173.466,235.752 -172.593,235.058 -171.776,234.389 -171.015,233.747 -170.308,233.134 -169.654,232.549 -169.053,231.996 -168.504,231.475 -168.004,230.988 -167.554,230.536 -167.152,230.12 -166.797,229.742 -166.487,229.402 -166.222,229.103 -166.001,228.846 -165.821,228.631 -165.682,228.459 -165.582,228.333 -165.521,228.252 -159.238,219.59 -135.625,234.909 -140.975,244.177 -141.023,244.266 -141.098,244.408 -141.198,244.605 -141.321,244.857 -141.466,245.164 -141.631,245.528 -141.815,245.949 -142.016,246.428 -142.231,246.964 -142.461,247.56 -142.702,248.214 -142.954,248.929 -143.214,249.703 -143.481,250.538 -143.754,251.434 -144.03,252.391 -144.307,253.409 -144.585,254.489 -144.861,255.631 -145.133,256.835 -145.4,258.101 -145.66,259.43 -145.912,260.82 -146.153,262.274 -146.381,263.789 -146.596,265.367 -146.795,267.007 -146.976,268.708 -147.138,270.472 -147.279,272.297 -147.397,274.184 -147.491,276.132 -147.558,278.14 -147.597,280.209 -147.606,282.338 -147.584,284.527 -147.528,286.774 -147.437,289.08 -147.423,289.373 -147.416,289.519 -147.413,289.593 -147.411,289.629 -147.41,289.638 -147.41,289.643 -147.41,289.647 -132.062,296.959 -132.058,296.957 -132.055,296.954 -132.047,296.949 -132.018,296.927 -131.958,296.884 -131.84,296.797 -131.604,296.623 -129.756,295.241 -127.976,293.868 -126.262,292.507 -124.615,291.158 -123.033,289.825 -121.515,288.507 -120.062,287.207 -118.671,285.927 -117.342,284.667 -116.075,283.431 -114.867,282.218 -113.719,281.03 -112.629,279.869 -111.596,278.737 -110.619,277.634 -109.698,276.563 -108.83,275.524 -108.015,274.519 -107.252,273.549 -106.539,272.615 -105.875,271.719 -105.259,270.862 -104.689,270.045 -104.165,269.269 -103.685,268.535 -103.248,267.845 -102.852,267.2 -102.496,266.6 -102.178,266.047 -101.897,265.541 -101.652,265.084 -101.441,264.676 -101.262,264.318 -101.115,264.012 -100.997,263.758 -100.907,263.556 -100.843,263.408 -100.805,263.315 -96.978,253.321 -70.205,262.007 -72.974,272.344 -72.997,272.442 -73.033,272.599 -73.078,272.815 -73.132,273.09 -73.193,273.425 -73.258,273.819 -73.326,274.273 -73.396,274.787 -73.466,275.361 -73.533,275.996 -73.597,276.691 -73.655,277.446 -73.706,278.261 -73.748,279.137 -73.78,280.072 -73.798,281.068 -73.803,282.124 -73.792,283.239 -73.762,284.413 -73.714,285.647 -73.644,286.939 -73.552,288.289 -73.435,289.698 -73.291,291.164 -73.12,292.687 -72.919,294.266 -72.686,295.902 -72.421,297.593 -72.121,299.338 -71.785,301.138 -71.411,302.991 -70.997,304.896 -70.542,306.854 -70.044,308.862 -69.502,310.921 -68.914,313.029 -68.278,315.186 -67.594,317.39 -67.505,317.669 -67.46,317.808 -67.438,317.878 -67.426,317.913 -67.423,317.922 -67.422,317.926 -67.421,317.93 -50.703,321.021 -50.701,321.018 -50.698,321.014 -50.692,321.007 -50.669,320.978 -50.623,320.921 -50.531,320.807 -50.348,320.578 -48.921,318.764 -47.557,316.978 -46.254,315.219 -45.011,313.49 -43.828,311.792 -42.704,310.127 -41.636,308.495 -40.624,306.898 -39.666,305.338 -38.762,303.815 -37.91,302.331 -37.108,300.887 -36.356,299.483 -35.651,298.122 -34.993,296.805 -34.38,295.531 -33.811,294.303 -33.284,293.121 -32.798,291.986 -32.351,290.9 -31.941,289.863 -31.568,288.875 -31.23,287.939 -30.924,287.054 -30.65,286.221 -30.406,285.441 -30.191,284.715 -30.002,284.044 -29.838,283.427 -29.698,282.866 -29.579,282.361 -29.481,281.912 -29.401,281.521 -29.338,281.187 -29.29,280.91 -29.255,280.693 -29.232,280.533 -29.219,280.433 -28.11,269.79 0,271.25 0,281.951 0.003,282.052 0.009,282.213 0.021,282.433 0.041,282.713 0.069,283.052 0.108,283.449 0.159,283.906 0.225,284.42 0.306,284.993 0.405,285.623 0.523,286.311 0.663,287.055 0.824,287.856 1.01,288.713 1.222,289.625 1.462,290.591 1.731,291.612 2.03,292.686 2.363,293.813 2.729,294.992 3.13,296.222 3.569,297.503 4.047,298.833 4.565,300.212 5.125,301.639 5.728,303.112 6.375,304.632 7.069,306.196 7.811,307.805 8.601,309.456 9.442,311.149 10.335,312.883 11.282,314.656 12.282,316.467 13.339,318.315 14.452,320.199 15.624,322.118 16.856,324.07 17.014,324.316 17.093,324.439 17.133,324.501 17.153,324.532 17.158,324.539 17.161,324.543 17.163,324.546 34.111,323.205 34.112,323.201 34.114,323.197 34.118,323.189 34.133,323.155 34.162,323.088 34.221,322.954 34.339,322.686 35.248,320.564 36.104,318.485 36.907,316.45 37.659,314.458 38.363,312.512 39.018,310.612 39.627,308.76 40.191,306.955 40.712,305.2 41.192,303.495 41.631,301.841 42.031,300.239 42.395,298.688 42.723,297.191 43.018,295.748 43.28,294.359 43.512,293.026 43.716,291.748 43.892,290.526 44.042,289.361 44.169,288.253 44.274,287.203 44.359,286.21 44.425,285.276 44.473,284.401 44.507,283.585 44.528,282.828 44.536,282.13 44.535,281.492 44.525,280.914 44.509,280.395 44.488,279.936 44.464,279.538 44.438,279.199 44.413,278.919 44.39,278.7 44.371,278.54 44.358,278.44 42.675,267.872 70.205,262.007 72.975,272.343 73.003,272.441 73.051,272.594 73.12,272.804 73.211,273.069 73.326,273.389 73.466,273.763 73.634,274.191 73.83,274.671 74.057,275.203 74.316,275.786 74.608,276.42 74.935,277.103 75.299,277.834 75.7,278.614 76.141,279.44 76.623,280.311 77.147,281.228 77.714,282.188 78.326,283.19 78.985,284.234 79.692,285.318 80.447,286.442 81.253,287.603 82.11,288.801 83.02,290.034 83.984,291.302 85.003,292.602 86.078,293.933 87.21,295.295 88.401,296.685 89.652,298.103 90.963,299.546 92.336,301.014 93.771,302.505 95.27,304.017 96.833,305.548 98.462,307.098 100.157,308.665 100.373,308.861 100.482,308.96 100.536,309.009 100.564,309.034 100.57,309.04 100.574,309.043 100.577,309.046 116.6,303.364 116.601,303.36 116.601,303.355 116.603,303.346 116.608,303.31 116.62,303.237 116.642,303.092 116.686,302.803 117.015,300.519 117.304,298.289 117.553,296.115 117.764,293.996 117.94,291.934 118.081,289.93 118.19,287.983 118.268,286.094 118.317,284.264 118.339,282.493 118.335,280.781 118.307,279.13 118.257,277.538 118.186,276.007 118.097,274.537 117.991,273.128 117.87,271.779 117.736,270.492 117.59,269.266 117.434,268.102 117.27,266.999 117.099,265.957 116.924,264.977 116.746,264.058 116.567,263.2 116.388,262.403 116.212,261.666 116.039,260.99 115.873,260.374 115.714,259.818 115.564,259.321 115.425,258.883 115.298,258.504 115.186,258.184 115.09,257.92 115.011,257.714 114.951,257.565 114.912,257.471 110.551,247.699 135.625,234.909 140.976,244.176 141.029,244.263 141.115,244.399 141.235,244.584 141.392,244.816 141.585,245.095 141.818,245.42 142.091,245.79 142.405,246.203 142.762,246.658 143.162,247.154 143.609,247.691 144.101,248.266 144.642,248.879 145.231,249.527 145.871,250.211 146.562,250.929 147.305,251.678 148.102,252.459 148.953,253.268 149.859,254.106 150.822,254.971 151.842,255.86 152.921,256.773 154.059,257.709 155.257,258.664 156.516,259.639 157.837,260.631 159.22,261.639 160.667,262.661 162.177,263.696 163.752,264.742 165.392,265.797 167.098,266.859 168.87,267.927 170.709,269 172.616,270.075 174.59,271.15 176.632,272.225 176.892,272.359 177.023,272.426 177.088,272.459 177.121,272.476 177.129,272.48 177.133,272.482 177.137,272.484 191.143,262.848 191.143,262.844 191.142,262.84 191.141,262.831 191.137,262.794 191.13,262.721 191.114,262.575 191.081,262.285 190.808,259.993 190.509,257.765 190.187,255.6 189.843,253.499 189.479,251.462 189.097,249.489 188.698,247.58 188.285,245.735 187.858,243.955 187.421,242.239 186.974,240.587 186.52,238.998 186.059,237.474 185.595,236.014 185.129,234.616 184.662,233.283 184.196,232.012 183.733,230.803 183.274,229.657 182.822,228.573 182.378,227.55 181.944,226.588 181.521,225.686 181.111,224.844 180.716,224.062 180.337,223.338 179.976,222.672 179.634,222.064 179.314,221.512 179.017,221.016 178.743,220.575 178.496,220.188 178.275,219.855 178.084,219.574 177.923,219.345 177.793,219.166 177.697,219.037 177.635,218.957 170.894,210.647 191.803,191.803 199.37,199.369 199.443,199.439 199.561,199.548 199.726,199.695 199.937,199.879 200.196,200.099 200.505,200.353 200.864,200.639 201.274,200.957 201.737,201.304 202.253,201.68 202.822,202.082 203.447,202.51 204.128,202.962 204.865,203.436 205.66,203.931 206.513,204.445 207.425,204.977 208.396,205.525 209.428,206.087 210.52,206.661 211.674,207.247 212.89,207.842 214.168,208.445 215.51,209.054 216.914,209.667 218.383,210.283 219.915,210.899 221.512,211.515 223.174,212.128 224.901,212.736 226.692,213.339 228.55,213.933 230.472,214.518 232.461,215.091 234.515,215.651 236.634,216.196 238.82,216.724 241.071,217.233 241.357,217.295 241.5,217.326 241.572,217.342 241.608,217.349 241.617,217.351 241.621,217.352 241.625,217.353 252.66,204.421 252.659,204.417 252.657,204.413 252.654,204.404 252.641,204.37 252.614,204.301 252.561,204.165 252.455,203.892 251.598,201.749 250.732,199.674 249.861,197.666 248.985,195.726 248.106,193.853 247.226,192.046 246.347,190.305 245.47,188.631 244.597,187.021 243.731,185.477 242.871,183.996 242.021,182.58 241.182,181.227 240.356,179.936 239.544,178.707 238.747,177.54 237.968,176.433 237.208,175.385 236.469,174.397 235.752,173.466 235.058,172.593 234.389,171.776 233.747,171.015 233.134,170.308 232.549,169.654 231.996,169.053 231.475,168.504 230.988,168.004 230.536,167.554 230.12,167.152 229.742,166.797 229.402,166.487 229.103,166.222 228.846,166.001 228.631,165.821 228.459,165.682 228.333,165.582 228.252,165.521 219.59,159.238 234.909,135.625 244.177,140.975 244.266,141.023 244.408,141.098 244.605,141.198 244.857,141.321 245.164,141.466 245.528,141.631 245.949,141.815 246.428,142.016 246.964,142.231 247.56,142.461 248.214,142.702 248.929,142.954 249.703,143.214 250.538,143.481 251.434,143.754 252.391,144.03 253.409,144.307 254.489,144.585 255.631,144.861 256.835,145.133 258.101,145.4 259.43,145.66 260.82,145.912 262.274,146.153 263.789,146.381 265.367,146.596 267.007,146.795 268.708,146.976 270.472,147.138 272.297,147.279 274.184,147.397 276.132,147.491 278.14,147.558 280.209,147.597 282.338,147.606 284.527,147.584 286.774,147.528 289.08,147.437 289.373,147.423 289.519,147.416 289.593,147.413 289.629,147.411 289.638,147.41 289.643,147.41 289.647,147.41 296.959,132.062 296.957,132.058 296.954,132.055 296.949,132.047 296.927,132.018 296.884,131.958 296.797,131.84 296.623,131.604 295.241,129.756 293.868,127.976 292.507,126.262 291.158,124.615 289.825,123.033 288.507,121.515 287.207,120.062 285.927,118.671 284.667,117.342 283.431,116.075 282.218,114.867 281.03,113.719 279.869,112.629 278.737,111.596 277.634,110.619 276.563,109.698 275.524,108.83 274.519,108.015 273.549,107.252 272.615,106.539 271.719,105.875 270.862,105.259 270.045,104.689 269.269,104.165 268.535,103.685 267.845,103.248 267.2,102.852 266.6,102.496 266.047,102.178 265.541,101.897 265.084,101.652 264.676,101.441 264.318,101.262 264.012,101.115 263.758,100.997 263.556,100.907 263.408,100.843 263.315,100.805 253.321,96.978 262.007,70.205 272.344,72.974 272.442,72.997 272.599,73.033 272.815,73.078 273.09,73.132 273.425,73.193 273.819,73.258 274.273,73.326 274.787,73.396 275.361,73.466 275.996,73.533 276.691,73.597 277.446,73.655 278.261,73.706 279.137,73.748 280.072,73.78 281.068,73.798 282.124,73.803 283.239,73.792 284.413,73.762 285.647,73.714 286.939,73.644 288.289,73.552 289.698,73.435 291.164,73.291 292.687,73.12 294.266,72.919 295.902,72.686 297.593,72.421 299.338,72.121 301.138,71.785 302.991,71.411 304.896,70.997 306.854,70.542 308.862,70.044 310.921,69.502 313.029,68.914 315.186,68.278 317.39,67.594 317.669,67.505 317.808,67.46 317.878,67.438 317.913,67.426 317.922,67.423 317.926,67.422 317.93,67.421 321.021,50.703 321.018,50.701 321.014,50.698 321.007,50.692 320.978,50.669 320.921,50.623 320.807,50.531 320.578,50.348 318.764,48.921 316.978,47.557 315.219,46.254 313.49,45.011 311.792,43.828 310.127,42.704 308.495,41.636 306.898,40.624 305.338,39.666 303.815,38.762 302.331,37.91 300.887,37.108 299.483,36.356 298.122,35.651 296.805,34.993 295.531,34.38 294.303,33.811 293.121,33.284 291.986,32.798 290.9,32.351 289.863,31.941 288.875,31.568 287.939,31.23 287.054,30.924 286.221,30.65 285.441,30.406 284.715,30.191 284.044,30.002 283.427,29.838 282.866,29.698 282.361,29.579 281.912,29.481 281.521,29.401 281.187,29.338 280.91,29.29 280.693,29.255 280.533,29.232 280.433,29.219 269.79,28.11 z"/><g class="guides"><polyline fill="none" stroke="#444" stroke-width="0.5" stroke-miterlimit="10" points="10,0 -10,0"/><polyline fill="none" stroke="#444" stroke-width="0.5" stroke-miterlimit="10" points="0,10 0,-10"/></g><circle fill="#c00" class="firstmarker" stroke="none" stroke-miterlimit="10" cx="299.065" cy="-23.673" r="9.813"/><g class="geartext"><g class="text"><polyline fill="none" stroke="#444" stroke-width="0.5" stroke-linecap="square" stroke-miterlimit="1"  points="153.17 -186.39 150.84 -188.28 148.49 -190.14 146.11 -191.97 143.72 -193.77 "/><polyline fill="none" stroke="#444" stroke-width="0.5" stroke-linecap="square" stroke-miterlimit="1"  points="144.8 -185.41 152.18 -194.87 "/><polyline fill="none" stroke="#444" stroke-width="0.5" stroke-linecap="square" stroke-miterlimit="1"  points="156.98 -191.02 152.72 -190.62 148.49 -190.14 144.3 -189.58 140.14 -188.95 "/><polyline fill="none" stroke="#444" stroke-width="0.5" stroke-linecap="square" stroke-miterlimit="1"  points="149.36 -181.75 148.97 -185.93 148.49 -190.14 147.93 -194.36 147.29 -198.59 "/><polyline fill="none" stroke="#444" stroke-width="0.5" stroke-linecap="square" stroke-miterlimit="1"  points="160.37 -172.12 156.2 -171.88 154.05 -173.81 153.84 -177.98 161.68 -187.06 165.99 -187.28 168.3 -185.2 168.55 -180.9 160.37 -172.12 "/><polyline fill="none" stroke="#444" stroke-width="0.5" stroke-linecap="square" stroke-miterlimit="1"  points="193.97 -158.12 180.01 -146.75 181.63 -151.86 183.14 -157.04 184.55 -162.27 185.86 -167.57 172.5 -155.52 "/><polyline fill="none" stroke="#444" stroke-width="0.5" stroke-linecap="square" stroke-miterlimit="1"  points="200.29 -139.79 198.54 -142.27 196.76 -144.73 194.94 -147.16 193.1 -149.57 "/><polyline fill="none" stroke="#444" stroke-width="0.5" stroke-linecap="square" stroke-miterlimit="1"  points="195.37 -136.35 193.66 -138.77 191.92 -141.17 190.15 -143.55 188.35 -145.9 "/><polyline fill="none" stroke="#444" stroke-width="0.5" stroke-linecap="square" stroke-miterlimit="1"  points="199.83 -118.35 198.34 -120.83 196.83 -123.29 195.28 -125.72 193.7 -128.14 198.7 -131.45 202.85 -130.6 204.45 -128.06 206.03 -125.51 210.16 -124.47 212.74 -126 213.72 -130.19 212.08 -132.84 210.41 -135.47 206.21 -136.42 "/><polyline fill="none" stroke="#444" stroke-width="0.5" stroke-linecap="square" stroke-miterlimit="1"  points="213.47 -105.79 212.14 -108.44 210.78 -111.07 209.38 -113.68 207.95 -116.28 212.89 -115.59 217.85 -114.8 222.83 -113.9 206.8 -105.71 "/><polyline fill="none" stroke="#444" stroke-width="0.5" stroke-linecap="square" stroke-miterlimit="1"  points="224.66 -87.93 225.73 -85.13 226.77 -82.31 227.78 -79.49 231.59 -77.6 234.44 -78.55 236.28 -82.45 235.23 -85.38 234.15 -88.3 233.04 -91.21 216.28 -84.65 "/><polyline fill="none" stroke="#444" stroke-width="0.5" stroke-linecap="square" stroke-miterlimit="1"  points="221.98 -68.29 233.45 -71.82 "/><polyline fill="none" stroke="#444" stroke-width="0.5" stroke-linecap="square" stroke-miterlimit="1"  points="236.32 -72.7 239.19 -73.58 "/><polyline fill="none" stroke="#444" stroke-width="0.5" stroke-linecap="square" stroke-miterlimit="1"  points="229.38 -52.22 225.8 -54.36 228.01 -57.91 242.55 -61.6 "/><polyline fill="none" stroke="#444" stroke-width="0.5" stroke-linecap="square" stroke-miterlimit="1"  points="238.16 -54.22 237.46 -57.17 236.73 -60.12 235.97 -63.06 235.17 -65.99 "/><polyline fill="none" stroke="#444" stroke-width="0.5" stroke-linecap="square" stroke-miterlimit="1"  points="229.67 -34.53 229.22 -37.38 228.74 -40.23 228.22 -43.07 230.61 -46.5 236.49 -47.68 240.01 -45.3 240.56 -42.31 241.07 -39.31 241.54 -36.31 "/><polyline fill="none" stroke="#444" stroke-width="0.5" stroke-linecap="square" stroke-miterlimit="1"  points="236.41 -29.55 239.74 -26.94 243.04 -24.26 243.33 -21.23 240.58 -17.98 231.6 -17.31 "/><polyline fill="none" stroke="#444" stroke-width="0.5" stroke-linecap="square" stroke-miterlimit="1"  points="230.46 -28.81 248.32 -31.04 "/><polyline fill="none" stroke="#444" stroke-width="0.5" stroke-linecap="square" stroke-miterlimit="1"  points="232.23 2.89 232.18 5.78 232.09 8.66 231.96 11.55 234.8 14.62 246.77 15.36 249.94 12.44 250.08 9.33 250.17 6.22 250.23 3.11 "/><polyline fill="none" stroke="#444" stroke-width="0.5" stroke-linecap="square" stroke-miterlimit="1"  points="250.17 6.22 232.18 5.78 "/><polyline fill="none" stroke="#444" stroke-width="0.5" stroke-linecap="square" stroke-miterlimit="1"  points="241.97 33.31 242.36 30.29 242.72 27.28 243.04 24.26 243.33 21.23 "/><polyline fill="none" stroke="#444" stroke-width="0.5" stroke-linecap="square" stroke-miterlimit="1"  points="236.02 32.49 236.41 29.55 236.76 26.61 237.07 23.66 237.35 20.71 "/><polyline fill="none" stroke="#444" stroke-width="0.5" stroke-linecap="square" stroke-miterlimit="1"  points="238.1 38.83 237.6 41.79 237.07 44.74 236.49 47.68 232.95 49.99 230.01 49.36 227.67 45.91 228.22 43.07 228.74 40.23 232.18 37.86 241.07 39.31 243.51 42.83 245.91 46.41 245.31 49.46 "/><polyline fill="none" stroke="#444" stroke-width="0.5" stroke-linecap="square" stroke-miterlimit="1"  points="230.59 70.94 229.69 73.8 228.75 76.65 227.78 79.49 229.59 83.34 232.41 84.36 236.28 82.45 237.28 79.51 238.25 76.55 239.19 73.58 221.98 68.29 "/><polyline fill="none" stroke="#444" stroke-width="0.5" stroke-linecap="square" stroke-miterlimit="1"  points="222.74 100.22 223.97 97.44 225.17 94.65 226.33 91.84 227.45 89.02 "/><polyline fill="none" stroke="#444" stroke-width="0.5" stroke-linecap="square" stroke-miterlimit="1"  points="217.27 97.76 218.47 95.05 219.63 92.32 220.77 89.59 221.86 86.83 "/><polyline fill="none" stroke="#444" stroke-width="0.5" stroke-linecap="square" stroke-miterlimit="1"  points="209.38 113.68 210.78 111.07 212.14 108.44 213.47 105.79 214.77 103.13 217.06 107.57 219.26 112.08 221.39 116.66 205.47 108.27 "/><polyline fill="none" stroke="#444" stroke-width="0.5" stroke-linecap="square" stroke-miterlimit="1"  points="201.21 133.11 199.53 135.6 197.83 138.07 196.1 140.52 196.76 144.73 199.17 146.5 203.42 145.76 205.21 143.22 206.98 140.66 208.71 138.07 193.7 128.14 "/><polyline fill="none" stroke="#444" stroke-width="0.5" stroke-linecap="square" stroke-miterlimit="1"  points="183.61 142.23 188.35 145.9 191.22 151.96 193.97 158.12 187.38 156.67 180.86 155.08 176.31 151.18 "/><polyline fill="none" stroke="#444" stroke-width="0.5" stroke-linecap="square" stroke-miterlimit="1"  points="188.35 145.9 186.52 148.23 184.67 150.54 182.78 152.82 180.86 155.08 "/><polyline fill="none" stroke="#444" stroke-width="0.5" stroke-linecap="square" stroke-miterlimit="1"  points="173.05 172.37 175.18 170.2 177.29 168.01 179.36 165.79 181.41 163.55 "/><polyline fill="none" stroke="#444" stroke-width="0.5" stroke-linecap="square" stroke-miterlimit="1"  points="168.8 168.13 170.88 166.02 172.93 163.88 174.95 161.72 176.95 159.53 "/><polyline fill="none" stroke="#444" stroke-width="0.5" stroke-linecap="square" stroke-miterlimit="1"  points="151.87 175.71 154.05 173.81 156.2 171.88 158.32 169.92 160.42 167.94 164.57 172.28 164.46 176.51 162.25 178.54 160.02 180.54 159.72 184.79 161.68 187.06 165.99 187.28 168.3 185.2 170.59 183.09 170.78 178.79 "/><polyline fill="none" stroke="#444" stroke-width="0.5" stroke-linecap="square" stroke-miterlimit="1"  points="142.48 187.19 142.95 183.04 145.22 181.25 149.36 181.75 156.98 191.02 156.47 195.3 154.03 197.23 149.75 196.74 142.48 187.19 "/></g></g><g class="guides gearguides" opacity="0.2"><circle class="pitch" fill="none" stroke="#f00" stroke-miterlimit="10" cx="0" cy="0" r="300"/><circle class="outer" fill="none" stroke="#ccc" stroke-miterlimit="10" stroke-dasharray="2,2" cx="0" cy="0" r="325"/><circle class="base" fill="none" stroke="#00f" stroke-miterlimit="10" stroke-dasharray="2,2" cx="0" cy="0" r="281.91"/></g></g><g transform="translate(775,400) rotate(-7641.07)"><path id="gearpoly1" data-id="1" class="gear" fill="#ddd" stroke="#444" stroke-width="1" stroke-miterlimit="10" d="M46.25,0 70.488,0 70.678,-0.01 71.105,-0.056 71.764,-0.166 72.648,-0.365 73.748,-0.682 75.053,-1.141 76.549,-1.767 78.221,-2.584 80.05,-3.613 82.017,-4.876 84.1,-6.391 86.276,-8.175 88.52,-10.245 90.806,-12.614 93.105,-15.292 95.39,-18.289 97.629,-21.611 97.634,-21.618 97.634,-21.624 94.793,-31.849 94.789,-31.854 94.782,-31.857 91.149,-33.548 87.646,-34.937 84.295,-36.045 81.115,-36.894 78.125,-37.51 75.34,-37.916 72.773,-38.139 70.437,-38.205 68.339,-38.143 66.486,-37.98 64.881,-37.745 63.527,-37.465 62.421,-37.168 61.56,-36.884 60.94,-36.637 60.55,-36.457 60.382,-36.367 39.619,-23.862 23.125,-40.054 35.244,-61.044 35.33,-61.214 35.504,-61.607 35.738,-62.232 36.007,-63.098 36.283,-64.209 36.538,-65.568 36.744,-67.177 36.873,-69.033 36.896,-71.132 36.786,-73.466 36.516,-76.028 36.058,-78.805 35.387,-81.783 34.479,-84.947 33.309,-88.277 31.856,-91.754 30.099,-95.355 30.095,-95.362 30.09,-95.366 19.814,-98.017 19.808,-98.017 19.802,-98.012 16.521,-95.712 13.567,-93.372 10.932,-91.024 8.606,-88.695 6.578,-86.413 4.834,-84.204 3.358,-82.093 2.132,-80.103 1.136,-78.255 0.351,-76.569 -0.247,-75.061 -0.682,-73.748 -0.978,-72.642 -1.162,-71.755 -1.259,-71.094 -1.297,-70.666 -1.304,-70.476 -0.856,-46.242 -23.125,-40.054 -35.244,-61.044 -35.348,-61.204 -35.601,-61.551 -36.025,-62.067 -36.64,-62.732 -37.465,-63.527 -38.515,-64.427 -39.805,-65.41 -41.348,-66.449 -43.154,-67.519 -45.231,-68.591 -47.584,-69.637 -50.218,-70.63 -53.133,-71.538 -56.327,-72.333 -59.796,-72.985 -63.533,-73.465 -67.531,-73.744 -67.539,-73.744 -67.544,-73.741 -74.978,-66.168 -74.981,-66.163 -74.98,-66.155 -74.628,-62.164 -74.079,-58.435 -73.363,-54.979 -72.509,-51.8 -71.547,-48.903 -70.506,-46.288 -69.416,-43.954 -68.305,-41.898 -67.203,-40.112 -66.135,-38.588 -65.129,-37.316 -64.209,-36.283 -63.399,-35.474 -62.722,-34.871 -62.199,-34.457 -61.847,-34.21 -61.686,-34.109 -40.475,-22.38 -46.25,0 -70.488,0 -70.678,0.01 -71.105,0.056 -71.764,0.166 -72.648,0.365 -73.748,0.682 -75.053,1.141 -76.549,1.767 -78.221,2.584 -80.05,3.613 -82.017,4.876 -84.1,6.391 -86.276,8.175 -88.52,10.245 -90.806,12.614 -93.105,15.292 -95.39,18.289 -97.629,21.611 -97.634,21.618 -97.634,21.624 -94.793,31.849 -94.789,31.854 -94.782,31.857 -91.149,33.548 -87.646,34.937 -84.295,36.045 -81.115,36.894 -78.125,37.51 -75.34,37.916 -72.773,38.139 -70.437,38.205 -68.339,38.143 -66.486,37.98 -64.881,37.745 -63.527,37.465 -62.421,37.168 -61.56,36.884 -60.94,36.637 -60.55,36.457 -60.382,36.367 -39.619,23.862 -23.125,40.054 -35.244,61.044 -35.33,61.214 -35.504,61.607 -35.738,62.232 -36.007,63.098 -36.283,64.209 -36.538,65.568 -36.744,67.177 -36.873,69.033 -36.896,71.132 -36.786,73.466 -36.516,76.028 -36.058,78.805 -35.387,81.783 -34.479,84.947 -33.309,88.277 -31.856,91.754 -30.099,95.355 -30.095,95.362 -30.09,95.366 -19.814,98.017 -19.808,98.017 -19.802,98.012 -16.521,95.712 -13.567,93.372 -10.932,91.024 -8.606,88.695 -6.578,86.413 -4.834,84.204 -3.358,82.093 -2.132,80.103 -1.136,78.255 -0.351,76.569 0.247,75.061 0.682,73.748 0.978,72.642 1.162,71.755 1.259,71.094 1.297,70.666 1.304,70.476 0.856,46.242 23.125,40.054 35.244,61.044 35.348,61.204 35.601,61.551 36.025,62.067 36.64,62.732 37.465,63.527 38.515,64.427 39.805,65.41 41.348,66.449 43.154,67.519 45.231,68.591 47.584,69.637 50.218,70.63 53.133,71.538 56.327,72.333 59.796,72.985 63.533,73.465 67.531,73.744 67.539,73.744 67.544,73.741 74.978,66.168 74.981,66.163 74.98,66.155 74.628,62.164 74.079,58.435 73.363,54.979 72.509,51.8 71.547,48.903 70.506,46.288 69.416,43.954 68.305,41.898 67.203,40.112 66.135,38.588 65.129,37.316 64.209,36.283 63.399,35.474 62.722,34.871 62.199,34.457 61.847,34.21 61.686,34.109 40.475,22.38 z"/><g class="guides"><polyline fill="none" stroke="#444" stroke-width="0.5" stroke-miterlimit="10" points="10,0 -10,0"/><polyline fill="none" stroke="#444" stroke-width="0.5" stroke-miterlimit="10" points="0,10 0,-10"/></g><circle fill="#c00" class="firstmarker" stroke="none" stroke-miterlimit="10" cx="72.262" cy="-20.081" r="9.813"/><g class="geartext"><g class="text"><polyline fill="none" stroke="#444" stroke-width="0.5" stroke-linecap="square" stroke-miterlimit="1"  points="-20.83 -28.42 -21.7 -27.76 -22.56 -27.07 -23.4 -26.35 -24.21 -25.61 "/><polyline fill="none" stroke="#444" stroke-width="0.5" stroke-linecap="square" stroke-miterlimit="1"  points="-21.15 -25.38 -23.97 -28.76 "/><polyline fill="none" stroke="#444" stroke-width="0.5" stroke-linecap="square" stroke-miterlimit="1"  points="-22.13 -30.2 -22.38 -28.63 -22.56 -27.07 -22.66 -25.53 -22.69 -24.01 "/><polyline fill="none" stroke="#444" stroke-width="0.5" stroke-linecap="square" stroke-miterlimit="1"  points="-19.52 -26.65 -21.03 -26.89 -22.56 -27.07 -24.13 -27.17 -25.72 -27.21 "/><polyline fill="none" stroke="#444" stroke-width="0.5" stroke-linecap="square" stroke-miterlimit="1"  points="-20.2 -31.52 -19.77 -33.09 -16.38 -27.41 "/><polyline fill="none" stroke="#444" stroke-width="0.5" stroke-linecap="square" stroke-miterlimit="1"  points="-15.52 -27.91 -16.38 -27.41 -17.23 -26.89 "/><polyline fill="none" stroke="#444" stroke-width="0.5" stroke-linecap="square" stroke-miterlimit="1"  points="-6.28 -38.03 -5.2 -31.51 -6.5 -32.95 -7.9 -34.34 -9.39 -35.68 -10.97 -36.95 -9.09 -30.61 "/><polyline fill="none" stroke="#444" stroke-width="0.5" stroke-linecap="square" stroke-miterlimit="1"  points="0.87 -36.33 -0.27 -36.34 -1.4 -36.31 -2.54 -36.25 -3.67 -36.15 "/><polyline fill="none" stroke="#444" stroke-width="0.5" stroke-linecap="square" stroke-miterlimit="1"  points="0.82 -34.13 -0.25 -34.14 -1.32 -34.11 -2.38 -34.05 -3.44 -33.96 "/><polyline fill="none" stroke="#444" stroke-width="0.5" stroke-linecap="square" stroke-miterlimit="1"  points="3.04 -35.11 4.14 -34.99 5.23 -34.85 6.31 -34.67 7.16 -33.38 6.93 -32.3 5.72 -31.42 4.74 -31.58 3.75 -31.71 2.85 -32.91 3.14 -36.2 4.4 -37.18 5.72 -38.12 6.91 -37.92 "/><polyline fill="none" stroke="#444" stroke-width="0.5" stroke-linecap="square" stroke-miterlimit="1"  points="14.7 -32.03 15.69 -31.55 16.67 -31.05 17.63 -30.51 19.15 -30.88 19.73 -31.82 19.28 -33.37 18.23 -33.96 17.16 -34.51 16.07 -35.03 13.32 -29.03 "/><polyline fill="none" stroke="#444" stroke-width="0.5" stroke-linecap="square" stroke-miterlimit="1"  points="18.49 -26.03 21.05 -29.62 "/><polyline fill="none" stroke="#444" stroke-width="0.5" stroke-linecap="square" stroke-miterlimit="1"  points="21.68 -30.52 22.32 -31.42 "/><polyline fill="none" stroke="#444" stroke-width="0.5" stroke-linecap="square" stroke-miterlimit="1"  points="23.82 -22.89 22.32 -22.84 22.34 -24.34 26.06 -28.39 "/><polyline fill="none" stroke="#444" stroke-width="0.5" stroke-linecap="square" stroke-miterlimit="1"  points="26.2 -25.18 25.4 -25.99 24.57 -26.77 23.73 -27.52 22.85 -28.25 "/><polyline fill="none" stroke="#444" stroke-width="0.5" stroke-linecap="square" stroke-miterlimit="1"  points="26.74 -17.45 26.19 -18.28 25.6 -19.09 24.99 -19.88 25.2 -21.36 26.88 -22.79 28.44 -22.62 29.13 -21.72 29.8 -20.8 30.43 -19.86 "/><polyline fill="none" stroke="#444" stroke-width="0.5" stroke-linecap="square" stroke-miterlimit="1"  points="29.7 -16.83 31.18 -16.41 32.67 -15.91 33.15 -14.88 32.58 -13.42 29.53 -12.16 "/><polyline fill="none" stroke="#444" stroke-width="0.5" stroke-linecap="square" stroke-miterlimit="1"  points="27.78 -15.75 33.53 -19 "/><polyline fill="none" stroke="#444" stroke-width="0.5" stroke-linecap="square" stroke-miterlimit="1"  points="31.46 -5.46 31.62 -4.48 31.74 -3.49 31.84 -2.49 33 -1.55 37.4 -1.75 38.42 -3.01 38.31 -4.21 38.16 -5.4 37.97 -6.59 "/><polyline fill="none" stroke="#444" stroke-width="0.5" stroke-linecap="square" stroke-miterlimit="1"  points="38.16 -5.4 31.62 -4.48 "/><polyline fill="none" stroke="#444" stroke-width="0.5" stroke-linecap="square" stroke-miterlimit="1"  points="35.98 5.09 36.12 3.97 36.23 2.84 36.3 1.7 36.33 0.57 "/><polyline fill="none" stroke="#444" stroke-width="0.5" stroke-linecap="square" stroke-miterlimit="1"  points="33.8 4.78 33.93 3.73 34.03 2.66 34.1 1.6 34.13 0.53 "/><polyline fill="none" stroke="#444" stroke-width="0.5" stroke-linecap="square" stroke-miterlimit="1"  points="36.67 7.55 37.49 8.95 31.06 7.42 "/><polyline fill="none" stroke="#444" stroke-width="0.5" stroke-linecap="square" stroke-miterlimit="1"  points="30.81 8.38 31.06 7.42 31.28 6.44 "/><polyline fill="none" stroke="#444" stroke-width="0.5" stroke-linecap="square" stroke-miterlimit="1"  points="31.27 10.65 30.23 10.29 "/><polyline fill="none" stroke="#444" stroke-width="0.5" stroke-linecap="square" stroke-miterlimit="1"  points="33.53 19 34.11 17.95 34.65 16.87 35.16 15.78 35.64 14.68 33.6 13.84 33.15 14.88 32.67 15.91 32.16 16.92 30.66 17.38 28.74 16.29 28.26 14.87 28.71 13.98 29.13 13.08 30.55 12.58 "/><polyline fill="none" stroke="#444" stroke-width="0.5" stroke-linecap="square" stroke-miterlimit="1"  points="26.16 23.61 25.4 24.42 24.63 25.2 23.83 25.96 23.73 27.52 24.45 28.36 26.06 28.39 26.94 27.56 27.79 26.71 28.61 25.83 23.7 21.4 "/><polyline fill="none" stroke="#444" stroke-width="0.5" stroke-linecap="square" stroke-miterlimit="1"  points="18.18 31.46 19.15 30.88 20.11 30.27 21.05 29.62 21.96 28.95 "/><polyline fill="none" stroke="#444" stroke-width="0.5" stroke-linecap="square" stroke-miterlimit="1"  points="17.08 29.56 17.99 29.01 18.89 28.43 19.77 27.83 20.63 27.2 "/><polyline fill="none" stroke="#444" stroke-width="0.5" stroke-linecap="square" stroke-miterlimit="1"  points="11.27 32.22 12.27 31.86 13.26 31.46 14.24 31.03 15.2 30.57 14.85 32.36 14.4 34.16 13.85 35.97 11.48 29.8 "/><polyline fill="none" stroke="#444" stroke-width="0.5" stroke-linecap="square" stroke-miterlimit="1"  points="4.14 34.99 3.04 35.11 1.94 35.18 0.84 35.23 -0.27 36.34 -0.27 37.44 0.92 38.53 2.13 38.48 3.33 38.4 4.52 38.28 3.75 31.71 "/><polyline fill="none" stroke="#444" stroke-width="0.5" stroke-linecap="square" stroke-miterlimit="1"  points="-2.23 31.86 -2.38 34.05 -3.67 36.15 -5.09 38.2 -5.92 35.85 -6.61 33.49 -6.18 31.33 "/><polyline fill="none" stroke="#444" stroke-width="0.5" stroke-linecap="square" stroke-miterlimit="1"  points="-2.38 34.05 -3.44 33.96 -4.5 33.84 -5.56 33.68 -6.61 33.49 "/><polyline fill="none" stroke="#444" stroke-width="0.5" stroke-linecap="square" stroke-miterlimit="1"  points="-13.56 33.72 -12.5 34.12 -11.43 34.5 -10.34 34.84 -9.25 35.14 "/><polyline fill="none" stroke="#444" stroke-width="0.5" stroke-linecap="square" stroke-miterlimit="1"  points="-12.74 31.67 -11.74 32.05 -10.73 32.41 -9.72 32.73 -8.69 33.01 "/><polyline fill="none" stroke="#444" stroke-width="0.5" stroke-linecap="square" stroke-miterlimit="1"  points="-17.23 26.89 -16.38 27.41 -15.52 27.91 -14.64 28.38 -13.74 28.83 -14.69 30.81 -16.15 31.32 -17.12 30.8 -18.07 30.25 -19.6 30.6 -20.2 31.52 -19.77 33.09 -18.73 33.69 -17.66 34.26 -16.11 33.8 "/><polyline fill="none" stroke="#444" stroke-width="0.5" stroke-linecap="square" stroke-miterlimit="1"  points="-21.93 24.7 -20.45 24.53 -19.67 25.16 -19.52 26.65 -22.13 30.2 -23.74 30.36 -24.68 29.61 -24.86 28 -21.93 24.7 "/></g></g><g class="guides gearguides" opacity="0.2"><circle class="pitch" fill="none" stroke="#f00" stroke-miterlimit="10" cx="0" cy="0" r="75"/><circle class="outer" fill="none" stroke="#ccc" stroke-miterlimit="10" stroke-dasharray="2,2" cx="0" cy="0" r="100"/><circle class="base" fill="none" stroke="#00f" stroke-miterlimit="10" stroke-dasharray="2,2" cx="0" cy="0" r="70.48"/></g></g><g transform="translate(775,400) rotate(-7640.854)"><path id="gearpoly2" data-id="2" class="gear" fill="#ddd" stroke="#444" stroke-width="1" stroke-miterlimit="10" d="M196.25,0 211.463,0 211.574,-0.004 211.765,-0.013 212.035,-0.03 212.383,-0.06 212.81,-0.105 213.315,-0.169 213.898,-0.253 214.557,-0.361 215.292,-0.497 216.102,-0.663 216.986,-0.862 217.944,-1.096 218.973,-1.37 220.074,-1.686 221.244,-2.046 222.483,-2.454 223.788,-2.913 225.159,-3.424 226.593,-3.991 228.09,-4.616 229.647,-5.302 231.263,-6.052 232.935,-6.867 234.662,-7.752 236.441,-8.707 238.271,-9.735 240.149,-10.839 242.074,-12.021 244.041,-13.283 246.05,-14.627 248.098,-16.055 249.136,-16.801 249.397,-16.991 249.413,-17.003 249.417,-17.006 249.421,-17.009 247.81,-33.021 247.806,-33.023 247.801,-33.025 247.783,-33.034 247.489,-33.168 246.324,-33.693 244.032,-34.684 241.796,-35.601 239.616,-36.446 237.495,-37.22 235.435,-37.928 233.436,-38.571 231.502,-39.153 229.634,-39.675 227.833,-40.142 226.1,-40.554 224.438,-40.917 222.846,-41.231 221.328,-41.501 219.882,-41.729 218.512,-41.918 217.217,-42.071 215.998,-42.191 214.857,-42.281 213.793,-42.344 212.808,-42.383 211.902,-42.402 211.075,-42.403 210.328,-42.39 209.66,-42.365 209.073,-42.331 208.565,-42.292 208.138,-42.252 207.791,-42.211 207.523,-42.175 207.334,-42.146 207.224,-42.127 192.316,-39.097 184.415,-67.121 198.71,-72.325 198.814,-72.366 198.99,-72.44 199.237,-72.549 199.554,-72.696 199.94,-72.884 200.393,-73.116 200.911,-73.395 201.494,-73.722 202.138,-74.101 202.843,-74.534 203.605,-75.023 204.425,-75.571 205.299,-76.181 206.225,-76.854 207.201,-77.593 208.226,-78.4 209.296,-79.277 210.409,-80.226 211.563,-81.249 212.756,-82.349 213.984,-83.526 215.246,-84.783 216.539,-86.122 217.859,-87.543 219.204,-89.049 220.572,-90.642 221.959,-92.321 223.363,-94.09 224.781,-95.949 226.209,-97.899 227.645,-99.941 228.365,-100.998 228.545,-101.265 228.556,-101.282 228.559,-101.286 228.561,-101.29 221.571,-115.786 221.566,-115.786 221.561,-115.787 221.541,-115.788 221.22,-115.814 219.945,-115.908 217.453,-116.056 215.037,-116.153 212.7,-116.201 210.442,-116.204 208.264,-116.164 206.166,-116.085 204.15,-115.97 202.216,-115.822 200.364,-115.644 198.594,-115.44 196.908,-115.211 195.305,-114.963 193.786,-114.697 192.35,-114.416 190.997,-114.125 189.728,-113.826 188.542,-113.522 187.439,-113.216 186.418,-112.912 185.478,-112.612 184.62,-112.32 183.843,-112.038 183.145,-111.77 182.527,-111.518 181.986,-111.285 181.523,-111.076 181.135,-110.891 180.822,-110.734 180.583,-110.609 180.415,-110.517 180.319,-110.461 167.346,-102.515 150.336,-126.147 161.99,-135.926 162.073,-136 162.213,-136.129 162.408,-136.317 162.656,-136.564 162.954,-136.873 163.301,-137.245 163.692,-137.684 164.128,-138.191 164.603,-138.767 165.118,-139.415 165.667,-140.136 166.25,-140.931 166.862,-141.803 167.503,-142.752 168.167,-143.781 168.854,-144.889 169.559,-146.079 170.281,-147.352 171.016,-148.708 171.76,-150.149 172.512,-151.676 173.268,-153.289 174.024,-154.988 174.779,-156.776 175.528,-158.651 176.269,-160.615 176.998,-162.668 177.712,-164.811 178.408,-167.042 179.084,-169.363 179.734,-171.773 180.05,-173.012 180.127,-173.325 180.132,-173.345 180.133,-173.35 180.134,-173.354 168.608,-184.585 168.603,-184.584 168.598,-184.582 168.579,-184.577 168.268,-184.491 167.038,-184.144 164.645,-183.431 162.342,-182.695 160.13,-181.941 158.007,-181.171 155.974,-180.389 154.029,-179.597 152.174,-178.8 150.407,-177.999 148.727,-177.198 147.135,-176.401 145.628,-175.61 144.207,-174.828 142.871,-174.058 141.617,-173.304 140.446,-172.567 139.355,-171.852 138.345,-171.161 137.412,-170.496 136.557,-169.861 135.777,-169.258 135.071,-168.69 134.437,-168.159 133.873,-167.668 133.378,-167.22 132.949,-166.817 132.585,-166.461 132.284,-166.155 132.044,-165.901 131.862,-165.701 131.736,-165.558 131.664,-165.472 122.192,-153.568 98.125,-169.957 105.731,-183.133 105.784,-183.23 105.872,-183.4 105.991,-183.643 106.139,-183.959 106.314,-184.352 106.512,-184.821 106.73,-185.367 106.965,-185.992 107.215,-186.696 107.477,-187.481 107.747,-188.346 108.022,-189.293 108.3,-190.322 108.577,-191.433 108.85,-192.626 109.116,-193.903 109.372,-195.262 109.614,-196.705 109.841,-198.231 110.048,-199.84 110.232,-201.531 110.391,-203.305 110.52,-205.161 110.618,-207.099 110.68,-209.118 110.705,-211.217 110.688,-213.395 110.626,-215.652 110.517,-217.988 110.358,-220.399 110.145,-222.887 110.018,-224.159 109.984,-224.48 109.981,-224.5 109.981,-224.505 109.98,-224.509 95.308,-231.12 95.304,-231.118 95.3,-231.115 95.283,-231.103 95.02,-230.916 93.983,-230.169 91.979,-228.68 90.067,-227.202 88.245,-225.736 86.514,-224.287 84.871,-222.856 83.314,-221.448 81.844,-220.063 80.457,-218.707 79.153,-217.38 77.929,-216.086 76.784,-214.827 75.716,-213.606 74.723,-212.426 73.803,-211.288 72.954,-210.196 72.174,-209.151 71.461,-208.155 70.812,-207.212 70.226,-206.322 69.699,-205.489 69.23,-204.714 68.815,-203.998 68.453,-203.344 68.141,-202.753 67.877,-202.228 67.656,-201.769 67.478,-201.379 67.339,-201.058 67.236,-200.807 67.167,-200.63 67.129,-200.525 62.299,-186.099 34.078,-193.269 36.72,-208.251 36.736,-208.361 36.76,-208.55 36.789,-208.819 36.82,-209.167 36.85,-209.595 36.876,-210.104 36.894,-210.692 36.902,-211.36 36.896,-212.107 36.873,-212.934 36.831,-213.839 36.766,-214.823 36.675,-215.884 36.555,-217.023 36.403,-218.238 36.217,-219.529 35.992,-220.894 35.727,-222.333 35.418,-223.844 35.062,-225.426 34.656,-227.079 34.199,-228.8 33.686,-230.589 33.115,-232.443 32.483,-234.361 31.788,-236.342 31.027,-238.383 30.197,-240.483 29.296,-242.64 28.322,-244.852 27.271,-247.117 26.716,-248.269 26.574,-248.558 26.565,-248.577 26.563,-248.581 26.561,-248.585 10.512,-249.779 10.509,-249.775 10.507,-249.771 10.495,-249.755 10.312,-249.489 9.593,-248.432 8.219,-246.348 6.927,-244.304 5.717,-242.304 4.586,-240.35 3.531,-238.444 2.55,-236.588 1.642,-234.784 0.803,-233.035 0.031,-231.342 -0.676,-229.707 -1.322,-228.133 -1.908,-226.621 -2.437,-225.172 -2.913,-223.788 -3.337,-222.471 -3.712,-221.222 -4.042,-220.043 -4.329,-218.935 -4.576,-217.898 -4.786,-216.935 -4.962,-216.046 -5.106,-215.232 -5.223,-214.493 -5.314,-213.832 -5.383,-213.247 -5.433,-212.741 -5.467,-212.313 -5.488,-211.964 -5.499,-211.694 -5.503,-211.503 -5.503,-211.391 -5.107,-196.184 -34.078,-193.269 -36.721,-208.25 -36.743,-208.359 -36.785,-208.546 -36.849,-208.808 -36.939,-209.146 -37.058,-209.559 -37.208,-210.045 -37.392,-210.604 -37.613,-211.234 -37.874,-211.934 -38.178,-212.704 -38.528,-213.54 -38.925,-214.442 -39.374,-215.409 -39.876,-216.438 -40.434,-217.527 -41.051,-218.676 -41.729,-219.882 -42.47,-221.144 -43.277,-222.458 -44.153,-223.823 -45.099,-225.238 -46.118,-226.699 -47.212,-228.204 -48.382,-229.751 -49.632,-231.337 -50.963,-232.961 -52.376,-234.619 -53.874,-236.309 -55.458,-238.027 -57.131,-239.772 -58.893,-241.541 -59.808,-242.434 -60.04,-242.657 -60.055,-242.671 -60.059,-242.675 -60.062,-242.678 -75.551,-238.311 -75.553,-238.306 -75.554,-238.302 -75.559,-238.282 -75.64,-237.97 -75.954,-236.731 -76.533,-234.302 -77.048,-231.94 -77.501,-229.647 -77.895,-227.424 -78.235,-225.272 -78.521,-223.192 -78.758,-221.187 -78.948,-219.256 -79.095,-217.401 -79.2,-215.623 -79.268,-213.923 -79.302,-212.301 -79.303,-210.759 -79.277,-209.296 -79.225,-207.913 -79.151,-206.611 -79.057,-205.391 -78.948,-204.251 -78.825,-203.192 -78.693,-202.215 -78.554,-201.32 -78.412,-200.505 -78.269,-199.771 -78.128,-199.119 -77.993,-198.546 -77.867,-198.053 -77.752,-197.639 -77.653,-197.304 -77.57,-197.046 -77.509,-196.866 -77.471,-196.761 -71.898,-182.605 -98.125,-169.957 -105.732,-183.132 -105.79,-183.227 -105.893,-183.388 -106.044,-183.612 -106.244,-183.899 -106.496,-184.246 -106.804,-184.652 -107.168,-185.114 -107.591,-185.631 -108.076,-186.2 -108.625,-186.818 -109.239,-187.485 -109.921,-188.196 -110.673,-188.951 -111.497,-189.746 -112.394,-190.58 -113.367,-191.448 -114.416,-192.35 -115.544,-193.281 -116.753,-194.24 -118.042,-195.224 -119.415,-196.229 -120.872,-197.254 -122.415,-198.294 -124.044,-199.347 -125.761,-200.411 -127.567,-201.481 -129.462,-202.556 -131.447,-203.631 -133.524,-204.705 -135.692,-205.773 -137.953,-206.832 -139.118,-207.357 -139.413,-207.488 -139.432,-207.496 -139.436,-207.499 -139.441,-207.5 -152.502,-198.099 -152.502,-198.094 -152.501,-198.089 -152.499,-198.069 -152.469,-197.748 -152.341,-196.476 -152.054,-193.996 -151.729,-191.601 -151.371,-189.291 -150.981,-187.067 -150.564,-184.928 -150.122,-182.876 -149.659,-180.91 -149.177,-179.031 -148.68,-177.238 -148.171,-175.531 -147.654,-173.91 -147.13,-172.375 -146.605,-170.925 -146.079,-169.559 -145.558,-168.278 -145.043,-167.08 -144.537,-165.965 -144.045,-164.931 -143.568,-163.978 -143.109,-163.106 -142.672,-162.311 -142.26,-161.595 -141.874,-160.954 -141.519,-160.389 -141.196,-159.897 -140.909,-159.477 -140.66,-159.127 -140.451,-158.846 -140.286,-158.632 -140.167,-158.483 -140.095,-158.398 -130.017,-147.002 -150.336,-126.147 -161.99,-135.926 -162.078,-135.995 -162.229,-136.11 -162.448,-136.27 -162.734,-136.471 -163.09,-136.711 -163.517,-136.987 -164.018,-137.297 -164.592,-137.638 -165.242,-138.006 -165.969,-138.4 -166.775,-138.816 -167.659,-139.251 -168.624,-139.704 -169.67,-140.169 -170.798,-140.645 -172.009,-141.129 -173.304,-141.617 -174.682,-142.107 -176.146,-142.595 -177.694,-143.078 -179.328,-143.553 -181.047,-144.017 -182.853,-144.467 -184.744,-144.9 -186.721,-145.312 -188.784,-145.7 -190.932,-146.062 -193.166,-146.393 -195.485,-146.692 -197.888,-146.953 -200.374,-147.176 -201.649,-147.271 -201.971,-147.293 -201.991,-147.294 -201.996,-147.295 -202.001,-147.295 -211.059,-133.993 -211.057,-133.989 -211.055,-133.984 -211.046,-133.966 -210.908,-133.675 -210.352,-132.524 -209.234,-130.291 -208.11,-128.151 -206.983,-126.103 -205.857,-124.146 -204.733,-122.28 -203.616,-120.503 -202.508,-118.814 -201.413,-117.213 -200.333,-115.698 -199.271,-114.268 -198.23,-112.922 -197.213,-111.658 -196.223,-110.475 -195.262,-109.372 -194.334,-108.346 -193.44,-107.396 -192.584,-106.521 -191.767,-105.718 -190.993,-104.986 -190.264,-104.323 -189.582,-103.726 -188.949,-103.194 -188.368,-102.724 -187.841,-102.314 -187.369,-101.962 -186.956,-101.665 -186.602,-101.422 -186.31,-101.229 -186.081,-101.085 -185.918,-100.986 -185.822,-100.93 -172.454,-93.669 -184.415,-67.121 -198.71,-72.324 -198.816,-72.359 -198.998,-72.416 -199.258,-72.491 -199.596,-72.583 -200.012,-72.686 -200.508,-72.8 -201.084,-72.92 -201.741,-73.043 -202.478,-73.167 -203.296,-73.288 -204.195,-73.404 -205.175,-73.511 -206.236,-73.606 -207.378,-73.685 -208.601,-73.747 -209.905,-73.787 -211.288,-73.803 -212.751,-73.792 -214.293,-73.75 -215.913,-73.674 -217.611,-73.562 -219.386,-73.41 -221.236,-73.215 -223.161,-72.975 -225.16,-72.686 -227.231,-72.345 -229.374,-71.95 -231.586,-71.498 -233.867,-70.985 -236.215,-70.409 -238.627,-69.768 -239.858,-69.421 -240.168,-69.332 -240.187,-69.327 -240.192,-69.325 -240.196,-69.324 -244.159,-53.726 -244.156,-53.723 -244.152,-53.719 -244.138,-53.705 -243.908,-53.479 -242.992,-52.587 -241.178,-50.871 -239.39,-49.245 -237.631,-47.706 -235.902,-46.252 -234.208,-44.883 -232.551,-43.595 -230.932,-42.387 -229.355,-41.257 -227.822,-40.203 -226.335,-39.222 -224.897,-38.313 -223.509,-37.473 -222.174,-36.7 -220.894,-35.992 -219.671,-35.346 -218.506,-34.759 -217.402,-34.23 -216.36,-33.755 -215.383,-33.331 -214.47,-32.957 -213.625,-32.63 -212.848,-32.346 -212.142,-32.103 -211.506,-31.898 -210.942,-31.729 -210.452,-31.592 -210.037,-31.484 -209.696,-31.403 -209.432,-31.345 -209.245,-31.308 -209.135,-31.288 -194.09,-29.037 -196.25,0 -211.463,0 -211.574,0.004 -211.765,0.013 -212.035,0.03 -212.383,0.06 -212.81,0.105 -213.315,0.169 -213.898,0.253 -214.557,0.361 -215.292,0.497 -216.102,0.663 -216.986,0.862 -217.944,1.096 -218.973,1.37 -220.074,1.686 -221.244,2.046 -222.483,2.454 -223.788,2.913 -225.159,3.424 -226.593,3.991 -228.09,4.616 -229.647,5.302 -231.263,6.052 -232.935,6.867 -234.662,7.752 -236.441,8.707 -238.271,9.735 -240.149,10.839 -242.074,12.021 -244.041,13.283 -246.05,14.627 -248.098,16.055 -249.136,16.801 -249.397,16.991 -249.413,17.003 -249.417,17.006 -249.421,17.009 -247.81,33.021 -247.806,33.023 -247.801,33.025 -247.783,33.034 -247.489,33.168 -246.324,33.693 -244.032,34.684 -241.796,35.601 -239.616,36.446 -237.495,37.22 -235.435,37.928 -233.436,38.571 -231.502,39.153 -229.634,39.675 -227.833,40.142 -226.1,40.554 -224.438,40.917 -222.846,41.231 -221.328,41.501 -219.882,41.729 -218.512,41.918 -217.217,42.071 -215.998,42.191 -214.857,42.281 -213.793,42.344 -212.808,42.383 -211.902,42.402 -211.075,42.403 -210.328,42.39 -209.66,42.365 -209.073,42.331 -208.565,42.292 -208.138,42.252 -207.791,42.211 -207.523,42.175 -207.334,42.146 -207.224,42.127 -192.316,39.097 -184.415,67.121 -198.71,72.325 -198.814,72.366 -198.99,72.44 -199.237,72.549 -199.554,72.696 -199.94,72.884 -200.393,73.116 -200.911,73.395 -201.494,73.722 -202.138,74.101 -202.843,74.534 -203.605,75.023 -204.425,75.571 -205.299,76.181 -206.225,76.854 -207.201,77.593 -208.226,78.4 -209.296,79.277 -210.409,80.226 -211.563,81.249 -212.756,82.349 -213.984,83.526 -215.246,84.783 -216.539,86.122 -217.859,87.543 -219.204,89.049 -220.572,90.642 -221.959,92.321 -223.363,94.09 -224.781,95.949 -226.209,97.899 -227.645,99.941 -228.365,100.998 -228.545,101.265 -228.556,101.282 -228.559,101.286 -228.561,101.29 -221.571,115.786 -221.566,115.786 -221.561,115.787 -221.541,115.788 -221.22,115.814 -219.945,115.908 -217.453,116.056 -215.037,116.153 -212.7,116.201 -210.442,116.204 -208.264,116.164 -206.166,116.085 -204.15,115.97 -202.216,115.822 -200.364,115.644 -198.594,115.44 -196.908,115.211 -195.305,114.963 -193.786,114.697 -192.35,114.416 -190.997,114.125 -189.728,113.826 -188.542,113.522 -187.439,113.216 -186.418,112.912 -185.478,112.612 -184.62,112.32 -183.843,112.038 -183.145,111.77 -182.527,111.518 -181.986,111.285 -181.523,111.076 -181.135,110.891 -180.822,110.734 -180.583,110.609 -180.415,110.517 -180.319,110.461 -167.346,102.515 -150.336,126.147 -161.99,135.926 -162.073,136 -162.213,136.129 -162.408,136.317 -162.656,136.564 -162.954,136.873 -163.301,137.245 -163.692,137.684 -164.128,138.191 -164.603,138.767 -165.118,139.415 -165.667,140.136 -166.25,140.931 -166.862,141.803 -167.503,142.752 -168.167,143.781 -168.854,144.889 -169.559,146.079 -170.281,147.352 -171.016,148.708 -171.76,150.149 -172.512,151.676 -173.268,153.289 -174.024,154.988 -174.779,156.776 -175.528,158.651 -176.269,160.615 -176.998,162.668 -177.712,164.811 -178.408,167.042 -179.084,169.363 -179.734,171.773 -180.05,173.012 -180.127,173.325 -180.132,173.345 -180.133,173.35 -180.134,173.354 -168.608,184.585 -168.603,184.584 -168.598,184.582 -168.579,184.577 -168.268,184.491 -167.038,184.144 -164.645,183.431 -162.342,182.695 -160.13,181.941 -158.007,181.171 -155.974,180.389 -154.029,179.597 -152.174,178.8 -150.407,177.999 -148.727,177.198 -147.135,176.401 -145.628,175.61 -144.207,174.828 -142.871,174.058 -141.617,173.304 -140.446,172.567 -139.355,171.852 -138.345,171.161 -137.412,170.496 -136.557,169.861 -135.777,169.258 -135.071,168.69 -134.437,168.159 -133.873,167.668 -133.378,167.22 -132.949,166.817 -132.585,166.461 -132.284,166.155 -132.044,165.901 -131.862,165.701 -131.736,165.558 -131.664,165.472 -122.192,153.568 -98.125,169.957 -105.731,183.133 -105.784,183.23 -105.872,183.4 -105.991,183.643 -106.139,183.959 -106.314,184.352 -106.512,184.821 -106.73,185.367 -106.965,185.992 -107.215,186.696 -107.477,187.481 -107.747,188.346 -108.022,189.293 -108.3,190.322 -108.577,191.433 -108.85,192.626 -109.116,193.903 -109.372,195.262 -109.614,196.705 -109.841,198.231 -110.048,199.84 -110.232,201.531 -110.391,203.305 -110.52,205.161 -110.618,207.099 -110.68,209.118 -110.705,211.217 -110.688,213.395 -110.626,215.652 -110.517,217.988 -110.358,220.399 -110.145,222.887 -110.018,224.159 -109.984,224.48 -109.981,224.5 -109.981,224.505 -109.98,224.509 -95.308,231.12 -95.304,231.118 -95.3,231.115 -95.283,231.103 -95.02,230.916 -93.983,230.169 -91.979,228.68 -90.067,227.202 -88.245,225.736 -86.514,224.287 -84.871,222.856 -83.314,221.448 -81.844,220.063 -80.457,218.707 -79.153,217.38 -77.929,216.086 -76.784,214.827 -75.716,213.606 -74.723,212.426 -73.803,211.288 -72.954,210.196 -72.174,209.151 -71.461,208.155 -70.812,207.212 -70.226,206.322 -69.699,205.489 -69.23,204.714 -68.815,203.998 -68.453,203.344 -68.141,202.753 -67.877,202.228 -67.656,201.769 -67.478,201.379 -67.339,201.058 -67.236,200.807 -67.167,200.63 -67.129,200.525 -62.299,186.099 -34.078,193.269 -36.72,208.251 -36.736,208.361 -36.76,208.55 -36.789,208.819 -36.82,209.167 -36.85,209.595 -36.876,210.104 -36.894,210.692 -36.902,211.36 -36.896,212.107 -36.873,212.934 -36.831,213.839 -36.766,214.823 -36.675,215.884 -36.555,217.023 -36.403,218.238 -36.217,219.529 -35.992,220.894 -35.727,222.333 -35.418,223.844 -35.062,225.426 -34.656,227.079 -34.199,228.8 -33.686,230.589 -33.115,232.443 -32.483,234.361 -31.788,236.342 -31.027,238.383 -30.197,240.483 -29.296,242.64 -28.322,244.852 -27.271,247.117 -26.716,248.269 -26.574,248.558 -26.565,248.577 -26.563,248.581 -26.561,248.585 -10.512,249.779 -10.509,249.775 -10.507,249.771 -10.495,249.755 -10.312,249.489 -9.593,248.432 -8.219,246.348 -6.927,244.304 -5.717,242.304 -4.586,240.35 -3.531,238.444 -2.55,236.588 -1.642,234.784 -0.803,233.035 -0.031,231.342 0.676,229.707 1.322,228.133 1.908,226.621 2.437,225.172 2.913,223.788 3.337,222.471 3.712,221.222 4.042,220.043 4.329,218.935 4.576,217.898 4.786,216.935 4.962,216.046 5.106,215.232 5.223,214.493 5.314,213.832 5.383,213.247 5.433,212.741 5.467,212.313 5.488,211.964 5.499,211.694 5.503,211.503 5.503,211.391 5.107,196.184 34.078,193.269 36.721,208.25 36.743,208.359 36.785,208.546 36.849,208.808 36.939,209.146 37.058,209.559 37.208,210.045 37.392,210.604 37.613,211.234 37.874,211.934 38.178,212.704 38.528,213.54 38.925,214.442 39.374,215.409 39.876,216.438 40.434,217.527 41.051,218.676 41.729,219.882 42.47,221.144 43.277,222.458 44.153,223.823 45.099,225.238 46.118,226.699 47.212,228.204 48.382,229.751 49.632,231.337 50.963,232.961 52.376,234.619 53.874,236.309 55.458,238.027 57.131,239.772 58.893,241.541 59.808,242.434 60.04,242.657 60.055,242.671 60.059,242.675 60.062,242.678 75.551,238.311 75.553,238.306 75.554,238.302 75.559,238.282 75.64,237.97 75.954,236.731 76.533,234.302 77.048,231.94 77.501,229.647 77.895,227.424 78.235,225.272 78.521,223.192 78.758,221.187 78.948,219.256 79.095,217.401 79.2,215.623 79.268,213.923 79.302,212.301 79.303,210.759 79.277,209.296 79.225,207.913 79.151,206.611 79.057,205.391 78.948,204.251 78.825,203.192 78.693,202.215 78.554,201.32 78.412,200.505 78.269,199.771 78.128,199.119 77.993,198.546 77.867,198.053 77.752,197.639 77.653,197.304 77.57,197.046 77.509,196.866 77.471,196.761 71.898,182.605 98.125,169.957 105.732,183.132 105.79,183.227 105.893,183.388 106.044,183.612 106.244,183.899 106.496,184.246 106.804,184.652 107.168,185.114 107.591,185.631 108.076,186.2 108.625,186.818 109.239,187.485 109.921,188.196 110.673,188.951 111.497,189.746 112.394,190.58 113.367,191.448 114.416,192.35 115.544,193.281 116.753,194.24 118.042,195.224 119.415,196.229 120.872,197.254 122.415,198.294 124.044,199.347 125.761,200.411 127.567,201.481 129.462,202.556 131.447,203.631 133.524,204.705 135.692,205.773 137.953,206.832 139.118,207.357 139.413,207.488 139.432,207.496 139.436,207.499 139.441,207.5 152.502,198.099 152.502,198.094 152.501,198.089 152.499,198.069 152.469,197.748 152.341,196.476 152.054,193.996 151.729,191.601 151.371,189.291 150.981,187.067 150.564,184.928 150.122,182.876 149.659,180.91 149.177,179.031 148.68,177.238 148.171,175.531 147.654,173.91 147.13,172.375 146.605,170.925 146.079,169.559 145.558,168.278 145.043,167.08 144.537,165.965 144.045,164.931 143.568,163.978 143.109,163.106 142.672,162.311 142.26,161.595 141.874,160.954 141.519,160.389 141.196,159.897 140.909,159.477 140.66,159.127 140.451,158.846 140.286,158.632 140.167,158.483 140.095,158.398 130.017,147.002 150.336,126.147 161.99,135.926 162.078,135.995 162.229,136.11 162.448,136.27 162.734,136.471 163.09,136.711 163.517,136.987 164.018,137.297 164.592,137.638 165.242,138.006 165.969,138.4 166.775,138.816 167.659,139.251 168.624,139.704 169.67,140.169 170.798,140.645 172.009,141.129 173.304,141.617 174.682,142.107 176.146,142.595 177.694,143.078 179.328,143.553 181.047,144.017 182.853,144.467 184.744,144.9 186.721,145.312 188.784,145.7 190.932,146.062 193.166,146.393 195.485,146.692 197.888,146.953 200.374,147.176 201.649,147.271 201.971,147.293 201.991,147.294 201.996,147.295 202.001,147.295 211.059,133.993 211.057,133.989 211.055,133.984 211.046,133.966 210.908,133.675 210.352,132.524 209.234,130.291 208.11,128.151 206.983,126.103 205.857,124.146 204.733,122.28 203.616,120.503 202.508,118.814 201.413,117.213 200.333,115.698 199.271,114.268 198.23,112.922 197.213,111.658 196.223,110.475 195.262,109.372 194.334,108.346 193.44,107.396 192.584,106.521 191.767,105.718 190.993,104.986 190.264,104.323 189.582,103.726 188.949,103.194 188.368,102.724 187.841,102.314 187.369,101.962 186.956,101.665 186.602,101.422 186.31,101.229 186.081,101.085 185.918,100.986 185.822,100.93 172.454,93.669 184.415,67.121 198.71,72.324 198.816,72.359 198.998,72.416 199.258,72.491 199.596,72.583 200.012,72.686 200.508,72.8 201.084,72.92 201.741,73.043 202.478,73.167 203.296,73.288 204.195,73.404 205.175,73.511 206.236,73.606 207.378,73.685 208.601,73.747 209.905,73.787 211.288,73.803 212.751,73.792 214.293,73.75 215.913,73.674 217.611,73.562 219.386,73.41 221.236,73.215 223.161,72.975 225.16,72.686 227.231,72.345 229.374,71.95 231.586,71.498 233.867,70.985 236.215,70.409 238.627,69.768 239.858,69.421 240.168,69.332 240.187,69.327 240.192,69.325 240.196,69.324 244.159,53.726 244.156,53.723 244.152,53.719 244.138,53.705 243.908,53.479 242.992,52.587 241.178,50.871 239.39,49.245 237.631,47.706 235.902,46.252 234.208,44.883 232.551,43.595 230.932,42.387 229.355,41.257 227.822,40.203 226.335,39.222 224.897,38.313 223.509,37.473 222.174,36.7 220.894,35.992 219.671,35.346 218.506,34.759 217.402,34.23 216.36,33.755 215.383,33.331 214.47,32.957 213.625,32.63 212.848,32.346 212.142,32.103 211.506,31.898 210.942,31.729 210.452,31.592 210.037,31.484 209.696,31.403 209.432,31.345 209.245,31.308 209.135,31.288 194.09,29.037 z"/><g class="guides"><polyline fill="none" stroke="#444" stroke-width="0.5" stroke-miterlimit="10" points="10,0 -10,0"/><polyline fill="none" stroke="#444" stroke-width="0.5" stroke-miterlimit="10" points="0,10 0,-10"/></g><circle fill="#c00" class="firstmarker" stroke="none" stroke-miterlimit="10" cx="223.87" cy="-22.525" r="9.813"/><g class="geartext"><g class="text"><polyline fill="none" stroke="#444" stroke-width="0.5" stroke-linecap="square" stroke-miterlimit="1"  points="37.32 -162.01 34.39 -162.65 31.45 -163.25 28.5 -163.79 25.54 -164.28 "/><polyline fill="none" stroke="#444" stroke-width="0.5" stroke-linecap="square" stroke-miterlimit="1"  points="30.32 -157.36 32.59 -169.14 "/><polyline fill="none" stroke="#444" stroke-width="0.5" stroke-linecap="square" stroke-miterlimit="1"  points="38.67 -167.85 35.02 -165.59 31.45 -163.25 27.99 -160.83 24.62 -158.35 "/><polyline fill="none" stroke="#444" stroke-width="0.5" stroke-linecap="square" stroke-miterlimit="1"  points="35.98 -156.16 33.77 -159.72 31.45 -163.25 29.02 -166.74 26.47 -170.2 "/><polyline fill="none" stroke="#444" stroke-width="0.5" stroke-linecap="square" stroke-miterlimit="1"  points="51.66 -148.52 48.97 -149.43 46.26 -150.29 43.54 -151.1 40.81 -151.86 42.37 -157.66 46.04 -159.75 48.91 -158.89 51.77 -157.98 55.6 -159.86 56.58 -162.69 54.57 -166.54 51.56 -167.49 48.53 -168.4 44.7 -166.35 "/><polyline fill="none" stroke="#444" stroke-width="0.5" stroke-linecap="square" stroke-miterlimit="1"  points="89.08 -150.92 79.93 -135.42 79.69 -140.76 79.28 -146.13 78.71 -151.53 77.96 -156.95 69.95 -140.83 "/><polyline fill="none" stroke="#444" stroke-width="0.5" stroke-linecap="square" stroke-miterlimit="1"  points="101.28 -135.61 98.81 -137.41 96.32 -139.17 93.79 -140.89 91.23 -142.56 "/><polyline fill="none" stroke="#444" stroke-width="0.5" stroke-linecap="square" stroke-miterlimit="1"  points="97.68 -130.8 95.31 -132.54 92.9 -134.24 90.46 -135.89 88 -137.5 "/><polyline fill="none" stroke="#444" stroke-width="0.5" stroke-linecap="square" stroke-miterlimit="1"  points="107.98 -134.2 112.31 -134.53 100.77 -120.72 "/><polyline fill="none" stroke="#444" stroke-width="0.5" stroke-linecap="square" stroke-miterlimit="1"  points="102.94 -118.88 100.77 -120.72 98.58 -122.51 "/><polyline fill="none" stroke="#444" stroke-width="0.5" stroke-linecap="square" stroke-miterlimit="1"  points="115.47 -119.61 111.25 -119.48 109.2 -117.28 109.22 -113.13 111.24 -111.14 113.23 -109.12 117.38 -109.1 119.57 -111.14 119.71 -115.36 117.61 -117.51 115.47 -119.61 115.34 -123.87 117.38 -126.06 121.72 -126.08 123.97 -123.87 126.19 -121.61 126.17 -117.27 123.97 -115.23 119.71 -115.36 "/><polyline fill="none" stroke="#444" stroke-width="0.5" stroke-linecap="square" stroke-miterlimit="1"  points="135.06 -96.94 136.79 -94.49 138.47 -92.01 140.11 -89.49 144.26 -88.52 146.81 -90.09 147.69 -94.34 145.97 -96.99 144.19 -99.61 142.37 -102.19 127.75 -91.69 "/><polyline fill="none" stroke="#444" stroke-width="0.5" stroke-linecap="square" stroke-miterlimit="1"  points="136.91 -77.35 147.36 -83.26 "/><polyline fill="none" stroke="#444" stroke-width="0.5" stroke-linecap="square" stroke-miterlimit="1"  points="149.97 -84.73 152.58 -86.21 "/><polyline fill="none" stroke="#444" stroke-width="0.5" stroke-linecap="square" stroke-miterlimit="1"  points="147.22 -63.29 143.32 -64.7 144.84 -68.56 158.4 -74.98 "/><polyline fill="none" stroke="#444" stroke-width="0.5" stroke-linecap="square" stroke-miterlimit="1"  points="155.49 -66.85 154.26 -69.64 152.98 -72.41 151.65 -75.16 150.26 -77.89 "/><polyline fill="none" stroke="#444" stroke-width="0.5" stroke-linecap="square" stroke-miterlimit="1"  points="150.33 -46.13 149.47 -48.84 148.57 -51.53 147.61 -54.2 149.41 -57.94 155 -60.11 158.88 -58.33 159.91 -55.46 160.88 -52.56 161.8 -49.65 "/><polyline fill="none" stroke="#444" stroke-width="0.5" stroke-linecap="square" stroke-miterlimit="1"  points="157.69 -42.23 161.34 -40.1 164.96 -37.85 165.62 -34.87 163.27 -31.31 154.44 -29.62 "/><polyline fill="none" stroke="#444" stroke-width="0.5" stroke-linecap="square" stroke-miterlimit="1"  points="151.9 -40.68 169.29 -45.33 "/><polyline fill="none" stroke="#444" stroke-width="0.5" stroke-linecap="square" stroke-miterlimit="1"  points="156.94 -9.92 157.09 -7.09 157.19 -4.26 157.24 -1.42 160.24 1.45 172.24 1.55 175.24 -1.58 175.19 -4.74 175.07 -7.9 174.9 -11.06 "/><polyline fill="none" stroke="#444" stroke-width="0.5" stroke-linecap="square" stroke-miterlimit="1"  points="175.07 -7.9 157.09 -7.09 "/><polyline fill="none" stroke="#444" stroke-width="0.5" stroke-linecap="square" stroke-miterlimit="1"  points="168.09 19.81 168.42 16.77 168.69 13.73 168.91 10.68 169.08 7.63 "/><polyline fill="none" stroke="#444" stroke-width="0.5" stroke-linecap="square" stroke-miterlimit="1"  points="162.13 19.1 162.45 16.18 162.71 13.24 162.92 10.3 163.08 7.36 "/><polyline fill="none" stroke="#444" stroke-width="0.5" stroke-linecap="square" stroke-miterlimit="1"  points="159.11 36.51 159.75 33.63 160.33 30.75 160.86 27.85 161.33 24.94 164.8 28.53 168.19 32.25 171.49 36.11 153.88 32.4 "/><polyline fill="none" stroke="#444" stroke-width="0.5" stroke-linecap="square" stroke-miterlimit="1"  points="154.8 41.45 151.9 40.68 "/><polyline fill="none" stroke="#444" stroke-width="0.5" stroke-linecap="square" stroke-miterlimit="1"  points="163.4 63.36 164.51 60.4 165.57 57.42 166.58 54.43 167.54 51.41 161.8 49.65 160.88 52.56 159.91 55.46 158.88 58.33 155 60.11 149.41 57.94 147.61 54.2 148.57 51.53 149.47 48.84 153.2 47.01 "/><polyline fill="none" stroke="#444" stroke-width="0.5" stroke-linecap="square" stroke-miterlimit="1"  points="146.2 79.16 144.74 81.78 143.25 84.38 141.7 86.95 142.64 91.11 145.16 92.72 149.37 91.66 151 88.95 152.58 86.21 154.11 83.44 138.28 74.87 "/><polyline fill="none" stroke="#444" stroke-width="0.5" stroke-linecap="square" stroke-miterlimit="1"  points="131.96 105.99 133.85 103.59 135.69 101.16 137.5 98.69 139.26 96.19 "/><polyline fill="none" stroke="#444" stroke-width="0.5" stroke-linecap="square" stroke-miterlimit="1"  points="127.28 102.23 129.1 99.92 130.88 97.57 132.62 95.19 134.32 92.78 "/><polyline fill="none" stroke="#444" stroke-width="0.5" stroke-linecap="square" stroke-miterlimit="1"  points="115.49 115.38 117.55 113.28 119.57 111.14 121.56 108.97 123.51 106.76 124.54 111.64 125.43 116.59 126.19 121.61 113.23 109.12 "/><polyline fill="none" stroke="#444" stroke-width="0.5" stroke-linecap="square" stroke-miterlimit="1"  points="101.87 131.39 99.48 133.2 97.06 134.98 94.61 136.7 93.79 140.89 95.45 143.38 99.73 144.11 102.31 142.28 104.87 140.41 107.38 138.5 96.35 124.27 "/><polyline fill="none" stroke="#444" stroke-width="0.5" stroke-linecap="square" stroke-miterlimit="1"  points="82.36 133.96 85.5 139.07 86.03 145.76 86.34 152.51 80.71 148.76 75.25 144.87 72.48 139.55 "/><polyline fill="none" stroke="#444" stroke-width="0.5" stroke-linecap="square" stroke-miterlimit="1"  points="85.5 139.07 82.98 140.59 80.43 142.06 77.85 143.49 75.25 144.87 "/><polyline fill="none" stroke="#444" stroke-width="0.5" stroke-linecap="square" stroke-miterlimit="1"  points="61.33 157.75 64.17 156.62 66.98 155.43 69.77 154.2 72.55 152.91 "/><polyline fill="none" stroke="#444" stroke-width="0.5" stroke-linecap="square" stroke-miterlimit="1"  points="59.15 152.16 61.89 151.06 64.61 149.92 67.3 148.73 69.97 147.49 "/><polyline fill="none" stroke="#444" stroke-width="0.5" stroke-linecap="square" stroke-miterlimit="1"  points="40.81 151.86 43.54 151.1 46.26 150.29 48.97 149.43 51.66 148.52 53.63 154.19 51.77 157.98 48.91 158.89 46.04 159.75 43.92 163.45 44.7 166.35 48.53 168.4 51.56 167.49 54.57 166.54 56.58 162.69 "/><polyline fill="none" stroke="#444" stroke-width="0.5" stroke-linecap="square" stroke-miterlimit="1"  points="27.47 157.88 29.75 154.41 32.53 153.85 35.98 156.16 38.67 167.85 36.26 171.46 33.16 172.08 29.53 169.7 27.47 157.88 "/></g></g><g class="guides gearguides" opacity="0.2"><circle class="pitch" fill="none" stroke="#f00" stroke-miterlimit="10" cx="0" cy="0" r="225"/><circle class="outer" fill="none" stroke="#ccc" stroke-miterlimit="10" stroke-dasharray="2,2" cx="0" cy="0" r="250"/><circle class="base" fill="none" stroke="#00f" stroke-miterlimit="10" stroke-dasharray="2,2" cx="0" cy="0" r="211.43"/></g></g><g transform="translate(1075,400) rotate(23105.33)"><path id="gearpoly3" data-id="3" class="gear" fill="#ddd" stroke="#444" stroke-width="1" stroke-miterlimit="10" d="M46.25,0 70.488,0 70.678,-0.01 71.105,-0.056 71.764,-0.166 72.648,-0.365 73.748,-0.682 75.053,-1.141 76.549,-1.767 78.221,-2.584 80.05,-3.613 82.017,-4.876 84.1,-6.391 86.276,-8.175 88.52,-10.245 90.806,-12.614 93.105,-15.292 95.39,-18.289 97.629,-21.611 97.634,-21.618 97.634,-21.624 94.793,-31.849 94.789,-31.854 94.782,-31.857 91.149,-33.548 87.646,-34.937 84.295,-36.045 81.115,-36.894 78.125,-37.51 75.34,-37.916 72.773,-38.139 70.437,-38.205 68.339,-38.143 66.486,-37.98 64.881,-37.745 63.527,-37.465 62.421,-37.168 61.56,-36.884 60.94,-36.637 60.55,-36.457 60.382,-36.367 39.619,-23.862 23.125,-40.054 35.244,-61.044 35.33,-61.214 35.504,-61.607 35.738,-62.232 36.007,-63.098 36.283,-64.209 36.538,-65.568 36.744,-67.177 36.873,-69.033 36.896,-71.132 36.786,-73.466 36.516,-76.028 36.058,-78.805 35.387,-81.783 34.479,-84.947 33.309,-88.277 31.856,-91.754 30.099,-95.355 30.095,-95.362 30.09,-95.366 19.814,-98.017 19.808,-98.017 19.802,-98.012 16.521,-95.712 13.567,-93.372 10.932,-91.024 8.606,-88.695 6.578,-86.413 4.834,-84.204 3.358,-82.093 2.132,-80.103 1.136,-78.255 0.351,-76.569 -0.247,-75.061 -0.682,-73.748 -0.978,-72.642 -1.162,-71.755 -1.259,-71.094 -1.297,-70.666 -1.304,-70.476 -0.856,-46.242 -23.125,-40.054 -35.244,-61.044 -35.348,-61.204 -35.601,-61.551 -36.025,-62.067 -36.64,-62.732 -37.465,-63.527 -38.515,-64.427 -39.805,-65.41 -41.348,-66.449 -43.154,-67.519 -45.231,-68.591 -47.584,-69.637 -50.218,-70.63 -53.133,-71.538 -56.327,-72.333 -59.796,-72.985 -63.533,-73.465 -67.531,-73.744 -67.539,-73.744 -67.544,-73.741 -74.978,-66.168 -74.981,-66.163 -74.98,-66.155 -74.628,-62.164 -74.079,-58.435 -73.363,-54.979 -72.509,-51.8 -71.547,-48.903 -70.506,-46.288 -69.416,-43.954 -68.305,-41.898 -67.203,-40.112 -66.135,-38.588 -65.129,-37.316 -64.209,-36.283 -63.399,-35.474 -62.722,-34.871 -62.199,-34.457 -61.847,-34.21 -61.686,-34.109 -40.475,-22.38 -46.25,0 -70.488,0 -70.678,0.01 -71.105,0.056 -71.764,0.166 -72.648,0.365 -73.748,0.682 -75.053,1.141 -76.549,1.767 -78.221,2.584 -80.05,3.613 -82.017,4.876 -84.1,6.391 -86.276,8.175 -88.52,10.245 -90.806,12.614 -93.105,15.292 -95.39,18.289 -97.629,21.611 -97.634,21.618 -97.634,21.624 -94.793,31.849 -94.789,31.854 -94.782,31.857 -91.149,33.548 -87.646,34.937 -84.295,36.045 -81.115,36.894 -78.125,37.51 -75.34,37.916 -72.773,38.139 -70.437,38.205 -68.339,38.143 -66.486,37.98 -64.881,37.745 -63.527,37.465 -62.421,37.168 -61.56,36.884 -60.94,36.637 -60.55,36.457 -60.382,36.367 -39.619,23.862 -23.125,40.054 -35.244,61.044 -35.33,61.214 -35.504,61.607 -35.738,62.232 -36.007,63.098 -36.283,64.209 -36.538,65.568 -36.744,67.177 -36.873,69.033 -36.896,71.132 -36.786,73.466 -36.516,76.028 -36.058,78.805 -35.387,81.783 -34.479,84.947 -33.309,88.277 -31.856,91.754 -30.099,95.355 -30.095,95.362 -30.09,95.366 -19.814,98.017 -19.808,98.017 -19.802,98.012 -16.521,95.712 -13.567,93.372 -10.932,91.024 -8.606,88.695 -6.578,86.413 -4.834,84.204 -3.358,82.093 -2.132,80.103 -1.136,78.255 -0.351,76.569 0.247,75.061 0.682,73.748 0.978,72.642 1.162,71.755 1.259,71.094 1.297,70.666 1.304,70.476 0.856,46.242 23.125,40.054 35.244,61.044 35.348,61.204 35.601,61.551 36.025,62.067 36.64,62.732 37.465,63.527 38.515,64.427 39.805,65.41 41.348,66.449 43.154,67.519 45.231,68.591 47.584,69.637 50.218,70.63 53.133,71.538 56.327,72.333 59.796,72.985 63.533,73.465 67.531,73.744 67.539,73.744 67.544,73.741 74.978,66.168 74.981,66.163 74.98,66.155 74.628,62.164 74.079,58.435 73.363,54.979 72.509,51.8 71.547,48.903 70.506,46.288 69.416,43.954 68.305,41.898 67.203,40.112 66.135,38.588 65.129,37.316 64.209,36.283 63.399,35.474 62.722,34.871 62.199,34.457 61.847,34.21 61.686,34.109 40.475,22.38 z"/><g class="guides"><polyline fill="none" stroke="#444" stroke-width="0.5" stroke-miterlimit="10" points="10,0 -10,0"/><polyline fill="none" stroke="#444" stroke-width="0.5" stroke-miterlimit="10" points="0,10 0,-10"/></g><circle fill="#c00" class="firstmarker" stroke="none" stroke-miterlimit="10" cx="72.262" cy="-20.081" r="9.813"/><g class="geartext"><g class="text"><polyline fill="none" stroke="#444" stroke-width="0.5" stroke-linecap="square" stroke-miterlimit="1"  points="-21.7 -27.76 -22.56 -27.07 -23.4 -26.35 -24.21 -25.61 -25 -24.84 "/><polyline fill="none" stroke="#444" stroke-width="0.5" stroke-linecap="square" stroke-miterlimit="1"  points="-21.93 -24.7 -24.86 -28 "/><polyline fill="none" stroke="#444" stroke-width="0.5" stroke-linecap="square" stroke-miterlimit="1"  points="-23.06 -29.5 -23.27 -27.91 -23.4 -26.35 -23.45 -24.81 -23.43 -23.29 "/><polyline fill="none" stroke="#444" stroke-width="0.5" stroke-linecap="square" stroke-miterlimit="1"  points="-20.35 -26.03 -21.86 -26.22 -23.4 -26.35 -24.96 -26.41 -26.56 -26.39 "/><polyline fill="none" stroke="#444" stroke-width="0.5" stroke-linecap="square" stroke-miterlimit="1"  points="-21.17 -30.88 -20.79 -32.45 -19.77 -33.09 -18.73 -33.69 -17.16 -33.28 -16.65 -32.3 -17.12 -30.8 -15.64 -30.34 -15.14 -29.36 -15.52 -27.91 -16.38 -27.41 -17.23 -26.89 -18.68 -27.25 "/><polyline fill="none" stroke="#444" stroke-width="0.5" stroke-linecap="square" stroke-miterlimit="1"  points="-18.07 -30.25 -17.12 -30.8 "/><polyline fill="none" stroke="#444" stroke-width="0.5" stroke-linecap="square" stroke-miterlimit="1"  points="-5.09 -38.2 -4.21 -31.66 -5.47 -33.14 -6.82 -34.57 -8.27 -35.95 -9.81 -37.27 -8.13 -30.88 "/><polyline fill="none" stroke="#444" stroke-width="0.5" stroke-linecap="square" stroke-miterlimit="1"  points="2 -36.28 0.87 -36.33 -0.27 -36.34 -1.4 -36.31 -2.54 -36.25 "/><polyline fill="none" stroke="#444" stroke-width="0.5" stroke-linecap="square" stroke-miterlimit="1"  points="1.88 -34.08 0.82 -34.13 -0.25 -34.14 -1.32 -34.11 -2.38 -34.05 "/><polyline fill="none" stroke="#444" stroke-width="0.5" stroke-linecap="square" stroke-miterlimit="1"  points="4.14 -34.99 5.23 -34.85 6.31 -34.67 7.39 -34.45 8.2 -33.14 7.94 -32.07 6.7 -31.22 5.72 -31.42 4.74 -31.58 3.88 -32.81 4.27 -36.09 5.56 -37.03 6.91 -37.92 8.09 -37.68 "/><polyline fill="none" stroke="#444" stroke-width="0.5" stroke-linecap="square" stroke-miterlimit="1"  points="15.69 -31.55 16.67 -31.05 17.63 -30.51 18.57 -29.95 20.11 -30.27 20.72 -31.19 20.31 -32.75 19.28 -33.37 18.23 -33.96 17.16 -34.51 14.22 -28.59 "/><polyline fill="none" stroke="#444" stroke-width="0.5" stroke-linecap="square" stroke-miterlimit="1"  points="19.3 -25.44 21.96 -28.95 "/><polyline fill="none" stroke="#444" stroke-width="0.5" stroke-linecap="square" stroke-miterlimit="1"  points="22.63 -29.83 23.29 -30.71 "/><polyline fill="none" stroke="#444" stroke-width="0.5" stroke-linecap="square" stroke-miterlimit="1"  points="24.52 -22.14 23.02 -22.13 23.09 -23.63 26.94 -27.56 "/><polyline fill="none" stroke="#444" stroke-width="0.5" stroke-linecap="square" stroke-miterlimit="1"  points="26.97 -24.35 26.2 -25.18 25.4 -25.99 24.57 -26.77 23.73 -27.52 "/><polyline fill="none" stroke="#444" stroke-width="0.5" stroke-linecap="square" stroke-miterlimit="1"  points="27.28 -16.61 26.74 -17.45 26.19 -18.28 25.6 -19.09 25.86 -20.56 27.58 -21.93 29.13 -21.72 29.8 -20.8 30.43 -19.86 31.04 -18.9 "/><polyline fill="none" stroke="#444" stroke-width="0.5" stroke-linecap="square" stroke-miterlimit="1"  points="30.21 -15.9 31.68 -15.43 33.15 -14.88 33.6 -13.84 32.99 -12.39 29.89 -11.23 "/><polyline fill="none" stroke="#444" stroke-width="0.5" stroke-linecap="square" stroke-miterlimit="1"  points="28.26 -14.87 34.11 -17.95 "/><polyline fill="none" stroke="#444" stroke-width="0.5" stroke-linecap="square" stroke-miterlimit="1"  points="31.62 -4.48 31.74 -3.49 31.84 -2.49 31.9 -1.5 33.03 -0.52 37.44 -0.58 38.5 -1.81 38.42 -3.01 38.31 -4.21 38.16 -5.4 "/><polyline fill="none" stroke="#444" stroke-width="0.5" stroke-linecap="square" stroke-miterlimit="1"  points="38.31 -4.21 31.74 -3.49 "/><polyline fill="none" stroke="#444" stroke-width="0.5" stroke-linecap="square" stroke-miterlimit="1"  points="35.8 6.22 35.98 5.09 36.12 3.97 36.23 2.84 36.3 1.7 "/><polyline fill="none" stroke="#444" stroke-width="0.5" stroke-linecap="square" stroke-miterlimit="1"  points="33.63 5.84 33.8 4.78 33.93 3.73 34.03 2.66 34.1 1.6 "/><polyline fill="none" stroke="#444" stroke-width="0.5" stroke-linecap="square" stroke-miterlimit="1"  points="36.42 8.69 37.19 10.12 30.81 8.38 "/><polyline fill="none" stroke="#444" stroke-width="0.5" stroke-linecap="square" stroke-miterlimit="1"  points="30.54 9.34 30.81 8.38 31.06 7.42 "/><polyline fill="none" stroke="#444" stroke-width="0.5" stroke-linecap="square" stroke-miterlimit="1"  points="30.93 11.62 29.89 11.23 "/><polyline fill="none" stroke="#444" stroke-width="0.5" stroke-linecap="square" stroke-miterlimit="1"  points="32.92 20.04 33.53 19 34.11 17.95 34.65 16.87 35.16 15.78 33.15 14.88 32.67 15.91 32.16 16.92 31.61 17.92 30.1 18.32 28.22 17.18 27.78 15.75 28.26 14.87 28.71 13.98 30.14 13.53 "/><polyline fill="none" stroke="#444" stroke-width="0.5" stroke-linecap="square" stroke-miterlimit="1"  points="25.4 24.42 24.63 25.2 23.83 25.96 23.01 26.69 22.85 28.25 23.55 29.11 25.16 29.19 26.06 28.39 26.94 27.56 27.79 26.71 23.02 22.13 "/><polyline fill="none" stroke="#444" stroke-width="0.5" stroke-linecap="square" stroke-miterlimit="1"  points="17.19 32.02 18.18 31.46 19.15 30.88 20.11 30.27 21.05 29.62 "/><polyline fill="none" stroke="#444" stroke-width="0.5" stroke-linecap="square" stroke-miterlimit="1"  points="16.15 30.08 17.08 29.56 17.99 29.01 18.89 28.43 19.77 27.83 "/><polyline fill="none" stroke="#444" stroke-width="0.5" stroke-linecap="square" stroke-miterlimit="1"  points="10.26 32.56 11.27 32.22 12.27 31.86 13.26 31.46 14.24 31.03 13.83 32.81 13.33 34.6 12.72 36.38 10.54 30.14 "/><polyline fill="none" stroke="#444" stroke-width="0.5" stroke-linecap="square" stroke-miterlimit="1"  points="3.04 35.11 1.94 35.18 0.84 35.23 -0.26 35.24 -1.4 36.31 -1.44 37.41 -0.28 38.54 0.92 38.53 2.13 38.48 3.33 38.4 2.76 31.82 "/><polyline fill="none" stroke="#444" stroke-width="0.5" stroke-linecap="square" stroke-miterlimit="1"  points="-3.22 31.77 -3.44 33.96 -4.79 36.02 -6.28 38.03 -7.04 35.65 -7.65 33.27 -7.16 31.12 "/><polyline fill="none" stroke="#444" stroke-width="0.5" stroke-linecap="square" stroke-miterlimit="1"  points="-3.44 33.96 -4.5 33.84 -5.56 33.68 -6.61 33.49 -7.65 33.27 "/><polyline fill="none" stroke="#444" stroke-width="0.5" stroke-linecap="square" stroke-miterlimit="1"  points="-14.6 33.28 -13.56 33.72 -12.5 34.12 -11.43 34.5 -10.34 34.84 "/><polyline fill="none" stroke="#444" stroke-width="0.5" stroke-linecap="square" stroke-miterlimit="1"  points="-13.72 31.26 -12.74 31.67 -11.74 32.05 -10.73 32.41 -9.72 32.73 "/><polyline fill="none" stroke="#444" stroke-width="0.5" stroke-linecap="square" stroke-miterlimit="1"  points="-18.06 26.34 -17.23 26.89 -16.38 27.41 -15.52 27.91 -14.64 28.38 -15.64 30.34 -17.12 30.8 -18.07 30.25 -19.01 29.67 -20.55 29.97 -21.17 30.88 -20.79 32.45 -19.77 33.09 -18.73 33.69 -17.16 33.28 "/><polyline fill="none" stroke="#444" stroke-width="0.5" stroke-linecap="square" stroke-miterlimit="1"  points="-22.69 24.01 -21.2 23.88 -20.45 24.53 -20.35 26.03 -23.06 29.5 -24.68 29.61 -25.59 28.82 -25.72 27.21 -22.69 24.01 "/></g></g><g class="guides gearguides" opacity="0.2"><circle class="pitch" fill="none" stroke="#f00" stroke-miterlimit="10" cx="0" cy="0" r="75"/><circle class="outer" fill="none" stroke="#ccc" stroke-miterlimit="10" stroke-dasharray="2,2" cx="0" cy="0" r="100"/><circle class="base" fill="none" stroke="#00f" stroke-miterlimit="10" stroke-dasharray="2,2" cx="0" cy="0" r="70.48"/></g></g></svg>