<?xml version="1.0" encoding="utf-8"?><!-- Generator: Iparigrafika Gear Generator by Abel Vincze http://geargenerator.com/ --><svg version="1.2" class="svggear" xmlns="http://www.w3.org/2000/svg" xmlns:xlink="http://www.w3.org/1999/xlink" x="0px" y="0px" width="1212.5px" height="800px" viewBox="0 0 1212.5 800" xml:space="preserve"><g transform="translate(400,400) rotate(5176.076)"><path id="gearpoly0" data-id="0" class="gear" fill="#ddd" stroke="#444" stroke-width="1" stroke-miterlimit="10" d="M271.25,0 281.951,0 282.052,-0.003 282.213,-0.009 282.433,-0.021 282.713,-0.041 283.052,-0.069 283.449,-0.108 283.906,-0.159 284.42,-0.225 284.993,-0.306 285.623,-0.405 286.311,-0.523 287.055,-0.663 287.856,-0.824 288.713,-1.01 289.625,-1.222 290.591,-1.462 291.612,-1.731 292.686,-2.03 293.813,-2.363 294.992,-2.729 296.222,-3.13 297.503,-3.569 298.833,-4.047 300.212,-4.565 301.639,-5.125 303.112,-5.728 304.632,-6.375 306.196,-7.069 307.805,-7.811 309.456,-8.601 311.149,-9.442 312.883,-10.335 314.656,-11.282 316.467,-12.282 318.315,-13.339 320.199,-14.452 322.118,-15.624 324.07,-16.856 324.316,-17.014 324.439,-17.093 324.501,-17.133 324.532,-17.153 324.539,-17.158 324.543,-17.161 324.546,-17.163 323.205,-34.111 323.201,-34.112 323.197,-34.114 323.189,-34.118 323.155,-34.133 323.088,-34.162 322.954,-34.221 322.686,-34.339 320.564,-35.248 318.485,-36.104 316.45,-36.907 314.458,-37.659 312.512,-38.363 310.612,-39.018 308.76,-39.627 306.955,-40.191 305.2,-40.712 303.495,-41.192 301.841,-41.631 300.239,-42.031 298.688,-42.395 297.191,-42.723 295.748,-43.018 294.359,-43.28 293.026,-43.512 291.748,-43.716 290.526,-43.892 289.361,-44.042 288.253,-44.169 287.203,-44.274 286.21,-44.359 285.276,-44.425 284.401,-44.473 283.585,-44.507 282.828,-44.528 282.13,-44.536 281.492,-44.535 280.914,-44.525 280.395,-44.509 279.936,-44.488 279.538,-44.464 279.199,-44.438 278.919,-44.413 278.7,-44.39 278.54,-44.371 278.44,-44.358 267.872,-42.675 262.007,-70.205 272.343,-72.975 272.441,-73.003 272.594,-73.051 272.804,-73.12 273.069,-73.211 273.389,-73.326 273.763,-73.466 274.191,-73.634 274.671,-73.83 275.203,-74.057 275.786,-74.316 276.42,-74.608 277.103,-74.935 277.834,-75.299 278.614,-75.7 279.44,-76.141 280.311,-76.623 281.228,-77.147 282.188,-77.714 283.19,-78.326 284.234,-78.985 285.318,-79.692 286.442,-80.447 287.603,-81.253 288.801,-82.11 290.034,-83.02 291.302,-83.984 292.602,-85.003 293.933,-86.078 295.295,-87.21 296.685,-88.401 298.103,-89.652 299.546,-90.963 301.014,-92.336 302.505,-93.771 304.017,-95.27 305.548,-96.833 307.098,-98.462 308.665,-100.157 308.861,-100.373 308.96,-100.482 309.009,-100.536 309.034,-100.564 309.04,-100.57 309.043,-100.574 309.046,-100.577 303.364,-116.6 303.36,-116.601 303.355,-116.601 303.346,-116.603 303.31,-116.608 303.237,-116.62 303.092,-116.642 302.803,-116.686 300.519,-117.015 298.289,-117.304 296.115,-117.553 293.996,-117.764 291.934,-117.94 289.93,-118.081 287.983,-118.19 286.094,-118.268 284.264,-118.317 282.493,-118.339 280.781,-118.335 279.13,-118.307 277.538,-118.257 276.007,-118.186 274.537,-118.097 273.128,-117.991 271.779,-117.87 270.492,-117.736 269.266,-117.59 268.102,-117.434 266.999,-117.27 265.957,-117.099 264.977,-116.924 264.058,-116.746 263.2,-116.567 262.403,-116.388 261.666,-116.212 260.99,-116.039 260.374,-115.873 259.818,-115.714 259.321,-115.564 258.883,-115.425 258.504,-115.298 258.184,-115.186 257.92,-115.09 257.714,-115.011 257.565,-114.951 257.471,-114.912 247.699,-110.551 234.909,-135.625 244.176,-140.976 244.263,-141.029 244.399,-141.115 244.584,-141.235 244.816,-141.392 245.095,-141.585 245.42,-141.818 245.79,-142.091 246.203,-142.405 246.658,-142.762 247.154,-143.162 247.691,-143.609 248.266,-144.101 248.879,-144.642 249.527,-145.231 250.211,-145.871 250.929,-146.562 251.678,-147.305 252.459,-148.102 253.268,-148.953 254.106,-149.859 254.971,-150.822 255.86,-151.842 256.773,-152.921 257.709,-154.059 258.664,-155.257 259.639,-156.516 260.631,-157.837 261.639,-159.22 262.661,-160.667 263.696,-162.177 264.742,-163.752 265.797,-165.392 266.859,-167.098 267.927,-168.87 269,-170.709 270.075,-172.616 271.15,-174.59 272.225,-176.632 272.359,-176.892 272.426,-177.023 272.459,-177.088 272.476,-177.121 272.48,-177.129 272.482,-177.133 272.484,-177.137 262.848,-191.143 262.844,-191.143 262.84,-191.142 262.831,-191.141 262.794,-191.137 262.721,-191.13 262.575,-191.114 262.285,-191.081 259.993,-190.808 257.765,-190.509 255.6,-190.187 253.499,-189.843 251.462,-189.479 249.489,-189.097 247.58,-188.698 245.735,-188.285 243.955,-187.858 242.239,-187.421 240.587,-186.974 238.998,-186.52 237.474,-186.059 236.014,-185.595 234.616,-185.129 233.283,-184.662 232.012,-184.196 230.803,-183.733 229.657,-183.274 228.573,-182.822 227.55,-182.378 226.588,-181.944 225.686,-181.521 224.844,-181.111 224.062,-180.716 223.338,-180.337 222.672,-179.976 222.064,-179.634 221.512,-179.314 221.016,-179.017 220.575,-178.743 220.188,-178.496 219.855,-178.275 219.574,-178.084 219.345,-177.923 219.166,-177.793 219.037,-177.697 218.957,-177.635 210.647,-170.894 191.803,-191.803 199.369,-199.37 199.439,-199.443 199.548,-199.561 199.695,-199.726 199.879,-199.937 200.099,-200.196 200.353,-200.505 200.639,-200.864 200.957,-201.274 201.304,-201.737 201.68,-202.253 202.082,-202.822 202.51,-203.447 202.962,-204.128 203.436,-204.865 203.931,-205.66 204.445,-206.513 204.977,-207.425 205.525,-208.396 206.087,-209.428 206.661,-210.52 207.247,-211.674 207.842,-212.89 208.445,-214.168 209.054,-215.51 209.667,-216.914 210.283,-218.383 210.899,-219.915 211.515,-221.512 212.128,-223.174 212.736,-224.901 213.339,-226.692 213.933,-228.55 214.518,-230.472 215.091,-232.461 215.651,-234.515 216.196,-236.634 216.724,-238.82 217.233,-241.071 217.295,-241.357 217.326,-241.5 217.342,-241.572 217.349,-241.608 217.351,-241.617 217.352,-241.621 217.353,-241.625 204.421,-252.66 204.417,-252.659 204.413,-252.657 204.404,-252.654 204.37,-252.641 204.301,-252.614 204.165,-252.561 203.892,-252.455 201.749,-251.598 199.674,-250.732 197.666,-249.861 195.726,-248.985 193.853,-248.106 192.046,-247.226 190.305,-246.347 188.631,-245.47 187.021,-244.597 185.477,-243.731 183.996,-242.871 182.58,-242.021 181.227,-241.182 179.936,-240.356 178.707,-239.544 177.54,-238.747 176.433,-237.968 175.385,-237.208 174.397,-236.469 173.466,-235.752 172.593,-235.058 171.776,-234.389 171.015,-233.747 170.308,-233.134 169.654,-232.549 169.053,-231.996 168.504,-231.475 168.004,-230.988 167.554,-230.536 167.152,-230.12 166.797,-229.742 166.487,-229.402 166.222,-229.103 166.001,-228.846 165.821,-228.631 165.682,-228.459 165.582,-228.333 165.521,-228.252 159.238,-219.59 135.625,-234.909 140.975,-244.177 141.023,-244.266 141.098,-244.408 141.198,-244.605 141.321,-244.857 141.466,-245.164 141.631,-245.528 141.815,-245.949 142.016,-246.428 142.231,-246.964 142.461,-247.56 142.702,-248.214 142.954,-248.929 143.214,-249.703 143.481,-250.538 143.754,-251.434 144.03,-252.391 144.307,-253.409 144.585,-254.489 144.861,-255.631 145.133,-256.835 145.4,-258.101 145.66,-259.43 145.912,-260.82 146.153,-262.274 146.381,-263.789 146.596,-265.367 146.795,-267.007 146.976,-268.708 147.138,-270.472 147.279,-272.297 147.397,-274.184 147.491,-276.132 147.558,-278.14 147.597,-280.209 147.606,-282.338 147.584,-284.527 147.528,-286.774 147.437,-289.08 147.423,-289.373 147.416,-289.519 147.413,-289.593 147.411,-289.629 147.41,-289.638 147.41,-289.643 147.41,-289.647 132.062,-296.959 132.058,-296.957 132.055,-296.954 132.047,-296.949 132.018,-296.927 131.958,-296.884 131.84,-296.797 131.604,-296.623 129.756,-295.241 127.976,-293.868 126.262,-292.507 124.615,-291.158 123.033,-289.825 121.515,-288.507 120.062,-287.207 118.671,-285.927 117.342,-284.667 116.075,-283.431 114.867,-282.218 113.719,-281.03 112.629,-279.869 111.596,-278.737 110.619,-277.634 109.698,-276.563 108.83,-275.524 108.015,-274.519 107.252,-273.549 106.539,-272.615 105.875,-271.719 105.259,-270.862 104.689,-270.045 104.165,-269.269 103.685,-268.535 103.248,-267.845 102.852,-267.2 102.496,-266.6 102.178,-266.047 101.897,-265.541 101.652,-265.084 101.441,-264.676 101.262,-264.318 101.115,-264.012 100.997,-263.758 100.907,-263.556 100.843,-263.408 100.805,-263.315 96.978,-253.321 70.205,-262.007 72.974,-272.344 72.997,-272.442 73.033,-272.599 73.078,-272.815 73.132,-273.09 73.193,-273.425 73.258,-273.819 73.326,-274.273 73.396,-274.787 73.466,-275.361 73.533,-275.996 73.597,-276.691 73.655,-277.446 73.706,-278.261 73.748,-279.137 73.78,-280.072 73.798,-281.068 73.803,-282.124 73.792,-283.239 73.762,-284.413 73.714,-285.647 73.644,-286.939 73.552,-288.289 73.435,-289.698 73.291,-291.164 73.12,-292.687 72.919,-294.266 72.686,-295.902 72.421,-297.593 72.121,-299.338 71.785,-301.138 71.411,-302.991 70.997,-304.896 70.542,-306.854 70.044,-308.862 69.502,-310.921 68.914,-313.029 68.278,-315.186 67.594,-317.39 67.505,-317.669 67.46,-317.808 67.438,-317.878 67.426,-317.913 67.423,-317.922 67.422,-317.926 67.421,-317.93 50.703,-321.021 50.701,-321.018 50.698,-321.014 50.692,-321.007 50.669,-320.978 50.623,-320.921 50.531,-320.807 50.348,-320.578 48.921,-318.764 47.557,-316.978 46.254,-315.219 45.011,-313.49 43.828,-311.792 42.704,-310.127 41.636,-308.495 40.624,-306.898 39.666,-305.338 38.762,-303.815 37.91,-302.331 37.108,-300.887 36.356,-299.483 35.651,-298.122 34.993,-296.805 34.38,-295.531 33.811,-294.303 33.284,-293.121 32.798,-291.986 32.351,-290.9 31.941,-289.863 31.568,-288.875 31.23,-287.939 30.924,-287.054 30.65,-286.221 30.406,-285.441 30.191,-284.715 30.002,-284.044 29.838,-283.427 29.698,-282.866 29.579,-282.361 29.481,-281.912 29.401,-281.521 29.338,-281.187 29.29,-280.91 29.255,-280.693 29.232,-280.533 29.219,-280.433 28.11,-269.79 0,-271.25 0,-281.951 -0.003,-282.052 -0.009,-282.213 -0.021,-282.433 -0.041,-282.713 -0.069,-283.052 -0.108,-283.449 -0.159,-283.906 -0.225,-284.42 -0.306,-284.993 -0.405,-285.623 -0.523,-286.311 -0.663,-287.055 -0.824,-287.856 -1.01,-288.713 -1.222,-289.625 -1.462,-290.591 -1.731,-291.612 -2.03,-292.686 -2.363,-293.813 -2.729,-294.992 -3.13,-296.222 -3.569,-297.503 -4.047,-298.833 -4.565,-300.212 -5.125,-301.639 -5.728,-303.112 -6.375,-304.632 -7.069,-306.196 -7.811,-307.805 -8.601,-309.456 -9.442,-311.149 -10.335,-312.883 -11.282,-314.656 -12.282,-316.467 -13.339,-318.315 -14.452,-320.199 -15.624,-322.118 -16.856,-324.07 -17.014,-324.316 -17.093,-324.439 -17.133,-324.501 -17.153,-324.532 -17.158,-324.539 -17.161,-324.543 -17.163,-324.546 -34.111,-323.205 -34.112,-323.201 -34.114,-323.197 -34.118,-323.189 -34.133,-323.155 -34.162,-323.088 -34.221,-322.954 -34.339,-322.686 -35.248,-320.564 -36.104,-318.485 -36.907,-316.45 -37.659,-314.458 -38.363,-312.512 -39.018,-310.612 -39.627,-308.76 -40.191,-306.955 -40.712,-305.2 -41.192,-303.495 -41.631,-301.841 -42.031,-300.239 -42.395,-298.688 -42.723,-297.191 -43.018,-295.748 -43.28,-294.359 -43.512,-293.026 -43.716,-291.748 -43.892,-290.526 -44.042,-289.361 -44.169,-288.253 -44.274,-287.203 -44.359,-286.21 -44.425,-285.276 -44.473,-284.401 -44.507,-283.585 -44.528,-282.828 -44.536,-282.13 -44.535,-281.492 -44.525,-280.914 -44.509,-280.395 -44.488,-279.936 -44.464,-279.538 -44.438,-279.199 -44.413,-278.919 -44.39,-278.7 -44.371,-278.54 -44.358,-278.44 -42.675,-267.872 -70.205,-262.007 -72.975,-272.343 -73.003,-272.441 -73.051,-272.594 -73.12,-272.804 -73.211,-273.069 -73.326,-273.389 -73.466,-273.763 -73.634,-274.191 -73.83,-274.671 -74.057,-275.203 -74.316,-275.786 -74.608,-276.42 -74.935,-277.103 -75.299,-277.834 -75.7,-278.614 -76.141,-279.44 -76.623,-280.311 -77.147,-281.228 -77.714,-282.188 -78.326,-283.19 -78.985,-284.234 -79.692,-285.318 -80.447,-286.442 -81.253,-287.603 -82.11,-288.801 -83.02,-290.034 -83.984,-291.302 -85.003,-292.602 -86.078,-293.933 -87.21,-295.295 -88.401,-296.685 -89.652,-298.103 -90.963,-299.546 -92.336,-301.014 -93.771,-302.505 -95.27,-304.017 -96.833,-305.548 -98.462,-307.098 -100.157,-308.665 -100.373,-308.861 -100.482,-308.96 -100.536,-309.009 -100.564,-309.034 -100.57,-309.04 -100.574,-309.043 -100.577,-309.046 -116.6,-303.364 -116.601,-303.36 -116.601,-303.355 -116.603,-303.346 -116.608,-303.31 -116.62,-303.237 -116.642,-303.092 -116.686,-302.803 -117.015,-300.519 -117.304,-298.289 -117.553,-296.115 -117.764,-293.996 -117.94,-291.934 -118.081,-289.93 -118.19,-287.983 -118.268,-286.094 -118.317,-284.264 -118.339,-282.493 -118.335,-280.781 -118.307,-279.13 -118.257,-277.538 -118.186,-276.007 -118.097,-274.537 -117.991,-273.128 -117.87,-271.779 -117.736,-270.492 -117.59,-269.266 -117.434,-268.102 -117.27,-266.999 -117.099,-265.957 -116.924,-264.977 -116.746,-264.058 -116.567,-263.2 -116.388,-262.403 -116.212,-261.666 -116.039,-260.99 -115.873,-260.374 -115.714,-259.818 -115.564,-259.321 -115.425,-258.883 -115.298,-258.504 -115.186,-258.184 -115.09,-257.92 -115.011,-257.714 -114.951,-257.565 -114.912,-257.471 -110.551,-247.699 -135.625,-234.909 -140.976,-244.176 -141.029,-244.263 -141.115,-244.399 -141.235,-244.584 -141.392,-244.816 -141.585,-245.095 -141.818,-245.42 -142.091,-245.79 -142.405,-246.203 -142.762,-246.658 -143.162,-247.154 -143.609,-247.691 -144.101,-248.266 -144.642,-248.879 -145.231,-249.527 -145.871,-250.211 -146.562,-250.929 -147.305,-251.678 -148.102,-252.459 -148.953,-253.268 -149.859,-254.106 -150.822,-254.971 -151.842,-255.86 -152.921,-256.773 -154.059,-257.709 -155.257,-258.664 -156.516,-259.639 -157.837,-260.631 -159.22,-261.639 -160.667,-262.661 -162.177,-263.696 -163.752,-264.742 -165.392,-265.797 -167.098,-266.859 -168.87,-267.927 -170.709,-269 -172.616,-270.075 -174.59,-271.15 -176.632,-272.225 -176.892,-272.359 -177.023,-272.426 -177.088,-272.459 -177.121,-272.476 -177.129,-272.48 -177.133,-272.482 -177.137,-272.484 -191.143,-262.848 -191.143,-262.844 -191.142,-262.84 -191.141,-262.831 -191.137,-262.794 -191.13,-262.721 -191.114,-262.575 -191.081,-262.285 -190.808,-259.993 -190.509,-257.765 -190.187,-255.6 -189.843,-253.499 -189.479,-251.462 -189.097,-249.489 -188.698,-247.58 -188.285,-245.735 -187.858,-243.955 -187.421,-242.239 -186.974,-240.587 -186.52,-238.998 -186.059,-237.474 -185.595,-236.014 -185.129,-234.616 -184.662,-233.283 -184.196,-232.012 -183.733,-230.803 -183.274,-229.657 -182.822,-228.573 -182.378,-227.55 -181.944,-226.588 -181.521,-225.686 -181.111,-224.844 -180.716,-224.062 -180.337,-223.338 -179.976,-222.672 -179.634,-222.064 -179.314,-221.512 -179.017,-221.016 -178.743,-220.575 -178.496,-220.188 -178.275,-219.855 -178.084,-219.574 -177.923,-219.345 -177.793,-219.166 -177.697,-219.037 -177.635,-218.957 -170.894,-210.647 -191.803,-191.803 -199.37,-199.369 -199.443,-199.439 -199.561,-199.548 -199.726,-199.695 -199.937,-199.879 -200.196,-200.099 -200.505,-200.353 -200.864,-200.639 -201.274,-200.957 -201.737,-201.304 -202.253,-201.68 -202.822,-202.082 -203.447,-202.51 -204.128,-202.962 -204.865,-203.436 -205.66,-203.931 -206.513,-204.445 -207.425,-204.977 -208.396,-205.525 -209.428,-206.087 -210.52,-206.661 -211.674,-207.247 -212.89,-207.842 -214.168,-208.445 -215.51,-209.054 -216.914,-209.667 -218.383,-210.283 -219.915,-210.899 -221.512,-211.515 -223.174,-212.128 -224.901,-212.736 -226.692,-213.339 -228.55,-213.933 -230.472,-214.518 -232.461,-215.091 -234.515,-215.651 -236.634,-216.196 -238.82,-216.724 -241.071,-217.233 -241.357,-217.295 -241.5,-217.326 -241.572,-217.342 -241.608,-217.349 -241.617,-217.351 -241.621,-217.352 -241.625,-217.353 -252.66,-204.421 -252.659,-204.417 -252.657,-204.413 -252.654,-204.404 -252.641,-204.37 -252.614,-204.301 -252.561,-204.165 -252.455,-203.892 -251.598,-201.749 -250.732,-199.674 -249.861,-197.666 -248.985,-195.726 -248.106,-193.853 -247.226,-192.046 -246.347,-190.305 -245.47,-188.631 -244.597,-187.021 -243.731,-185.477 -242.871,-183.996 -242.021,-182.58 -241.182,-181.227 -240.356,-179.936 -239.544,-178.707 -238.747,-177.54 -237.968,-176.433 -237.208,-175.385 -236.469,-174.397 -235.752,-173.466 -235.058,-172.593 -234.389,-171.776 -233.747,-171.015 -233.134,-170.308 -232.549,-169.654 -231.996,-169.053 -231.475,-168.504 -230.988,-168.004 -230.536,-167.554 -230.12,-167.152 -229.742,-166.797 -229.402,-166.487 -229.103,-166.222 -228.846,-166.001 -228.631,-165.821 -228.459,-165.682 -228.333,-165.582 -228.252,-165.521 -219.59,-159.238 -234.909,-135.625 -244.177,-140.975 -244.266,-141.023 -244.408,-141.098 -244.605,-141.198 -244.857,-141.321 -245.164,-141.466 -245.528,-141.631 -245.949,-141.815 -246.428,-142.016 -246.964,-142.231 -247.56,-142.461 -248.214,-142.702 -248.929,-142.954 -249.703,-143.214 -250.538,-143.481 -251.434,-143.754 -252.391,-144.03 -253.409,-144.307 -254.489,-144.585 -255.631,-144.861 -256.835,-145.133 -258.101,-145.4 -259.43,-145.66 -260.82,-145.912 -262.274,-146.153 -263.789,-146.381 -265.367,-146.596 -267.007,-146.795 -268.708,-146.976 -270.472,-147.138 -272.297,-147.279 -274.184,-147.397 -276.132,-147.491 -278.14,-147.558 -280.209,-147.597 -282.338,-147.606 -284.527,-147.584 -286.774,-147.528 -289.08,-147.437 -289.373,-147.423 -289.519,-147.416 -289.593,-147.413 -289.629,-147.411 -289.638,-147.41 -289.643,-147.41 -289.647,-147.41 -296.959,-132.062 -296.957,-132.058 -296.954,-132.055 -296.949,-132.047 -296.927,-132.018 -296.884,-131.958 -296.797,-131.84 -296.623,-131.604 -295.241,-129.756 -293.868,-127.976 -292.507,-126.262 -291.158,-124.615 -289.825,-123.033 -288.507,-121.515 -287.207,-120.062 -285.927,-118.671 -284.667,-117.342 -283.431,-116.075 -282.218,-114.867 -281.03,-113.719 -279.869,-112.629 -278.737,-111.596 -277.634,-110.619 -276.563,-109.698 -275.524,-108.83 -274.519,-108.015 -273.549,-107.252 -272.615,-106.539 -271.719,-105.875 -270.862,-105.259 -270.045,-104.689 -269.269,-104.165 -268.535,-103.685 -267.845,-103.248 -267.2,-102.852 -266.6,-102.496 -266.047,-102.178 -265.541,-101.897 -265.084,-101.652 -264.676,-101.441 -264.318,-101.262 -264.012,-101.115 -263.758,-100.997 -263.556,-100.907 -263.408,-100.843 -263.315,-100.805 -253.321,-96.978 -262.007,-70.205 -272.344,-72.974 -272.442,-72.997 -272.599,-73.033 -272.815,-73.078 -273.09,-73.132 -273.425,-73.193 -273.819,-73.258 -274.273,-73.326 -274.787,-73.396 -275.361,-73.466 -275.996,-73.533 -276.691,-73.597 -277.446,-73.655 -278.261,-73.706 -279.137,-73.748 -280.072,-73.78 -281.068,-73.798 -282.124,-73.803 -283.239,-73.792 -284.413,-73.762 -285.647,-73.714 -286.939,-73.644 -288.289,-73.552 -289.698,-73.435 -291.164,-73.291 -292.687,-73.12 -294.266,-72.919 -295.902,-72.686 -297.593,-72.421 -299.338,-72.121 -301.138,-71.785 -302.991,-71.411 -304.896,-70.997 -306.854,-70.542 -308.862,-70.044 -310.921,-69.502 -313.029,-68.914 -315.186,-68.278 -317.39,-67.594 -317.669,-67.505 -317.808,-67.46 -317.878,-67.438 -317.913,-67.426 -317.922,-67.423 -317.926,-67.422 -317.93,-67.421 -321.021,-50.703 -321.018,-50.701 -321.014,-50.698 -321.007,-50.692 -320.978,-50.669 -320.921,-50.623 -320.807,-50.531 -320.578,-50.348 -318.764,-48.921 -316.978,-47.557 -315.219,-46.254 -313.49,-45.011 -311.792,-43.828 -310.127,-42.704 -308.495,-41.636 -306.898,-40.624 -305.338,-39.666 -303.815,-38.762 -302.331,-37.91 -300.887,-37.108 -299.483,-36.356 -298.122,-35.651 -296.805,-34.993 -295.531,-34.38 -294.303,-33.811 -293.121,-33.284 -291.986,-32.798 -290.9,-32.351 -289.863,-31.941 -288.875,-31.568 -287.939,-31.23 -287.054,-30.924 -286.221,-30.65 -285.441,-30.406 -284.715,-30.191 -284.044,-30.002 -283.427,-29.838 -282.866,-29.698 -282.361,-29.579 -281.912,-29.481 -281.521,-29.401 -281.187,-29.338 -280.91,-29.29 -280.693,-29.255 -280.533,-29.232 -280.433,-29.219 -269.79,-28.11 -271.25,0 -281.951,0 -282.052,0.003 -282.213,0.009 -282.433,0.021 -282.713,0.041 -283.052,0.069 -283.449,0.108 -283.906,0.159 -284.42,0.225 -284.993,0.306 -285.623,0.405 -286.311,0.523 -287.055,0.663 -287.856,0.824 -288.713,1.01 -289.625,1.222 -290.591,1.462 -291.612,1.731 -292.686,2.03 -293.813,2.363 -294.992,2.729 -296.222,3.13 -297.503,3.569 -298.833,4.047 -300.212,4.565 -301.639,5.125 -303.112,5.728 -304.632,6.375 -306.196,7.069 -307.805,7.811 -309.456,8.601 -311.149,9.442 -312.883,10.335 -314.656,11.282 -316.467,12.282 -318.315,13.339 -320.199,14.452 -322.118,15.624 -324.07,16.856 -324.316,17.014 -324.439,17.093 -324.501,17.133 -324.532,17.153 -324.539,17.158 -324.543,17.161 -324.546,17.163 -323.205,34.111 -323.201,34.112 -323.197,34.114 -323.189,34.118 -323.155,34.133 -323.088,34.162 -322.954,34.221 -322.686,34.339 -320.564,35.248 -318.485,36.104 -316.45,36.907 -314.458,37.659 -312.512,38.363 -310.612,39.018 -308.76,39.627 -306.955,40.191 -305.2,40.712 -303.495,41.192 -301.841,41.631 -300.239,42.031 -298.688,42.395 -297.191,42.723 -295.748,43.018 -294.359,43.28 -293.026,43.512 -291.748,43.716 -290.526,43.892 -289.361,44.042 -288.253,44.169 -287.203,44.274 -286.21,44.359 -285.276,44.425 -284.401,44.473 -283.585,44.507 -282.828,44.528 -282.13,44.536 -281.492,44.535 -280.914,44.525 -280.395,44.509 -279.936,44.488 -279.538,44.464 -279.199,44.438 -278.919,44.413 -278.7,44.39 -278.54,44.371 -278.44,44.358 -267.872,42.675 -262.007,70.205 -272.343,72.975 -272.441,73.003 -272.594,73.051 -272.804,73.12 -273.069,73.211 -273.389,73.326 -273.763,73.466 -274.191,73.634 -274.671,73.83 -275.203,74.057 -275.786,74.316 -276.42,74.608 -277.103,74.935 -277.834,75.299 -278.614,75.7 -279.44,76.141 -280.311,76.623 -281.228,77.147 -282.188,77.714 -283.19,78.326 -284.234,78.985 -285.318,79.692 -286.442,80.447 -287.603,81.253 -288.801,82.11 -290.034,83.02 -291.302,83.984 -292.602,85.003 -293.933,86.078 -295.295,87.21 -296.685,88.401 -298.103,89.652 -299.546,90.963 -301.014,92.336 -302.505,93.771 -304.017,95.27 -305.548,96.833 -307.098,98.462 -308.665,100.157 -308.861,100.373 -308.96,100.482 -309.009,100.536 -309.034,100.564 -309.04,100.57 -309.043,100.574 -309.046,100.577 -303.364,116.6 -303.36,116.601 -303.355,116.601 -303.346,116.603 -303.31,116.608 -303.237,116.62 -303.092,116.642 -302.803,116.686 -300.519,117.015 -298.289,117.304 -296.115,117.553 -293.996,117.764 -291.934,117.94 -289.93,118.081 -287.983,118.19 -286.094,118.268 -284.264,118.317 -282.493,118.339 -280.781,118.335 -279.13,118.307 -277.538,118.257 -276.007,118.186 -274.537,118.097 -273.128,117.991 -271.779,117.87 -270.492,117.736 -269.266,117.59 -268.102,117.434 -266.999,117.27 -265.957,117.099 -264.977,116.924 -264.058,116.746 -263.2,116.567 -262.403,116.388 -261.666,116.212 -260.99,116.039 -260.374,115.873 -259.818,115.714 -259.321,115.564 -258.883,115.425 -258.504,115.298 -258.184,115.186 -257.92,115.09 -257.714,115.011 -257.565,114.951 -257.471,114.912 -247.699,110.551 -234.909,135.625 -244.176,140.976 -244.263,141.029 -244.399,141.115 -244.584,141.235 -244.816,141.392 -245.095,141.585 -245.42,141.818 -245.79,142.091 -246.203,142.405 -246.658,142.762 -247.154,143.162 -247.691,143.609 -248.266,144.101 -248.879,144.642 -249.527,145.231 -250.211,145.871 -250.929,146.562 -251.678,147.305 -252.459,148.102 -253.268,148.953 -254.106,149.859 -254.971,150.822 -255.86,151.842 -256.773,152.921 -257.709,154.059 -258.664,155.257 -259.639,156.516 -260.631,157.837 -261.639,159.22 -262.661,160.667 -263.696,162.177 -264.742,163.752 -265.797,165.392 -266.859,167.098 -267.927,168.87 -269,170.709 -270.075,172.616 -271.15,174.59 -272.225,176.632 -272.359,176.892 -272.426,177.023 -272.459,177.088 -272.476,177.121 -272.48,177.129 -272.482,177.133 -272.484,177.137 -262.848,191.143 -262.844,191.143 -262.84,191.142 -262.831,191.141 -262.794,191.137 -262.721,191.13 -262.575,191.114 -262.285,191.081 -259.993,190.808 -257.765,190.509 -255.6,190.187 -253.499,189.843 -251.462,189.479 -249.489,189.097 -247.58,188.698 -245.735,188.285 -243.955,187.858 -242.239,187.421 -240.587,186.974 -238.998,186.52 -237.474,186.059 -236.014,185.595 -234.616,185.129 -233.283,184.662 -232.012,184.196 -230.803,183.733 -229.657,183.274 -228.573,182.822 -227.55,182.378 -226.588,181.944 -225.686,181.521 -224.844,181.111 -224.062,180.716 -223.338,180.337 -222.672,179.976 -222.064,179.634 -221.512,179.314 -221.016,179.017 -220.575,178.743 -220.188,178.496 -219.855,178.275 -219.574,178.084 -219.345,177.923 -219.166,177.793 -219.037,177.697 -218.957,177.635 -210.647,170.894 -191.803,191.803 -199.369,199.37 -199.439,199.443 -199.548,199.561 -199.695,199.726 -199.879,199.937 -200.099,200.196 -200.353,200.505 -200.639,200.864 -200.957,201.274 -201.304,201.737 -201.68,202.253 -202.082,202.822 -202.51,203.447 -202.962,204.128 -203.436,204.865 -203.931,205.66 -204.445,206.513 -204.977,207.425 -205.525,208.396 -206.087,209.428 -206.661,210.52 -207.247,211.674 -207.842,212.89 -208.445,214.168 -209.054,215.51 -209.667,216.914 -210.283,218.383 -210.899,219.915 -211.515,221.512 -212.128,223.174 -212.736,224.901 -213.339,226.692 -213.933,228.55 -214.518,230.472 -215.091,232.461 -215.651,234.515 -216.196,236.634 -216.724,238.82 -217.233,241.071 -217.295,241.357 -217.326,241.5 -217.342,241.572 -217.349,241.608 -217.351,241.617 -217.352,241.621 -217.353,241.625 -204.421,252.66 -204.417,252.659 -204.413,252.657 -204.404,252.654 -204.37,252.641 -204.301,252.614 -204.165,252.561 -203.892,252.455 -201.749,251.598 -199.674,250.732 -197.666,249.861 -195.726,248.985 -193.853,248.106 -192.046,247.226 -190.305,246.347 -188.631,245.47 -187.021,244.597 -185.477,243.731 -183.996,242.871 -182.58,242.021 -181.227,241.182 -179.936,240.356 -178.707,239.544 -177.54,238.747 -176.433,237.968 -175.385,237.208 -174.397,236.469 -173.466,235.752 -172.593,235.058 -171.776,234.389 -171.015,233.747 -170.308,233.134 -169.654,232.549 -169.053,231.996 -168.504,231.475 -168.004,230.988 -167.554,230.536 -167.152,230.12 -166.797,229.742 -166.487,229.402 -166.222,229.103 -166.001,228.846 -165.821,228.631 -165.682,228.459 -165.582,228.333 -165.521,228.252 -159.238,219.59 -135.625,234.909 -140.975,244.177 -141.023,244.266 -141.098,244.408 -141.198,244.605 -141.321,244.857 -141.466,245.164 -141.631,245.528 -141.815,245.949 -142.016,246.428 -142.231,246.964 -142.461,247.56 -142.702,248.214 -142.954,248.929 -143.214,249.703 -143.481,250.538 -143.754,251.434 -144.03,252.391 -144.307,253.409 -144.585,254.489 -144.861,255.631 -145.133,256.835 -145.4,258.101 -145.66,259.43 -145.912,260.82 -146.153,262.274 -146.381,263.789 -146.596,265.367 -146.795,267.007 -146.976,268.708 -147.138,270.472 -147.279,272.297 -147.397,274.184 -147.491,276.132 -147.558,278.14 -147.597,280.209 -147.606,282.338 -147.584,284.527 -147.528,286.774 -147.437,289.08 -147.423,289.373 -147.416,289.519 -147.413,289.593 -147.411,289.629 -147.41,289.638 -147.41,289.643 -147.41,289.647 -132.062,296.959 -132.058,296.957 -132.055,296.954 -132.047,296.949 -132.018,296.927 -131.958,296.884 -131.84,296.797 -131.604,296.623 -129.756,295.241 -127.976,293.868 -126.262,292.507 -124.615,291.158 -123.033,289.825 -121.515,288.507 -120.062,287.207 -118.671,285.927 -117.342,284.667 -116.075,283.431 -114.867,282.218 -113.719,281.03 -112.629,279.869 -111.596,278.737 -110.619,277.634 -109.698,276.563 -108.83,275.524 -108.015,274.519 -107.252,273.549 -106.539,272.615 -105.875,271.719 -105.259,270.862 -104.689,270.045 -104.165,269.269 -103.685,268.535 -103.248,267.845 -102.852,267.2 -102.496,266.6 -102.178,266.047 -101.897,265.541 -101.652,265.084 -101.441,264.676 -101.262,264.318 -101.115,264.012 -100.997,263.758 -100.907,263.556 -100.843,263.408 -100.805,263.315 -96.978,253.321 -70.205,262.007 -72.974,272.344 -72.997,272.442 -73.033,272.599 -73.078,272.815 -73.132,273.09 -73.193,273.425 -73.258,273.819 -73.326,274.273 -73.396,274.787 -73.466,275.361 -73.533,275.996 -73.597,276.691 -73.655,277.446 -73.706,278.261 -73.748,279.137 -73.78,280.072 -73.798,281.068 -73.803,282.124 -73.792,283.239 -73.762,284.413 -73.714,285.647 -73.644,286.939 -73.552,288.289 -73.435,289.698 -73.291,291.164 -73.12,292.687 -72.919,294.266 -72.686,295.902 -72.421,297.593 -72.121,299.338 -71.785,301.138 -71.411,302.991 -70.997,304.896 -70.542,306.854 -70.044,308.862 -69.502,310.921 -68.914,313.029 -68.278,315.186 -67.594,317.39 -67.505,317.669 -67.46,317.808 -67.438,317.878 -67.426,317.913 -67.423,317.922 -67.422,317.926 -67.421,317.93 -50.703,321.021 -50.701,321.018 -50.698,321.014 -50.692,321.007 -50.669,320.978 -50.623,320.921 -50.531,320.807 -50.348,320.578 -48.921,318.764 -47.557,316.978 -46.254,315.219 -45.011,313.49 -43.828,311.792 -42.704,310.127 -41.636,308.495 -40.624,306.898 -39.666,305.338 -38.762,303.815 -37.91,302.331 -37.108,300.887 -36.356,299.483 -35.651,298.122 -34.993,296.805 -34.38,295.531 -33.811,294.303 -33.284,293.121 -32.798,291.986 -32.351,290.9 -31.941,289.863 -31.568,288.875 -31.23,287.939 -30.924,287.054 -30.65,286.221 -30.406,285.441 -30.191,284.715 -30.002,284.044 -29.838,283.427 -29.698,282.866 -29.579,282.361 -29.481,281.912 -29.401,281.521 -29.338,281.187 -29.29,280.91 -29.255,280.693 -29.232,280.533 -29.219,280.433 -28.11,269.79 0,271.25 0,281.951 0.003,282.052 0.009,282.213 0.021,282.433 0.041,282.713 0.069,283.052 0.108,283.449 0.159,283.906 0.225,284.42 0.306,284.993 0.405,285.623 0.523,286.311 0.663,287.055 0.824,287.856 1.01,288.713 1.222,289.625 1.462,290.591 1.731,291.612 2.03,292.686 2.363,293.813 2.729,294.992 3.13,296.222 3.569,297.503 4.047,298.833 4.565,300.212 5.125,301.639 5.728,303.112 6.375,304.632 7.069,306.196 7.811,307.805 8.601,309.456 9.442,311.149 10.335,312.883 11.282,314.656 12.282,316.467 13.339,318.315 14.452,320.199 15.624,322.118 16.856,324.07 17.014,324.316 17.093,324.439 17.133,324.501 17.153,324.532 17.158,324.539 17.161,324.543 17.163,324.546 34.111,323.205 34.112,323.201 34.114,323.197 34.118,323.189 34.133,323.155 34.162,323.088 34.221,322.954 34.339,322.686 35.248,320.564 36.104,318.485 36.907,316.45 37.659,314.458 38.363,312.512 39.018,310.612 39.627,308.76 40.191,306.955 40.712,305.2 41.192,303.495 41.631,301.841 42.031,300.239 42.395,298.688 42.723,297.191 43.018,295.748 43.28,294.359 43.512,293.026 43.716,291.748 43.892,290.526 44.042,289.361 44.169,288.253 44.274,287.203 44.359,286.21 44.425,285.276 44.473,284.401 44.507,283.585 44.528,282.828 44.536,282.13 44.535,281.492 44.525,280.914 44.509,280.395 44.488,279.936 44.464,279.538 44.438,279.199 44.413,278.919 44.39,278.7 44.371,278.54 44.358,278.44 42.675,267.872 70.205,262.007 72.975,272.343 73.003,272.441 73.051,272.594 73.12,272.804 73.211,273.069 73.326,273.389 73.466,273.763 73.634,274.191 73.83,274.671 74.057,275.203 74.316,275.786 74.608,276.42 74.935,277.103 75.299,277.834 75.7,278.614 76.141,279.44 76.623,280.311 77.147,281.228 77.714,282.188 78.326,283.19 78.985,284.234 79.692,285.318 80.447,286.442 81.253,287.603 82.11,288.801 83.02,290.034 83.984,291.302 85.003,292.602 86.078,293.933 87.21,295.295 88.401,296.685 89.652,298.103 90.963,299.546 92.336,301.014 93.771,302.505 95.27,304.017 96.833,305.548 98.462,307.098 100.157,308.665 100.373,308.861 100.482,308.96 100.536,309.009 100.564,309.034 100.57,309.04 100.574,309.043 100.577,309.046 116.6,303.364 116.601,303.36 116.601,303.355 116.603,303.346 116.608,303.31 116.62,303.237 116.642,303.092 116.686,302.803 117.015,300.519 117.304,298.289 117.553,296.115 117.764,293.996 117.94,291.934 118.081,289.93 118.19,287.983 118.268,286.094 118.317,284.264 118.339,282.493 118.335,280.781 118.307,279.13 118.257,277.538 118.186,276.007 118.097,274.537 117.991,273.128 117.87,271.779 117.736,270.492 117.59,269.266 117.434,268.102 117.27,266.999 117.099,265.957 116.924,264.977 116.746,264.058 116.567,263.2 116.388,262.403 116.212,261.666 116.039,260.99 115.873,260.374 115.714,259.818 115.564,259.321 115.425,258.883 115.298,258.504 115.186,258.184 115.09,257.92 115.011,257.714 114.951,257.565 114.912,257.471 110.551,247.699 135.625,234.909 140.976,244.176 141.029,244.263 141.115,244.399 141.235,244.584 141.392,244.816 141.585,245.095 141.818,245.42 142.091,245.79 142.405,246.203 142.762,246.658 143.162,247.154 143.609,247.691 144.101,248.266 144.642,248.879 145.231,249.527 145.871,250.211 146.562,250.929 147.305,251.678 148.102,252.459 148.953,253.268 149.859,254.106 150.822,254.971 151.842,255.86 152.921,256.773 154.059,257.709 155.257,258.664 156.516,259.639 157.837,260.631 159.22,261.639 160.667,262.661 162.177,263.696 163.752,264.742 165.392,265.797 167.098,266.859 168.87,267.927 170.709,269 172.616,270.075 174.59,271.15 176.632,272.225 176.892,272.359 177.023,272.426 177.088,272.459 177.121,272.476 177.129,272.48 177.133,272.482 177.137,272.484 191.143,262.848 191.143,262.844 191.142,262.84 191.141,262.831 191.137,262.794 191.13,262.721 191.114,262.575 191.081,262.285 190.808,259.993 190.509,257.765 190.187,255.6 189.843,253.499 189.479,251.462 189.097,249.489 188.698,247.58 188.285,245.735 187.858,243.955 187.421,242.239 186.974,240.587 186.52,238.998 186.059,237.474 185.595,236.014 185.129,234.616 184.662,233.283 184.196,232.012 183.733,230.803 183.274,229.657 182.822,228.573 182.378,227.55 181.944,226.588 181.521,225.686 181.111,224.844 180.716,224.062 180.337,223.338 179.976,222.672 179.634,222.064 179.314,221.512 179.017,221.016 178.743,220.575 178.496,220.188 178.275,219.855 178.084,219.574 177.923,219.345 177.793,219.166 177.697,219.037 177.635,218.957 170.894,210.647 191.803,191.803 199.37,199.369 199.443,199.439 199.561,199.548 199.726,199.695 199.937,199.879 200.196,200.099 200.505,200.353 200.864,200.639 201.274,200.957 201.737,201.304 202.253,201.68 202.822,202.082 203.447,202.51 204.128,202.962 204.865,203.436 205.66,203.931 206.513,204.445 207.425,204.977 208.396,205.525 209.428,206.087 210.52,206.661 211.674,207.247 212.89,207.842 214.168,208.445 215.51,209.054 216.914,209.667 218.383,210.283 219.915,210.899 221.512,211.515 223.174,212.128 224.901,212.736 226.692,213.339 228.55,213.933 230.472,214.518 232.461,215.091 234.515,215.651 236.634,216.196 238.82,216.724 241.071,217.233 241.357,217.295 241.5,217.326 241.572,217.342 241.608,217.349 241.617,217.351 241.621,217.352 241.625,217.353 252.66,204.421 252.659,204.417 252.657,204.413 252.654,204.404 252.641,204.37 252.614,204.301 252.561,204.165 252.455,203.892 251.598,201.749 250.732,199.674 249.861,197.666 248.985,195.726 248.106,193.853 247.226,192.046 246.347,190.305 245.47,188.631 244.597,187.021 243.731,185.477 242.871,183.996 242.021,182.58 241.182,181.227 240.356,179.936 239.544,178.707 238.747,177.54 237.968,176.433 237.208,175.385 236.469,174.397 235.752,173.466 235.058,172.593 234.389,171.776 233.747,171.015 233.134,170.308 232.549,169.654 231.996,169.053 231.475,168.504 230.988,168.004 230.536,167.554 230.12,167.152 229.742,166.797 229.402,166.487 229.103,166.222 228.846,166.001 228.631,165.821 228.459,165.682 228.333,165.582 228.252,165.521 219.59,159.238 234.909,135.625 244.177,140.975 244.266,141.023 244.408,141.098 244.605,141.198 244.857,141.321 245.164,141.466 245.528,141.631 245.949,141.815 246.428,142.016 246.964,142.231 247.56,142.461 248.214,142.702 248.929,142.954 249.703,143.214 250.538,143.481 251.434,143.754 252.391,144.03 253.409,144.307 254.489,144.585 255.631,144.861 256.835,145.133 258.101,145.4 259.43,145.66 260.82,145.912 262.274,146.153 263.789,146.381 265.367,146.596 267.007,146.795 268.708,146.976 270.472,147.138 272.297,147.279 274.184,147.397 276.132,147.491 278.14,147.558 280.209,147.597 282.338,147.606 284.527,147.584 286.774,147.528 289.08,147.437 289.373,147.423 289.519,147.416 289.593,147.413 289.629,147.411 289.638,147.41 289.643,147.41 289.647,147.41 296.959,132.062 296.957,132.058 296.954,132.055 296.949,132.047 296.927,132.018 296.884,131.958 296.797,131.84 296.623,131.604 295.241,129.756 293.868,127.976 292.507,126.262 291.158,124.615 289.825,123.033 288.507,121.515 287.207,120.062 285.927,118.671 284.667,117.342 283.431,116.075 282.218,114.867 281.03,113.719 279.869,112.629 278.737,111.596 277.634,110.619 276.563,109.698 275.524,108.83 274.519,108.015 273.549,107.252 272.615,106.539 271.719,105.875 270.862,105.259 270.045,104.689 269.269,104.165 268.535,103.685 267.845,103.248 267.2,102.852 266.6,102.496 266.047,102.178 265.541,101.897 265.084,101.652 264.676,101.441 264.318,101.262 264.012,101.115 263.758,100.997 263.556,100.907 263.408,100.843 263.315,100.805 253.321,96.978 262.007,70.205 272.344,72.974 272.442,72.997 272.599,73.033 272.815,73.078 273.09,73.132 273.425,73.193 273.819,73.258 274.273,73.326 274.787,73.396 275.361,73.466 275.996,73.533 276.691,73.597 277.446,73.655 278.261,73.706 279.137,73.748 280.072,73.78 281.068,73.798 282.124,73.803 283.239,73.792 284.413,73.762 285.647,73.714 286.939,73.644 288.289,73.552 289.698,73.435 291.164,73.291 292.687,73.12 294.266,72.919 295.902,72.686 297.593,72.421 299.338,72.121 301.138,71.785 302.991,71.411 304.896,70.997 306.854,70.542 308.862,70.044 310.921,69.502 313.029,68.914 315.186,68.278 317.39,67.594 317.669,67.505 317.808,67.46 317.878,67.438 317.913,67.426 317.922,67.423 317.926,67.422 317.93,67.421 321.021,50.703 321.018,50.701 321.014,50.698 321.007,50.692 320.978,50.669 320.921,50.623 320.807,50.531 320.578,50.348 318.764,48.921 316.978,47.557 315.219,46.254 313.49,45.011 311.792,43.828 310.127,42.704 308.495,41.636 306.898,40.624 305.338,39.666 303.815,38.762 302.331,37.91 300.887,37.108 299.483,36.356 298.122,35.651 296.805,34.993 295.531,34.38 294.303,33.811 293.121,33.284 291.986,32.798 290.9,32.351 289.863,31.941 288.875,31.568 287.939,31.23 287.054,30.924 286.221,30.65 285.441,30.406 284.715,30.191 284.044,30.002 283.427,29.838 282.866,29.698 282.361,29.579 281.912,29.481 281.521,29.401 281.187,29.338 280.91,29.29 280.693,29.255 280.533,29.232 280.433,29.219 269.79,28.11 z"/><g class="guides"><polyline fill="none" stroke="#444" stroke-width="0.5" stroke-miterlimit="10" points="10,0 -10,0"/><polyline fill="none" stroke="#444" stroke-width="0.5" stroke-miterlimit="10" points="0,10 0,-10"/></g><circle fill="#c00" class="firstmarker" stroke="none" stroke-miterlimit="10" cx="299.065" cy="-23.673" r="9.813"/><g class="geartext"><g class="text"><polyline fill="none" stroke="#444" stroke-width="0.5" stroke-linecap="square" stroke-miterlimit="1"  points="153.17 -186.39 150.84 -188.28 148.49 -190.14 146.11 -191.97 143.72 -193.77 "/><polyline fill="none" stroke="#444" stroke-width="0.5" stroke-linecap="square" stroke-miterlimit="1"  points="144.8 -185.41 152.18 -194.87 "/><polyline fill="none" stroke="#444" stroke-width="0.5" stroke-linecap="square" stroke-miterlimit="1"  points="156.98 -191.02 152.72 -190.62 148.49 -190.14 144.3 -189.58 140.14 -188.95 "/><polyline fill="none" stroke="#444" stroke-width="0.5" stroke-linecap="square" stroke-miterlimit="1"  points="149.36 -181.75 148.97 -185.93 148.49 -190.14 147.93 -194.36 147.29 -198.59 "/><polyline fill="none" stroke="#444" stroke-width="0.5" stroke-linecap="square" stroke-miterlimit="1"  points="160.37 -172.12 156.2 -171.88 154.05 -173.81 153.84 -177.98 161.68 -187.06 165.99 -187.28 168.3 -185.2 168.55 -180.9 160.37 -172.12 "/><polyline fill="none" stroke="#444" stroke-width="0.5" stroke-linecap="square" stroke-miterlimit="1"  points="193.97 -158.12 180.01 -146.75 181.63 -151.86 183.14 -157.04 184.55 -162.27 185.86 -167.57 172.5 -155.52 "/><polyline fill="none" stroke="#444" stroke-width="0.5" stroke-linecap="square" stroke-miterlimit="1"  points="200.29 -139.79 198.54 -142.27 196.76 -144.73 194.94 -147.16 193.1 -149.57 "/><polyline fill="none" stroke="#444" stroke-width="0.5" stroke-linecap="square" stroke-miterlimit="1"  points="195.37 -136.35 193.66 -138.77 191.92 -141.17 190.15 -143.55 188.35 -145.9 "/><polyline fill="none" stroke="#444" stroke-width="0.5" stroke-linecap="square" stroke-miterlimit="1"  points="199.83 -118.35 198.34 -120.83 196.83 -123.29 195.28 -125.72 193.7 -128.14 198.7 -131.45 202.85 -130.6 204.45 -128.06 206.03 -125.51 210.16 -124.47 212.74 -126 213.72 -130.19 212.08 -132.84 210.41 -135.47 206.21 -136.42 "/><polyline fill="none" stroke="#444" stroke-width="0.5" stroke-linecap="square" stroke-miterlimit="1"  points="213.47 -105.79 212.14 -108.44 210.78 -111.07 209.38 -113.68 207.95 -116.28 212.89 -115.59 217.85 -114.8 222.83 -113.9 206.8 -105.71 "/><polyline fill="none" stroke="#444" stroke-width="0.5" stroke-linecap="square" stroke-miterlimit="1"  points="224.66 -87.93 225.73 -85.13 226.77 -82.31 227.78 -79.49 231.59 -77.6 234.44 -78.55 236.28 -82.45 235.23 -85.38 234.15 -88.3 233.04 -91.21 216.28 -84.65 "/><polyline fill="none" stroke="#444" stroke-width="0.5" stroke-linecap="square" stroke-miterlimit="1"  points="221.98 -68.29 233.45 -71.82 "/><polyline fill="none" stroke="#444" stroke-width="0.5" stroke-linecap="square" stroke-miterlimit="1"  points="236.32 -72.7 239.19 -73.58 "/><polyline fill="none" stroke="#444" stroke-width="0.5" stroke-linecap="square" stroke-miterlimit="1"  points="229.38 -52.22 225.8 -54.36 228.01 -57.91 242.55 -61.6 "/><polyline fill="none" stroke="#444" stroke-width="0.5" stroke-linecap="square" stroke-miterlimit="1"  points="238.16 -54.22 237.46 -57.17 236.73 -60.12 235.97 -63.06 235.17 -65.99 "/><polyline fill="none" stroke="#444" stroke-width="0.5" stroke-linecap="square" stroke-miterlimit="1"  points="229.67 -34.53 229.22 -37.38 228.74 -40.23 228.22 -43.07 230.61 -46.5 236.49 -47.68 240.01 -45.3 240.56 -42.31 241.07 -39.31 241.54 -36.31 "/><polyline fill="none" stroke="#444" stroke-width="0.5" stroke-linecap="square" stroke-miterlimit="1"  points="236.41 -29.55 239.74 -26.94 243.04 -24.26 243.33 -21.23 240.58 -17.98 231.6 -17.31 "/><polyline fill="none" stroke="#444" stroke-width="0.5" stroke-linecap="square" stroke-miterlimit="1"  points="230.46 -28.81 248.32 -31.04 "/><polyline fill="none" stroke="#444" stroke-width="0.5" stroke-linecap="square" stroke-miterlimit="1"  points="232.23 2.89 232.18 5.78 232.09 8.66 231.96 11.55 234.8 14.62 246.77 15.36 249.94 12.44 250.08 9.33 250.17 6.22 250.23 3.11 "/><polyline fill="none" stroke="#444" stroke-width="0.5" stroke-linecap="square" stroke-miterlimit="1"  points="250.17 6.22 232.18 5.78 "/><polyline fill="none" stroke="#444" stroke-width="0.5" stroke-linecap="square" stroke-miterlimit="1"  points="241.97 33.31 242.36 30.29 242.72 27.28 243.04 24.26 243.33 21.23 "/><polyline fill="none" stroke="#444" stroke-width="0.5" stroke-linecap="square" stroke-miterlimit="1"  points="236.02 32.49 236.41 29.55 236.76 26.61 237.07 23.66 237.35 20.71 "/><polyline fill="none" stroke="#444" stroke-width="0.5" stroke-linecap="square" stroke-miterlimit="1"  points="238.1 38.83 237.6 41.79 237.07 44.74 236.49 47.68 232.95 49.99 230.01 49.36 227.67 45.91 228.22 43.07 228.74 40.23 232.18 37.86 241.07 39.31 243.51 42.83 245.91 46.41 245.31 49.46 "/><polyline fill="none" stroke="#444" stroke-width="0.5" stroke-linecap="square" stroke-miterlimit="1"  points="230.59 70.94 229.69 73.8 228.75 76.65 227.78 79.49 229.59 83.34 232.41 84.36 236.28 82.45 237.28 79.51 238.25 76.55 239.19 73.58 221.98 68.29 "/><polyline fill="none" stroke="#444" stroke-width="0.5" stroke-linecap="square" stroke-miterlimit="1"  points="222.74 100.22 223.97 97.44 225.17 94.65 226.33 91.84 227.45 89.02 "/><polyline fill="none" stroke="#444" stroke-width="0.5" stroke-linecap="square" stroke-miterlimit="1"  points="217.27 97.76 218.47 95.05 219.63 92.32 220.77 89.59 221.86 86.83 "/><polyline fill="none" stroke="#444" stroke-width="0.5" stroke-linecap="square" stroke-miterlimit="1"  points="209.38 113.68 210.78 111.07 212.14 108.44 213.47 105.79 214.77 103.13 217.06 107.57 219.26 112.08 221.39 116.66 205.47 108.27 "/><polyline fill="none" stroke="#444" stroke-width="0.5" stroke-linecap="square" stroke-miterlimit="1"  points="201.21 133.11 199.53 135.6 197.83 138.07 196.1 140.52 196.76 144.73 199.17 146.5 203.42 145.76 205.21 143.22 206.98 140.66 208.71 138.07 193.7 128.14 "/><polyline fill="none" stroke="#444" stroke-width="0.5" stroke-linecap="square" stroke-miterlimit="1"  points="183.61 142.23 188.35 145.9 191.22 151.96 193.97 158.12 187.38 156.67 180.86 155.08 176.31 151.18 "/><polyline fill="none" stroke="#444" stroke-width="0.5" stroke-linecap="square" stroke-miterlimit="1"  points="188.35 145.9 186.52 148.23 184.67 150.54 182.78 152.82 180.86 155.08 "/><polyline fill="none" stroke="#444" stroke-width="0.5" stroke-linecap="square" stroke-miterlimit="1"  points="173.05 172.37 175.18 170.2 177.29 168.01 179.36 165.79 181.41 163.55 "/><polyline fill="none" stroke="#444" stroke-width="0.5" stroke-linecap="square" stroke-miterlimit="1"  points="168.8 168.13 170.88 166.02 172.93 163.88 174.95 161.72 176.95 159.53 "/><polyline fill="none" stroke="#444" stroke-width="0.5" stroke-linecap="square" stroke-miterlimit="1"  points="151.87 175.71 154.05 173.81 156.2 171.88 158.32 169.92 160.42 167.94 164.57 172.28 164.46 176.51 162.25 178.54 160.02 180.54 159.72 184.79 161.68 187.06 165.99 187.28 168.3 185.2 170.59 183.09 170.78 178.79 "/><polyline fill="none" stroke="#444" stroke-width="0.5" stroke-linecap="square" stroke-miterlimit="1"  points="142.48 187.19 142.95 183.04 145.22 181.25 149.36 181.75 156.98 191.02 156.47 195.3 154.03 197.23 149.75 196.74 142.48 187.19 "/></g></g><g class="guides gearguides" opacity="0.2"><circle class="pitch" fill="none" stroke="#f00" stroke-miterlimit="10" cx="0" cy="0" r="300"/><circle class="outer" fill="none" stroke="#ccc" stroke-miterlimit="10" stroke-dasharray="2,2" cx="0" cy="0" r="325"/><circle class="base" fill="none" stroke="#00f" stroke-miterlimit="10" stroke-dasharray="2,2" cx="0" cy="0" r="281.91"/></g></g><g transform="translate(775,400) rotate(-20520.67)"><path id="gearpoly1" data-id="1" class="gear" fill="#ddd" stroke="#444" stroke-width="1" stroke-miterlimit="10" d="M46.25,0 70.488,0 70.678,-0.01 71.105,-0.056 71.764,-0.166 72.648,-0.365 73.748,-0.682 75.053,-1.141 76.549,-1.767 78.221,-2.584 80.05,-3.613 82.017,-4.876 84.1,-6.391 86.276,-8.175 88.52,-10.245 90.806,-12.614 93.105,-15.292 95.39,-18.289 97.629,-21.611 97.634,-21.618 97.634,-21.624 94.793,-31.849 94.789,-31.854 94.782,-31.857 91.149,-33.548 87.646,-34.937 84.295,-36.045 81.115,-36.894 78.125,-37.51 75.34,-37.916 72.773,-38.139 70.437,-38.205 68.339,-38.143 66.486,-37.98 64.881,-37.745 63.527,-37.465 62.421,-37.168 61.56,-36.884 60.94,-36.637 60.55,-36.457 60.382,-36.367 39.619,-23.862 23.125,-40.054 35.244,-61.044 35.33,-61.214 35.504,-61.607 35.738,-62.232 36.007,-63.098 36.283,-64.209 36.538,-65.568 36.744,-67.177 36.873,-69.033 36.896,-71.132 36.786,-73.466 36.516,-76.028 36.058,-78.805 35.387,-81.783 34.479,-84.947 33.309,-88.277 31.856,-91.754 30.099,-95.355 30.095,-95.362 30.09,-95.366 19.814,-98.017 19.808,-98.017 19.802,-98.012 16.521,-95.712 13.567,-93.372 10.932,-91.024 8.606,-88.695 6.578,-86.413 4.834,-84.204 3.358,-82.093 2.132,-80.103 1.136,-78.255 0.351,-76.569 -0.247,-75.061 -0.682,-73.748 -0.978,-72.642 -1.162,-71.755 -1.259,-71.094 -1.297,-70.666 -1.304,-70.476 -0.856,-46.242 -23.125,-40.054 -35.244,-61.044 -35.348,-61.204 -35.601,-61.551 -36.025,-62.067 -36.64,-62.732 -37.465,-63.527 -38.515,-64.427 -39.805,-65.41 -41.348,-66.449 -43.154,-67.519 -45.231,-68.591 -47.584,-69.637 -50.218,-70.63 -53.133,-71.538 -56.327,-72.333 -59.796,-72.985 -63.533,-73.465 -67.531,-73.744 -67.539,-73.744 -67.544,-73.741 -74.978,-66.168 -74.981,-66.163 -74.98,-66.155 -74.628,-62.164 -74.079,-58.435 -73.363,-54.979 -72.509,-51.8 -71.547,-48.903 -70.506,-46.288 -69.416,-43.954 -68.305,-41.898 -67.203,-40.112 -66.135,-38.588 -65.129,-37.316 -64.209,-36.283 -63.399,-35.474 -62.722,-34.871 -62.199,-34.457 -61.847,-34.21 -61.686,-34.109 -40.475,-22.38 -46.25,0 -70.488,0 -70.678,0.01 -71.105,0.056 -71.764,0.166 -72.648,0.365 -73.748,0.682 -75.053,1.141 -76.549,1.767 -78.221,2.584 -80.05,3.613 -82.017,4.876 -84.1,6.391 -86.276,8.175 -88.52,10.245 -90.806,12.614 -93.105,15.292 -95.39,18.289 -97.629,21.611 -97.634,21.618 -97.634,21.624 -94.793,31.849 -94.789,31.854 -94.782,31.857 -91.149,33.548 -87.646,34.937 -84.295,36.045 -81.115,36.894 -78.125,37.51 -75.34,37.916 -72.773,38.139 -70.437,38.205 -68.339,38.143 -66.486,37.98 -64.881,37.745 -63.527,37.465 -62.421,37.168 -61.56,36.884 -60.94,36.637 -60.55,36.457 -60.382,36.367 -39.619,23.862 -23.125,40.054 -35.244,61.044 -35.33,61.214 -35.504,61.607 -35.738,62.232 -36.007,63.098 -36.283,64.209 -36.538,65.568 -36.744,67.177 -36.873,69.033 -36.896,71.132 -36.786,73.466 -36.516,76.028 -36.058,78.805 -35.387,81.783 -34.479,84.947 -33.309,88.277 -31.856,91.754 -30.099,95.355 -30.095,95.362 -30.09,95.366 -19.814,98.017 -19.808,98.017 -19.802,98.012 -16.521,95.712 -13.567,93.372 -10.932,91.024 -8.606,88.695 -6.578,86.413 -4.834,84.204 -3.358,82.093 -2.132,80.103 -1.136,78.255 -0.351,76.569 0.247,75.061 0.682,73.748 0.978,72.642 1.162,71.755 1.259,71.094 1.297,70.666 1.304,70.476 0.856,46.242 23.125,40.054 35.244,61.044 35.348,61.204 35.601,61.551 36.025,62.067 36.64,62.732 37.465,63.527 38.515,64.427 39.805,65.41 41.348,66.449 43.154,67.519 45.231,68.591 47.584,69.637 50.218,70.63 53.133,71.538 56.327,72.333 59.796,72.985 63.533,73.465 67.531,73.744 67.539,73.744 67.544,73.741 74.978,66.168 74.981,66.163 74.98,66.155 74.628,62.164 74.079,58.435 73.363,54.979 72.509,51.8 71.547,48.903 70.506,46.288 69.416,43.954 68.305,41.898 67.203,40.112 66.135,38.588 65.129,37.316 64.209,36.283 63.399,35.474 62.722,34.871 62.199,34.457 61.847,34.21 61.686,34.109 40.475,22.38 z"/><g class="guides"><polyline fill="none" stroke="#444" stroke-width="0.5" stroke-miterlimit="10" points="10,0 -10,0"/><polyline fill="none" stroke="#444" stroke-width="0.5" stroke-miterlimit="10" points="0,10 0,-10"/></g><circle fill="#c00" class="firstmarker" stroke="none" stroke-miterlimit="10" cx="72.262" cy="-20.081" r="9.813"/><g class="geartext"><g class="text"><polyline fill="none" stroke="#444" stroke-width="0.5" stroke-linecap="square" stroke-miterlimit="1"  points="-20.83 -28.42 -21.7 -27.76 -22.56 -27.07 -23.4 -26.35 -24.21 -25.61 "/><polyline fill="none" stroke="#444" stroke-width="0.5" stroke-linecap="square" stroke-miterlimit="1"  points="-21.15 -25.38 -23.97 -28.76 "/><polyline fill="none" stroke="#444" stroke-width="0.5" stroke-linecap="square" stroke-miterlimit="1"  points="-22.13 -30.2 -22.38 -28.63 -22.56 -27.07 -22.66 -25.53 -22.69 -24.01 "/><polyline fill="none" stroke="#444" stroke-width="0.5" stroke-linecap="square" stroke-miterlimit="1"  points="-19.52 -26.65 -21.03 -26.89 -22.56 -27.07 -24.13 -27.17 -25.72 -27.21 "/><polyline fill="none" stroke="#444" stroke-width="0.5" stroke-linecap="square" stroke-miterlimit="1"  points="-20.2 -31.52 -19.77 -33.09 -16.38 -27.41 "/><polyline fill="none" stroke="#444" stroke-width="0.5" stroke-linecap="square" stroke-miterlimit="1"  points="-15.52 -27.91 -16.38 -27.41 -17.23 -26.89 "/><polyline fill="none" stroke="#444" stroke-width="0.5" stroke-linecap="square" stroke-miterlimit="1"  points="-6.28 -38.03 -5.2 -31.51 -6.5 -32.95 -7.9 -34.34 -9.39 -35.68 -10.97 -36.95 -9.09 -30.61 "/><polyline fill="none" stroke="#444" stroke-width="0.5" stroke-linecap="square" stroke-miterlimit="1"  points="0.87 -36.33 -0.27 -36.34 -1.4 -36.31 -2.54 -36.25 -3.67 -36.15 "/><polyline fill="none" stroke="#444" stroke-width="0.5" stroke-linecap="square" stroke-miterlimit="1"  points="0.82 -34.13 -0.25 -34.14 -1.32 -34.11 -2.38 -34.05 -3.44 -33.96 "/><polyline fill="none" stroke="#444" stroke-width="0.5" stroke-linecap="square" stroke-miterlimit="1"  points="3.04 -35.11 4.14 -34.99 5.23 -34.85 6.31 -34.67 7.16 -33.38 6.93 -32.3 5.72 -31.42 4.74 -31.58 3.75 -31.71 2.85 -32.91 3.14 -36.2 4.4 -37.18 5.72 -38.12 6.91 -37.92 "/><polyline fill="none" stroke="#444" stroke-width="0.5" stroke-linecap="square" stroke-miterlimit="1"  points="14.7 -32.03 15.69 -31.55 16.67 -31.05 17.63 -30.51 19.15 -30.88 19.73 -31.82 19.28 -33.37 18.23 -33.96 17.16 -34.51 16.07 -35.03 13.32 -29.03 "/><polyline fill="none" stroke="#444" stroke-width="0.5" stroke-linecap="square" stroke-miterlimit="1"  points="18.49 -26.03 21.05 -29.62 "/><polyline fill="none" stroke="#444" stroke-width="0.5" stroke-linecap="square" stroke-miterlimit="1"  points="21.68 -30.52 22.32 -31.42 "/><polyline fill="none" stroke="#444" stroke-width="0.5" stroke-linecap="square" stroke-miterlimit="1"  points="23.82 -22.89 22.32 -22.84 22.34 -24.34 26.06 -28.39 "/><polyline fill="none" stroke="#444" stroke-width="0.5" stroke-linecap="square" stroke-miterlimit="1"  points="26.2 -25.18 25.4 -25.99 24.57 -26.77 23.73 -27.52 22.85 -28.25 "/><polyline fill="none" stroke="#444" stroke-width="0.5" stroke-linecap="square" stroke-miterlimit="1"  points="26.74 -17.45 26.19 -18.28 25.6 -19.09 24.99 -19.88 25.2 -21.36 26.88 -22.79 28.44 -22.62 29.13 -21.72 29.8 -20.8 30.43 -19.86 "/><polyline fill="none" stroke="#444" stroke-width="0.5" stroke-linecap="square" stroke-miterlimit="1"  points="29.7 -16.83 31.18 -16.41 32.67 -15.91 33.15 -14.88 32.58 -13.42 29.53 -12.16 "/><polyline fill="none" stroke="#444" stroke-width="0.5" stroke-linecap="square" stroke-miterlimit="1"  points="27.78 -15.75 33.53 -19 "/><polyline fill="none" stroke="#444" stroke-width="0.5" stroke-linecap="square" stroke-miterlimit="1"  points="31.46 -5.46 31.62 -4.48 31.74 -3.49 31.84 -2.49 33 -1.55 37.4 -1.75 38.42 -3.01 38.31 -4.21 38.16 -5.4 37.97 -6.59 "/><polyline fill="none" stroke="#444" stroke-width="0.5" stroke-linecap="square" stroke-miterlimit="1"  points="38.16 -5.4 31.62 -4.48 "/><polyline fill="none" stroke="#444" stroke-width="0.5" stroke-linecap="square" stroke-miterlimit="1"  points="35.98 5.09 36.12 3.97 36.23 2.84 36.3 1.7 36.33 0.57 "/><polyline fill="none" stroke="#444" stroke-width="0.5" stroke-linecap="square" stroke-miterlimit="1"  points="33.8 4.78 33.93 3.73 34.03 2.66 34.1 1.6 34.13 0.53 "/><polyline fill="none" stroke="#444" stroke-width="0.5" stroke-linecap="square" stroke-miterlimit="1"  points="36.67 7.55 37.49 8.95 31.06 7.42 "/><polyline fill="none" stroke="#444" stroke-width="0.5" stroke-linecap="square" stroke-miterlimit="1"  points="30.81 8.38 31.06 7.42 31.28 6.44 "/><polyline fill="none" stroke="#444" stroke-width="0.5" stroke-linecap="square" stroke-miterlimit="1"  points="31.27 10.65 30.23 10.29 "/><polyline fill="none" stroke="#444" stroke-width="0.5" stroke-linecap="square" stroke-miterlimit="1"  points="33.53 19 34.11 17.95 34.65 16.87 35.16 15.78 35.64 14.68 33.6 13.84 33.15 14.88 32.67 15.91 32.16 16.92 30.66 17.38 28.74 16.29 28.26 14.87 28.71 13.98 29.13 13.08 30.55 12.58 "/><polyline fill="none" stroke="#444" stroke-width="0.5" stroke-linecap="square" stroke-miterlimit="1"  points="26.16 23.61 25.4 24.42 24.63 25.2 23.83 25.96 23.73 27.52 24.45 28.36 26.06 28.39 26.94 27.56 27.79 26.71 28.61 25.83 23.7 21.4 "/><polyline fill="none" stroke="#444" stroke-width="0.5" stroke-linecap="square" stroke-miterlimit="1"  points="18.18 31.46 19.15 30.88 20.11 30.27 21.05 29.62 21.96 28.95 "/><polyline fill="none" stroke="#444" stroke-width="0.5" stroke-linecap="square" stroke-miterlimit="1"  points="17.08 29.56 17.99 29.01 18.89 28.43 19.77 27.83 20.63 27.2 "/><polyline fill="none" stroke="#444" stroke-width="0.5" stroke-linecap="square" stroke-miterlimit="1"  points="11.27 32.22 12.27 31.86 13.26 31.46 14.24 31.03 15.2 30.57 14.85 32.36 14.4 34.16 13.85 35.97 11.48 29.8 "/><polyline fill="none" stroke="#444" stroke-width="0.5" stroke-linecap="square" stroke-miterlimit="1"  points="4.14 34.99 3.04 35.11 1.94 35.18 0.84 35.23 -0.27 36.34 -0.27 37.44 0.92 38.53 2.13 38.48 3.33 38.4 4.52 38.28 3.75 31.71 "/><polyline fill="none" stroke="#444" stroke-width="0.5" stroke-linecap="square" stroke-miterlimit="1"  points="-2.23 31.86 -2.38 34.05 -3.67 36.15 -5.09 38.2 -5.92 35.85 -6.61 33.49 -6.18 31.33 "/><polyline fill="none" stroke="#444" stroke-width="0.5" stroke-linecap="square" stroke-miterlimit="1"  points="-2.38 34.05 -3.44 33.96 -4.5 33.84 -5.56 33.68 -6.61 33.49 "/><polyline fill="none" stroke="#444" stroke-width="0.5" stroke-linecap="square" stroke-miterlimit="1"  points="-13.56 33.72 -12.5 34.12 -11.43 34.5 -10.34 34.84 -9.25 35.14 "/><polyline fill="none" stroke="#444" stroke-width="0.5" stroke-linecap="square" stroke-miterlimit="1"  points="-12.74 31.67 -11.74 32.05 -10.73 32.41 -9.72 32.73 -8.69 33.01 "/><polyline fill="none" stroke="#444" stroke-width="0.5" stroke-linecap="square" stroke-miterlimit="1"  points="-17.23 26.89 -16.38 27.41 -15.52 27.91 -14.64 28.38 -13.74 28.83 -14.69 30.81 -16.15 31.32 -17.12 30.8 -18.07 30.25 -19.6 30.6 -20.2 31.52 -19.77 33.09 -18.73 33.69 -17.66 34.26 -16.11 33.8 "/><polyline fill="none" stroke="#444" stroke-width="0.5" stroke-linecap="square" stroke-miterlimit="1"  points="-21.93 24.7 -20.45 24.53 -19.67 25.16 -19.52 26.65 -22.13 30.2 -23.74 30.36 -24.68 29.61 -24.86 28 -21.93 24.7 "/></g></g><g class="guides gearguides" opacity="0.2"><circle class="pitch" fill="none" stroke="#f00" stroke-miterlimit="10" cx="0" cy="0" r="75"/><circle class="outer" fill="none" stroke="#ccc" stroke-miterlimit="10" stroke-dasharray="2,2" cx="0" cy="0" r="100"/><circle class="base" fill="none" stroke="#00f" stroke-miterlimit="10" stroke-dasharray="2,2" cx="0" cy="0" r="70.48"/></g></g><g transform="translate(775,400) rotate(-20520.478)"><path id="gearpoly2" data-id="2" class="gear" fill="#ddd" stroke="#444" stroke-width="1" stroke-miterlimit="10" d="M158.75,0 176.219,0 176.338,-0.004 176.553,-0.015 176.862,-0.039 177.265,-0.079 177.763,-0.14 178.353,-0.227 179.035,-0.343 179.807,-0.494 180.669,-0.682 181.62,-0.914 182.656,-1.192 183.778,-1.521 184.983,-1.904 186.268,-2.347 187.632,-2.853 189.073,-3.426 190.588,-4.069 192.175,-4.787 193.83,-5.582 195.552,-6.46 197.336,-7.422 199.181,-8.473 201.082,-9.616 203.037,-10.853 205.042,-12.189 207.094,-13.626 209.188,-15.166 211.322,-16.814 211.591,-17.027 211.726,-17.135 211.793,-17.188 211.802,-17.195 211.803,-17.198 209.998,-32.516 209.995,-32.519 209.986,-32.523 209.908,-32.56 209.751,-32.633 209.44,-32.778 206.982,-33.884 204.587,-34.896 202.257,-35.816 199.997,-36.649 197.808,-37.398 195.693,-38.068 193.654,-38.661 191.695,-39.182 189.817,-39.635 188.022,-40.024 186.312,-40.353 184.689,-40.627 183.154,-40.849 181.71,-41.023 180.356,-41.155 179.096,-41.248 177.928,-41.307 176.855,-41.337 175.877,-41.341 174.995,-41.324 174.208,-41.291 173.518,-41.245 172.924,-41.192 172.426,-41.136 172.025,-41.081 171.718,-41.033 171.507,-40.994 171.39,-40.97 154.4,-36.908 145.025,-64.569 160.984,-71.675 161.092,-71.727 161.283,-71.825 161.556,-71.972 161.908,-72.173 162.337,-72.431 162.841,-72.75 163.417,-73.134 164.061,-73.585 164.772,-74.108 165.546,-74.706 166.38,-75.382 167.271,-76.138 168.215,-76.979 169.21,-77.906 170.25,-78.923 171.334,-80.033 172.456,-81.236 173.613,-82.537 174.802,-83.938 176.018,-85.439 177.257,-87.044 178.514,-88.755 179.787,-90.572 181.069,-92.498 182.358,-94.533 183.647,-96.68 184.934,-98.94 186.213,-101.312 186.372,-101.617 186.452,-101.77 186.491,-101.846 186.496,-101.856 186.496,-101.859 178.617,-115.118 178.614,-115.12 178.603,-115.12 178.517,-115.122 178.344,-115.125 178.001,-115.131 175.305,-115.142 172.706,-115.092 170.204,-114.985 167.8,-114.827 165.495,-114.621 163.291,-114.372 161.187,-114.085 159.185,-113.764 157.285,-113.414 155.487,-113.039 153.791,-112.644 152.197,-112.234 150.705,-111.813 149.314,-111.385 148.024,-110.955 146.835,-110.527 145.744,-110.106 144.752,-109.697 143.857,-109.302 143.058,-108.928 142.353,-108.578 141.741,-108.256 141.22,-107.966 140.788,-107.712 140.443,-107.499 140.183,-107.329 140.006,-107.208 139.909,-107.138 126.039,-96.518 106.224,-117.974 117.913,-130.957 117.99,-131.048 118.125,-131.215 118.315,-131.46 118.555,-131.787 118.842,-132.197 119.172,-132.694 119.542,-133.278 119.948,-133.953 120.384,-134.72 120.848,-135.581 121.335,-136.538 121.841,-137.591 122.362,-138.743 122.893,-139.995 123.43,-141.347 123.969,-142.801 124.505,-144.357 125.033,-146.017 125.549,-147.779 126.049,-149.645 126.528,-151.616 126.981,-153.69 127.404,-155.867 127.793,-158.148 128.142,-160.532 128.447,-163.018 128.703,-165.605 128.907,-168.293 128.928,-168.636 128.939,-168.808 128.944,-168.894 128.944,-168.905 128.943,-168.908 116.352,-177.816 116.348,-177.816 116.338,-177.812 116.259,-177.779 116.1,-177.711 115.784,-177.577 113.317,-176.49 110.963,-175.387 108.72,-174.272 106.588,-173.15 104.567,-172.024 102.654,-170.9 100.849,-169.782 99.151,-168.675 97.558,-167.582 96.067,-166.509 94.679,-165.458 93.389,-164.435 92.198,-163.443 91.101,-162.487 90.098,-161.569 89.185,-160.695 88.36,-159.867 87.62,-159.089 86.963,-158.365 86.385,-157.698 85.883,-157.091 85.455,-156.548 85.097,-156.071 84.806,-155.663 84.577,-155.328 84.409,-155.068 84.296,-154.885 84.236,-154.782 75.885,-139.438 49.056,-150.98 54.454,-167.595 54.488,-167.709 54.543,-167.916 54.616,-168.218 54.703,-168.614 54.798,-169.106 54.898,-169.694 54.998,-170.378 55.094,-171.159 55.181,-172.038 55.255,-173.013 55.311,-174.085 55.344,-175.253 55.352,-176.517 55.328,-177.877 55.268,-179.331 55.169,-180.878 55.025,-182.518 54.833,-184.248 54.588,-186.068 54.285,-187.977 53.921,-189.971 53.492,-192.05 52.993,-194.212 52.42,-196.454 51.769,-198.773 51.037,-201.168 50.219,-203.636 49.311,-206.174 49.191,-206.497 49.131,-206.658 49.1,-206.739 49.097,-206.749 49.094,-206.751 33.968,-209.767 33.965,-209.766 33.958,-209.759 33.899,-209.696 33.781,-209.57 33.547,-209.318 31.735,-207.322 30.033,-205.357 28.438,-203.426 26.947,-201.533 25.558,-199.683 24.268,-197.878 23.074,-196.123 21.973,-194.421 20.961,-192.774 20.037,-191.187 19.195,-189.663 18.434,-188.204 17.748,-186.813 17.136,-185.493 16.592,-184.247 16.114,-183.077 15.697,-181.985 15.338,-180.973 15.032,-180.044 14.775,-179.2 14.564,-178.442 14.394,-177.771 14.26,-177.19 14.16,-176.699 14.088,-176.3 14.04,-175.994 14.011,-175.781 13.998,-175.662 12.61,-158.248 -16.594,-157.88 -18.42,-175.254 -18.436,-175.372 -18.47,-175.584 -18.526,-175.889 -18.608,-176.286 -18.721,-176.774 -18.869,-177.352 -19.056,-178.018 -19.286,-178.771 -19.564,-179.608 -19.893,-180.529 -20.278,-181.531 -20.722,-182.612 -21.23,-183.77 -21.805,-185.002 -22.45,-186.306 -23.17,-187.679 -23.969,-189.119 -24.848,-190.622 -25.812,-192.185 -26.865,-193.805 -28.009,-195.479 -29.247,-197.204 -30.582,-198.975 -32.017,-200.79 -33.555,-202.645 -35.198,-204.535 -36.949,-206.457 -38.811,-208.406 -39.051,-208.652 -39.172,-208.775 -39.233,-208.836 -39.24,-208.844 -39.244,-208.845 -54.288,-205.448 -54.291,-205.446 -54.295,-205.436 -54.323,-205.354 -54.379,-205.191 -54.491,-204.866 -55.334,-202.306 -56.09,-199.818 -56.761,-197.406 -57.354,-195.07 -57.87,-192.815 -58.314,-190.641 -58.691,-188.552 -59.005,-186.549 -59.259,-184.634 -59.458,-182.808 -59.607,-181.073 -59.709,-179.43 -59.77,-177.881 -59.792,-176.426 -59.782,-175.067 -59.743,-173.803 -59.68,-172.636 -59.597,-171.566 -59.499,-170.593 -59.389,-169.717 -59.274,-168.938 -59.157,-168.256 -59.042,-167.671 -58.934,-167.182 -58.838,-166.788 -58.757,-166.489 -58.697,-166.283 -58.66,-166.169 -52.845,-149.696 -79.375,-137.482 -88.11,-152.61 -88.173,-152.712 -88.29,-152.892 -88.465,-153.147 -88.701,-153.477 -89.003,-153.877 -89.373,-154.344 -89.815,-154.877 -90.331,-155.471 -90.926,-156.123 -91.601,-156.83 -92.36,-157.589 -93.206,-158.396 -94.141,-159.247 -95.167,-160.139 -96.287,-161.068 -97.503,-162.029 -98.818,-163.02 -100.233,-164.035 -101.749,-165.071 -103.37,-166.123 -105.096,-167.187 -106.928,-168.259 -108.868,-169.334 -110.918,-170.409 -113.077,-171.477 -115.347,-172.535 -117.729,-173.579 -120.222,-174.603 -120.541,-174.729 -120.702,-174.792 -120.782,-174.824 -120.792,-174.828 -120.796,-174.828 -133.158,-165.605 -133.16,-165.602 -133.159,-165.591 -133.152,-165.505 -133.137,-165.334 -133.107,-164.991 -132.836,-162.31 -132.514,-159.729 -132.146,-157.252 -131.737,-154.878 -131.292,-152.607 -130.814,-150.441 -130.308,-148.379 -129.78,-146.422 -129.233,-144.568 -128.673,-142.819 -128.103,-141.174 -127.528,-139.632 -126.953,-138.192 -126.382,-136.854 -125.82,-135.616 -125.27,-134.477 -124.737,-133.437 -124.226,-132.493 -123.741,-131.644 -123.285,-130.888 -122.863,-130.224 -122.478,-129.649 -122.136,-129.161 -121.838,-128.758 -121.59,-128.437 -121.394,-128.196 -121.255,-128.033 -121.176,-127.944 -109.164,-115.26 -128.431,-93.311 -142.565,-103.579 -142.663,-103.646 -142.843,-103.763 -143.107,-103.925 -143.457,-104.13 -143.896,-104.373 -144.424,-104.649 -145.044,-104.956 -145.757,-105.289 -146.566,-105.643 -147.47,-106.014 -148.473,-106.399 -149.573,-106.792 -150.773,-107.189 -152.074,-107.587 -153.475,-107.979 -154.977,-108.363 -156.581,-108.733 -158.286,-109.085 -160.093,-109.414 -162.001,-109.716 -164.011,-109.987 -166.121,-110.221 -168.331,-110.414 -170.64,-110.562 -173.047,-110.66 -175.551,-110.703 -178.151,-110.688 -180.846,-110.609 -181.189,-110.595 -181.361,-110.587 -181.447,-110.583 -181.458,-110.583 -181.461,-110.581 -189.004,-97.128 -189.004,-97.124 -188.999,-97.115 -188.957,-97.039 -188.874,-96.888 -188.707,-96.588 -187.369,-94.248 -186.025,-92.022 -184.682,-89.908 -183.342,-87.905 -182.012,-86.013 -180.694,-84.228 -179.394,-82.55 -178.115,-80.977 -176.862,-79.506 -175.638,-78.136 -174.448,-76.865 -173.296,-75.69 -172.185,-74.608 -171.119,-73.618 -170.102,-72.716 -169.137,-71.899 -168.227,-71.165 -167.376,-70.511 -166.587,-69.933 -165.863,-69.428 -165.208,-68.992 -164.622,-68.623 -164.111,-68.317 -163.675,-68.07 -163.318,-67.878 -163.041,-67.738 -162.848,-67.645 -162.739,-67.596 -146.606,-60.894 -155.281,-33.006 -172.368,-36.638 -172.486,-36.659 -172.698,-36.692 -173.005,-36.734 -173.408,-36.778 -173.907,-36.822 -174.502,-36.859 -175.194,-36.887 -175.981,-36.901 -176.863,-36.896 -177.841,-36.867 -178.913,-36.811 -180.078,-36.722 -181.336,-36.597 -182.686,-36.431 -184.125,-36.22 -185.654,-35.96 -187.269,-35.645 -188.97,-35.273 -190.755,-34.839 -192.621,-34.339 -194.567,-33.769 -196.59,-33.124 -198.687,-32.402 -200.857,-31.598 -203.096,-30.708 -205.401,-29.729 -207.77,-28.658 -210.199,-27.49 -210.507,-27.337 -210.661,-27.26 -210.739,-27.221 -210.748,-27.217 -210.75,-27.214 -212.169,-11.856 -212.168,-11.852 -212.159,-11.846 -212.09,-11.794 -211.953,-11.69 -211.678,-11.483 -209.504,-9.89 -207.371,-8.403 -205.284,-7.018 -203.246,-5.734 -201.261,-4.546 -199.331,-3.451 -197.461,-2.447 -195.652,-1.53 -193.909,-0.696 -192.234,0.058 -190.63,0.735 -189.1,1.34 -187.645,1.876 -186.268,2.347 -184.972,2.758 -183.758,3.111 -182.628,3.411 -181.585,3.663 -180.629,3.87 -179.763,4.037 -178.986,4.168 -178.302,4.267 -177.71,4.339 -177.211,4.388 -176.807,4.418 -176.497,4.434 -176.283,4.44 -176.163,4.44 -158.7,4 -155.281,33.006 -172.368,36.638 -172.484,36.667 -172.691,36.722 -172.989,36.81 -173.375,36.933 -173.849,37.096 -174.408,37.304 -175.051,37.559 -175.775,37.867 -176.579,38.231 -177.461,38.655 -178.417,39.142 -179.446,39.697 -180.544,40.323 -181.71,41.023 -182.939,41.802 -184.229,42.661 -185.577,43.606 -186.98,44.637 -188.434,45.76 -189.935,46.976 -191.481,48.288 -193.067,49.7 -194.689,51.213 -196.344,52.83 -198.027,54.553 -199.735,56.385 -201.463,58.328 -203.208,60.382 -203.427,60.647 -203.536,60.78 -203.591,60.847 -203.598,60.855 -203.599,60.859 -198.648,75.466 -198.646,75.469 -198.635,75.471 -198.551,75.491 -198.383,75.53 -198.048,75.607 -195.414,76.178 -192.861,76.669 -190.391,77.085 -188.007,77.43 -185.71,77.708 -183.502,77.922 -181.384,78.079 -179.359,78.181 -177.428,78.234 -175.591,78.241 -173.85,78.208 -172.206,78.138 -170.659,78.036 -169.21,77.906 -167.859,77.754 -166.606,77.583 -165.452,77.398 -164.396,77.204 -163.439,77.004 -162.579,76.804 -161.817,76.608 -161.151,76.42 -160.581,76.245 -160.106,76.087 -159.724,75.95 -159.435,75.838 -159.236,75.756 -159.127,75.708 -143.352,68.203 -128.431,93.311 -142.564,103.579 -142.658,103.652 -142.825,103.788 -143.061,103.988 -143.364,104.258 -143.73,104.6 -144.157,105.017 -144.64,105.512 -145.177,106.088 -145.763,106.747 -146.396,107.493 -147.072,108.327 -147.786,109.252 -148.535,110.271 -149.314,111.385 -150.121,112.596 -150.95,113.906 -151.797,115.317 -152.659,116.83 -153.531,118.447 -154.408,120.168 -155.286,121.996 -156.16,123.93 -157.027,125.972 -157.881,128.123 -158.718,130.382 -159.533,132.75 -160.322,135.228 -161.08,137.814 -161.172,138.145 -161.218,138.311 -161.241,138.395 -161.244,138.405 -161.243,138.408 -150.779,149.739 -150.776,149.74 -150.765,149.738 -150.681,149.722 -150.511,149.69 -150.174,149.624 -147.535,149.074 -145.003,148.484 -142.577,147.86 -140.259,147.205 -138.048,146.524 -135.943,145.823 -133.945,145.104 -132.054,144.374 -130.268,143.637 -128.587,142.896 -127.01,142.158 -125.537,141.425 -124.165,140.703 -122.893,139.995 -121.721,139.306 -120.646,138.64 -119.667,138.002 -118.782,137.395 -117.988,136.824 -117.284,136.291 -116.668,135.802 -116.136,135.359 -115.686,134.967 -115.317,134.63 -115.024,134.349 -114.805,134.13 -114.657,133.974 -114.576,133.886 -103.218,120.614 -79.375,137.482 -88.109,152.61 -88.166,152.716 -88.263,152.907 -88.397,153.186 -88.564,153.556 -88.76,154.017 -88.98,154.571 -89.22,155.22 -89.476,155.965 -89.744,156.806 -90.019,157.744 -90.296,158.781 -90.572,159.917 -90.842,161.152 -91.101,162.487 -91.345,163.921 -91.57,165.455 -91.77,167.089 -91.942,168.822 -92.081,170.653 -92.182,172.582 -92.24,174.609 -92.253,176.732 -92.214,178.95 -92.119,181.262 -91.965,183.666 -91.747,186.161 -91.46,188.745 -91.1,191.417 -91.049,191.757 -91.024,191.927 -91.011,192.012 -91.009,192.023 -91.007,192.026 -76.839,198.121 -76.836,198.121 -76.827,198.115 -76.756,198.065 -76.615,197.967 -76.333,197.769 -74.146,196.194 -72.073,194.625 -70.111,193.068 -68.259,191.527 -66.516,190.006 -64.879,188.509 -63.346,187.04 -61.915,185.604 -60.583,184.204 -59.349,182.844 -58.209,181.527 -57.161,180.258 -56.201,179.04 -55.328,177.877 -54.537,176.771 -53.826,175.726 -53.191,174.744 -52.629,173.83 -52.136,172.985 -51.71,172.212 -51.346,171.514 -51.04,170.894 -50.789,170.353 -50.588,169.894 -50.435,169.518 -50.324,169.229 -50.252,169.027 -50.214,168.913 -45.236,152.168 -16.594,157.88 -18.42,175.254 -18.428,175.373 -18.439,175.587 -18.448,175.897 -18.45,176.303 -18.442,176.804 -18.417,177.399 -18.373,178.09 -18.304,178.874 -18.206,179.751 -18.076,180.72 -17.908,181.78 -17.698,182.93 -17.442,184.168 -17.136,185.493 -16.775,186.903 -16.357,188.396 -15.875,189.969 -15.327,191.622 -14.709,193.352 -14.016,195.156 -13.246,197.031 -12.393,198.975 -11.456,200.986 -10.429,203.059 -9.31,205.193 -8.096,207.383 -6.783,209.627 -5.368,211.921 -5.183,212.212 -5.091,212.357 -5.044,212.43 -5.038,212.439 -5.035,212.44 10.387,212.246 10.39,212.244 10.396,212.235 10.44,212.161 10.529,212.014 10.706,211.719 12.063,209.39 13.319,207.114 14.478,204.893 15.543,202.732 16.517,200.633 17.404,198.6 18.207,196.635 18.93,194.74 19.577,192.92 20.151,191.175 20.657,189.509 21.099,187.924 21.48,186.421 21.805,185.002 22.077,183.67 22.302,182.426 22.483,181.271 22.624,180.207 22.73,179.235 22.806,178.356 22.855,177.57 22.882,176.879 22.891,176.283 22.887,175.782 22.875,175.376 22.858,175.067 22.842,174.853 22.83,174.734 20.567,157.412 49.056,150.98 54.455,167.594 54.495,167.707 54.572,167.907 54.69,168.194 54.853,168.565 55.065,169.019 55.33,169.553 55.651,170.166 56.033,170.854 56.479,171.616 56.993,172.448 57.577,173.348 58.237,174.313 58.974,175.34 59.792,176.426 60.695,177.567 61.685,178.761 62.765,180.003 63.938,181.29 65.206,182.618 66.572,183.984 68.039,185.384 69.609,186.814 71.283,188.269 73.064,189.746 74.954,191.24 76.954,192.747 79.067,194.263 81.293,195.783 81.579,195.973 81.723,196.068 81.795,196.116 81.804,196.122 81.807,196.122 95.817,189.672 95.819,189.669 95.821,189.658 95.831,189.572 95.853,189.401 95.894,189.06 96.187,186.381 96.409,183.79 96.564,181.29 96.658,178.883 96.694,176.57 96.677,174.351 96.611,172.229 96.501,170.205 96.352,168.278 96.167,166.451 95.952,164.723 95.71,163.095 95.447,161.567 95.167,160.139 94.874,158.811 94.573,157.584 94.269,156.455 93.965,155.426 93.667,154.494 93.378,153.66 93.103,152.923 92.847,152.28 92.613,151.732 92.406,151.276 92.229,150.91 92.088,150.634 91.986,150.445 91.927,150.342 82.814,135.438 106.224,117.974 117.914,130.956 117.996,131.042 118.148,131.194 118.373,131.408 118.673,131.681 119.051,132.009 119.51,132.39 120.053,132.819 120.681,133.292 121.399,133.807 122.206,134.358 123.107,134.943 124.102,135.556 125.193,136.195 126.382,136.854 127.671,137.529 129.06,138.217 130.552,138.912 132.147,139.611 133.846,140.309 135.65,141.001 137.559,141.683 139.575,142.351 141.696,142.999 143.924,143.624 146.258,144.22 148.699,144.783 151.245,145.309 153.897,145.792 154.236,145.849 154.406,145.878 154.491,145.892 154.501,145.893 154.505,145.892 164.68,134.301 164.68,134.298 164.677,134.288 164.652,134.205 164.602,134.04 164.502,133.711 163.679,131.145 162.828,128.688 161.953,126.341 161.059,124.104 160.151,121.975 159.234,119.956 158.311,118.044 157.387,116.239 156.467,114.54 155.555,112.946 154.655,111.455 153.772,110.066 152.91,108.777 152.074,107.587 151.266,106.493 150.492,105.493 149.755,104.586 149.059,103.769 148.407,103.04 147.804,102.395 147.253,101.833 146.757,101.351 146.321,100.945 145.946,100.612 145.636,100.35 145.395,100.156 145.225,100.025 145.129,99.954 130.742,90.045 145.025,64.569 160.984,71.675 161.095,71.72 161.295,71.796 161.587,71.901 161.972,72.028 162.451,72.174 163.026,72.335 163.696,72.506 164.463,72.683 165.327,72.861 166.289,73.037 167.35,73.204 168.508,73.36 169.765,73.499 171.119,73.618 172.571,73.711 174.12,73.774 175.766,73.802 177.507,73.792 179.343,73.738 181.273,73.637 183.294,73.483 185.407,73.274 187.609,73.003 189.898,72.668 192.273,72.263 194.732,71.785 197.272,71.229 199.891,70.592 200.223,70.507 200.39,70.463 200.474,70.442 200.484,70.439 200.487,70.437 205.068,55.709 205.067,55.706 205.06,55.697 205.003,55.632 204.891,55.502 204.665,55.243 202.869,53.232 201.093,51.334 199.339,49.546 197.613,47.865 195.917,46.291 194.258,44.819 192.637,43.448 191.059,42.175 189.527,40.997 188.046,39.911 186.617,38.915 185.246,38.005 183.934,37.178 182.686,36.431 181.503,35.76 180.389,35.162 179.347,34.634 178.379,34.17 177.487,33.769 176.674,33.426 175.942,33.136 175.293,32.897 174.729,32.704 174.251,32.552 173.862,32.439 173.562,32.359 173.353,32.309 173.237,32.283 156.063,29.083 z"/><g class="guides"><polyline fill="none" stroke="#444" stroke-width="0.5" stroke-miterlimit="10" points="10,0 -10,0"/><polyline fill="none" stroke="#444" stroke-width="0.5" stroke-miterlimit="10" points="0,10 0,-10"/></g><circle fill="#c00" class="firstmarker" stroke="none" stroke-miterlimit="10" cx="186.211" cy="-21.947" r="9.813"/><g class="geartext"><g class="text"><polyline fill="none" stroke="#444" stroke-width="0.5" stroke-linecap="square" stroke-miterlimit="1"  points="-29.98 -125.21 -32.89 -124.48 -35.78 -123.68 -38.65 -122.81 -41.51 -121.88 "/><polyline fill="none" stroke="#444" stroke-width="0.5" stroke-linecap="square" stroke-miterlimit="1"  points="-34.12 -117.91 -37.45 -129.44 "/><polyline fill="none" stroke="#444" stroke-width="0.5" stroke-linecap="square" stroke-miterlimit="1"  points="-31.38 -131.05 -33.66 -127.38 -35.78 -123.68 -37.75 -119.95 -39.57 -116.2 "/><polyline fill="none" stroke="#444" stroke-width="0.5" stroke-linecap="square" stroke-miterlimit="1"  points="-28.58 -119.38 -32.12 -121.58 -35.78 -123.68 -39.56 -125.67 -43.44 -127.56 "/><polyline fill="none" stroke="#444" stroke-width="0.5" stroke-linecap="square" stroke-miterlimit="1"  points="-11.39 -119.21 -14.16 -118.91 -16.93 -118.55 -19.68 -118.12 -22.43 -117.63 -23.55 -123.52 -21.16 -127 -18.2 -127.46 -15.22 -127.85 -12.53 -131.15 -12.81 -134.14 -16.29 -136.78 -19.47 -136.37 -22.64 -135.88 -25.24 -132.36 "/><polyline fill="none" stroke="#444" stroke-width="0.5" stroke-linecap="square" stroke-miterlimit="1"  points="22.09 -135.97 19.21 -118.2 17.07 -123.07 14.71 -127.91 12.13 -132.7 9.34 -137.43 8.12 -119.47 "/><polyline fill="none" stroke="#444" stroke-width="0.5" stroke-linecap="square" stroke-miterlimit="1"  points="39.05 -125.83 36.1 -126.71 33.14 -127.51 30.16 -128.25 27.17 -128.92 "/><polyline fill="none" stroke="#444" stroke-width="0.5" stroke-linecap="square" stroke-miterlimit="1"  points="37.27 -120.1 34.46 -120.94 31.63 -121.71 28.79 -122.41 25.93 -123.05 "/><polyline fill="none" stroke="#444" stroke-width="0.5" stroke-linecap="square" stroke-miterlimit="1"  points="45.89 -126.7 49.91 -128.39 43.39 -111.61 "/><polyline fill="none" stroke="#444" stroke-width="0.5" stroke-linecap="square" stroke-miterlimit="1"  points="45.98 -110.57 43.39 -111.61 40.78 -112.59 "/><polyline fill="none" stroke="#444" stroke-width="0.5" stroke-linecap="square" stroke-miterlimit="1"  points="70.1 -118.58 67.32 -120.18 64.5 -121.72 61.65 -123.19 58.76 -124.59 56.2 -119.16 58.96 -117.82 61.69 -116.41 64.39 -114.95 65.52 -110.83 62.47 -105.67 58.52 -104.48 56.07 -105.81 53.59 -107.09 52.36 -111.02 "/><polyline fill="none" stroke="#444" stroke-width="0.5" stroke-linecap="square" stroke-miterlimit="1"  points="82.65 -98.72 84.93 -96.77 87.16 -94.76 89.34 -92.71 93.61 -92.71 95.74 -94.82 95.59 -99.19 93.25 -101.39 90.86 -103.53 88.43 -105.62 76.87 -91.82 "/><polyline fill="none" stroke="#444" stroke-width="0.5" stroke-linecap="square" stroke-miterlimit="1"  points="88.92 -80.21 97.83 -88.25 "/><polyline fill="none" stroke="#444" stroke-width="0.5" stroke-linecap="square" stroke-miterlimit="1"  points="100.05 -90.26 102.28 -92.27 "/><polyline fill="none" stroke="#444" stroke-width="0.5" stroke-linecap="square" stroke-miterlimit="1"  points="101.71 -68.72 97.64 -69.33 98.4 -73.38 110.42 -82.35 "/><polyline fill="none" stroke="#444" stroke-width="0.5" stroke-linecap="square" stroke-miterlimit="1"  points="109.17 -73.76 107.42 -76.28 105.61 -78.76 103.75 -81.2 101.83 -83.6 "/><polyline fill="none" stroke="#444" stroke-width="0.5" stroke-linecap="square" stroke-miterlimit="1"  points="107.6 -52.56 106.35 -55.05 105.03 -57.51 103.67 -59.94 104.8 -63.91 109.93 -67.03 114.05 -65.95 115.56 -63.28 117 -60.57 118.38 -57.82 "/><polyline fill="none" stroke="#444" stroke-width="0.5" stroke-linecap="square" stroke-miterlimit="1"  points="115.44 -49.87 119.35 -48.29 123.25 -46.56 124.3 -43.67 122.43 -39.84 113.87 -37.05 "/><polyline fill="none" stroke="#444" stroke-width="0.5" stroke-linecap="square" stroke-miterlimit="1"  points="109.93 -47.49 126.46 -54.63 "/><polyline fill="none" stroke="#444" stroke-width="0.5" stroke-linecap="square" stroke-miterlimit="1"  points="118.38 -18.07 118.77 -15.3 119.09 -12.53 119.35 -9.76 122.54 -7.15 134.52 -7.85 137.29 -11.22 136.99 -14.42 136.62 -17.61 136.17 -20.78 "/><polyline fill="none" stroke="#444" stroke-width="0.5" stroke-linecap="square" stroke-miterlimit="1"  points="136.62 -17.61 118.77 -15.3 "/><polyline fill="none" stroke="#444" stroke-width="0.5" stroke-linecap="square" stroke-miterlimit="1"  points="131.31 10.73 131.53 7.67 131.67 4.6 131.74 1.53 131.74 -1.53 "/><polyline fill="none" stroke="#444" stroke-width="0.5" stroke-linecap="square" stroke-miterlimit="1"  points="125.33 10.24 125.54 7.32 125.67 4.39 125.74 1.47 125.74 -1.47 "/><polyline fill="none" stroke="#444" stroke-width="0.5" stroke-linecap="square" stroke-miterlimit="1"  points="133.64 17.22 136.17 20.78 135.65 23.95 135.06 27.1 131.46 29.59 128.54 28.93 126.23 25.33 122.68 27.61 119.75 26.95 117.41 23.56 117.93 20.82 118.38 18.07 121.74 15.69 "/><polyline fill="none" stroke="#444" stroke-width="0.5" stroke-linecap="square" stroke-miterlimit="1"  points="126.79 22.39 126.23 25.33 "/><polyline fill="none" stroke="#444" stroke-width="0.5" stroke-linecap="square" stroke-miterlimit="1"  points="118.37 32.5 115.48 31.71 "/><polyline fill="none" stroke="#444" stroke-width="0.5" stroke-linecap="square" stroke-miterlimit="1"  points="130.99 42.62 129.96 45.66 128.86 48.68 127.69 51.67 126.46 54.63 119.35 48.29 112.02 42.32 "/><polyline fill="none" stroke="#444" stroke-width="0.5" stroke-linecap="square" stroke-miterlimit="1"  points="117.61 71.71 119.25 68.96 120.82 66.16 122.33 63.33 123.77 60.46 118.38 57.82 117 60.57 115.56 63.28 114.05 65.95 109.93 67.03 104.8 63.91 103.67 59.94 105.03 57.51 106.35 55.05 110.3 53.87 "/><polyline fill="none" stroke="#444" stroke-width="0.5" stroke-linecap="square" stroke-miterlimit="1"  points="97.58 83.99 95.6 86.24 93.56 88.44 91.48 90.6 91.42 94.87 93.51 97.03 97.87 96.93 100.1 94.63 102.28 92.27 104.4 89.86 90.76 78.12 "/><polyline fill="none" stroke="#444" stroke-width="0.5" stroke-linecap="square" stroke-miterlimit="1"  points="77.31 106.68 79.78 104.85 82.2 102.96 84.57 101.02 86.9 99.02 "/><polyline fill="none" stroke="#444" stroke-width="0.5" stroke-linecap="square" stroke-miterlimit="1"  points="73.79 101.82 76.14 100.08 78.45 98.28 80.72 96.42 82.95 94.51 "/><polyline fill="none" stroke="#444" stroke-width="0.5" stroke-linecap="square" stroke-miterlimit="1"  points="58.88 111.11 61.45 109.71 63.99 108.25 66.5 106.73 68.97 105.15 68.61 110.12 68.06 115.14 67.32 120.18 58.52 104.48 "/><polyline fill="none" stroke="#444" stroke-width="0.5" stroke-linecap="square" stroke-miterlimit="1"  points="41.01 122.04 38.16 122.97 35.28 123.82 32.39 124.61 30.16 128.25 30.85 131.17 34.65 133.32 37.75 132.48 40.83 131.56 43.88 130.57 38.15 113.51 "/><polyline fill="none" stroke="#444" stroke-width="0.5" stroke-linecap="square" stroke-miterlimit="1"  points="21.96 117.72 23.06 123.62 21.13 130.04 18.92 136.44 15.05 130.89 11.45 125.23 10.9 119.25 "/><polyline fill="none" stroke="#444" stroke-width="0.5" stroke-linecap="square" stroke-miterlimit="1"  points="23.06 123.62 20.17 124.12 17.27 124.56 14.37 124.93 11.45 125.23 "/><polyline fill="none" stroke="#444" stroke-width="0.5" stroke-linecap="square" stroke-miterlimit="1"  points="-6.4 131.59 -3.34 131.71 -0.27 131.75 2.8 131.72 5.87 131.62 "/><polyline fill="none" stroke="#444" stroke-width="0.5" stroke-linecap="square" stroke-miterlimit="1"  points="-6.11 125.6 -3.18 125.71 -0.25 125.75 2.68 125.72 5.6 125.63 "/><polyline fill="none" stroke="#444" stroke-width="0.5" stroke-linecap="square" stroke-miterlimit="1"  points="-22.43 117.63 -19.68 118.12 -16.93 118.55 -14.16 118.91 -11.39 119.21 -11.96 125.18 -15.22 127.85 -18.2 127.46 -21.16 127 -24.68 129.42 -25.24 132.36 -22.64 135.88 -19.47 136.37 -16.29 136.78 -12.81 134.14 "/><polyline fill="none" stroke="#444" stroke-width="0.5" stroke-linecap="square" stroke-miterlimit="1"  points="-36.85 117.09 -33.28 115.03 -30.59 115.78 -28.58 119.38 -31.38 131.05 -35.19 133.18 -38.28 132.32 -40.46 128.53 -36.85 117.09 "/></g></g><g class="guides gearguides" opacity="0.2"><circle class="pitch" fill="none" stroke="#f00" stroke-miterlimit="10" cx="0" cy="0" r="187.5"/><circle class="outer" fill="none" stroke="#ccc" stroke-miterlimit="10" stroke-dasharray="2,2" cx="0" cy="0" r="212.5"/><circle class="base" fill="none" stroke="#00f" stroke-miterlimit="10" stroke-dasharray="2,2" cx="0" cy="0" r="176.19"/></g></g><g transform="translate(1037.5,400) rotate(51483.53)"><path id="gearpoly3" data-id="3" class="gear" fill="#ddd" stroke="#444" stroke-width="1" stroke-miterlimit="10" d="M46.25,0 70.488,0 70.678,-0.01 71.105,-0.056 71.764,-0.166 72.648,-0.365 73.748,-0.682 75.053,-1.141 76.549,-1.767 78.221,-2.584 80.05,-3.613 82.017,-4.876 84.1,-6.391 86.276,-8.175 88.52,-10.245 90.806,-12.614 93.105,-15.292 95.39,-18.289 97.629,-21.611 97.634,-21.618 97.634,-21.624 94.793,-31.849 94.789,-31.854 94.782,-31.857 91.149,-33.548 87.646,-34.937 84.295,-36.045 81.115,-36.894 78.125,-37.51 75.34,-37.916 72.773,-38.139 70.437,-38.205 68.339,-38.143 66.486,-37.98 64.881,-37.745 63.527,-37.465 62.421,-37.168 61.56,-36.884 60.94,-36.637 60.55,-36.457 60.382,-36.367 39.619,-23.862 23.125,-40.054 35.244,-61.044 35.33,-61.214 35.504,-61.607 35.738,-62.232 36.007,-63.098 36.283,-64.209 36.538,-65.568 36.744,-67.177 36.873,-69.033 36.896,-71.132 36.786,-73.466 36.516,-76.028 36.058,-78.805 35.387,-81.783 34.479,-84.947 33.309,-88.277 31.856,-91.754 30.099,-95.355 30.095,-95.362 30.09,-95.366 19.814,-98.017 19.808,-98.017 19.802,-98.012 16.521,-95.712 13.567,-93.372 10.932,-91.024 8.606,-88.695 6.578,-86.413 4.834,-84.204 3.358,-82.093 2.132,-80.103 1.136,-78.255 0.351,-76.569 -0.247,-75.061 -0.682,-73.748 -0.978,-72.642 -1.162,-71.755 -1.259,-71.094 -1.297,-70.666 -1.304,-70.476 -0.856,-46.242 -23.125,-40.054 -35.244,-61.044 -35.348,-61.204 -35.601,-61.551 -36.025,-62.067 -36.64,-62.732 -37.465,-63.527 -38.515,-64.427 -39.805,-65.41 -41.348,-66.449 -43.154,-67.519 -45.231,-68.591 -47.584,-69.637 -50.218,-70.63 -53.133,-71.538 -56.327,-72.333 -59.796,-72.985 -63.533,-73.465 -67.531,-73.744 -67.539,-73.744 -67.544,-73.741 -74.978,-66.168 -74.981,-66.163 -74.98,-66.155 -74.628,-62.164 -74.079,-58.435 -73.363,-54.979 -72.509,-51.8 -71.547,-48.903 -70.506,-46.288 -69.416,-43.954 -68.305,-41.898 -67.203,-40.112 -66.135,-38.588 -65.129,-37.316 -64.209,-36.283 -63.399,-35.474 -62.722,-34.871 -62.199,-34.457 -61.847,-34.21 -61.686,-34.109 -40.475,-22.38 -46.25,0 -70.488,0 -70.678,0.01 -71.105,0.056 -71.764,0.166 -72.648,0.365 -73.748,0.682 -75.053,1.141 -76.549,1.767 -78.221,2.584 -80.05,3.613 -82.017,4.876 -84.1,6.391 -86.276,8.175 -88.52,10.245 -90.806,12.614 -93.105,15.292 -95.39,18.289 -97.629,21.611 -97.634,21.618 -97.634,21.624 -94.793,31.849 -94.789,31.854 -94.782,31.857 -91.149,33.548 -87.646,34.937 -84.295,36.045 -81.115,36.894 -78.125,37.51 -75.34,37.916 -72.773,38.139 -70.437,38.205 -68.339,38.143 -66.486,37.98 -64.881,37.745 -63.527,37.465 -62.421,37.168 -61.56,36.884 -60.94,36.637 -60.55,36.457 -60.382,36.367 -39.619,23.862 -23.125,40.054 -35.244,61.044 -35.33,61.214 -35.504,61.607 -35.738,62.232 -36.007,63.098 -36.283,64.209 -36.538,65.568 -36.744,67.177 -36.873,69.033 -36.896,71.132 -36.786,73.466 -36.516,76.028 -36.058,78.805 -35.387,81.783 -34.479,84.947 -33.309,88.277 -31.856,91.754 -30.099,95.355 -30.095,95.362 -30.09,95.366 -19.814,98.017 -19.808,98.017 -19.802,98.012 -16.521,95.712 -13.567,93.372 -10.932,91.024 -8.606,88.695 -6.578,86.413 -4.834,84.204 -3.358,82.093 -2.132,80.103 -1.136,78.255 -0.351,76.569 0.247,75.061 0.682,73.748 0.978,72.642 1.162,71.755 1.259,71.094 1.297,70.666 1.304,70.476 0.856,46.242 23.125,40.054 35.244,61.044 35.348,61.204 35.601,61.551 36.025,62.067 36.64,62.732 37.465,63.527 38.515,64.427 39.805,65.41 41.348,66.449 43.154,67.519 45.231,68.591 47.584,69.637 50.218,70.63 53.133,71.538 56.327,72.333 59.796,72.985 63.533,73.465 67.531,73.744 67.539,73.744 67.544,73.741 74.978,66.168 74.981,66.163 74.98,66.155 74.628,62.164 74.079,58.435 73.363,54.979 72.509,51.8 71.547,48.903 70.506,46.288 69.416,43.954 68.305,41.898 67.203,40.112 66.135,38.588 65.129,37.316 64.209,36.283 63.399,35.474 62.722,34.871 62.199,34.457 61.847,34.21 61.686,34.109 40.475,22.38 z"/><g class="guides"><polyline fill="none" stroke="#444" stroke-width="0.5" stroke-miterlimit="10" points="10,0 -10,0"/><polyline fill="none" stroke="#444" stroke-width="0.5" stroke-miterlimit="10" points="0,10 0,-10"/></g><circle fill="#c00" class="firstmarker" stroke="none" stroke-miterlimit="10" cx="72.262" cy="-20.081" r="9.813"/><g class="geartext"><g class="text"><polyline fill="none" stroke="#444" stroke-width="0.5" stroke-linecap="square" stroke-miterlimit="1"  points="-21.7 -27.76 -22.56 -27.07 -23.4 -26.35 -24.21 -25.61 -25 -24.84 "/><polyline fill="none" stroke="#444" stroke-width="0.5" stroke-linecap="square" stroke-miterlimit="1"  points="-21.93 -24.7 -24.86 -28 "/><polyline fill="none" stroke="#444" stroke-width="0.5" stroke-linecap="square" stroke-miterlimit="1"  points="-23.06 -29.5 -23.27 -27.91 -23.4 -26.35 -23.45 -24.81 -23.43 -23.29 "/><polyline fill="none" stroke="#444" stroke-width="0.5" stroke-linecap="square" stroke-miterlimit="1"  points="-20.35 -26.03 -21.86 -26.22 -23.4 -26.35 -24.96 -26.41 -26.56 -26.39 "/><polyline fill="none" stroke="#444" stroke-width="0.5" stroke-linecap="square" stroke-miterlimit="1"  points="-21.17 -30.88 -20.79 -32.45 -19.77 -33.09 -18.73 -33.69 -17.16 -33.28 -16.65 -32.3 -17.12 -30.8 -15.64 -30.34 -15.14 -29.36 -15.52 -27.91 -16.38 -27.41 -17.23 -26.89 -18.68 -27.25 "/><polyline fill="none" stroke="#444" stroke-width="0.5" stroke-linecap="square" stroke-miterlimit="1"  points="-18.07 -30.25 -17.12 -30.8 "/><polyline fill="none" stroke="#444" stroke-width="0.5" stroke-linecap="square" stroke-miterlimit="1"  points="-5.09 -38.2 -4.21 -31.66 -5.47 -33.14 -6.82 -34.57 -8.27 -35.95 -9.81 -37.27 -8.13 -30.88 "/><polyline fill="none" stroke="#444" stroke-width="0.5" stroke-linecap="square" stroke-miterlimit="1"  points="2 -36.28 0.87 -36.33 -0.27 -36.34 -1.4 -36.31 -2.54 -36.25 "/><polyline fill="none" stroke="#444" stroke-width="0.5" stroke-linecap="square" stroke-miterlimit="1"  points="1.88 -34.08 0.82 -34.13 -0.25 -34.14 -1.32 -34.11 -2.38 -34.05 "/><polyline fill="none" stroke="#444" stroke-width="0.5" stroke-linecap="square" stroke-miterlimit="1"  points="4.14 -34.99 5.23 -34.85 6.31 -34.67 7.39 -34.45 8.2 -33.14 7.94 -32.07 6.7 -31.22 5.72 -31.42 4.74 -31.58 3.88 -32.81 4.27 -36.09 5.56 -37.03 6.91 -37.92 8.09 -37.68 "/><polyline fill="none" stroke="#444" stroke-width="0.5" stroke-linecap="square" stroke-miterlimit="1"  points="15.69 -31.55 16.67 -31.05 17.63 -30.51 18.57 -29.95 20.11 -30.27 20.72 -31.19 20.31 -32.75 19.28 -33.37 18.23 -33.96 17.16 -34.51 14.22 -28.59 "/><polyline fill="none" stroke="#444" stroke-width="0.5" stroke-linecap="square" stroke-miterlimit="1"  points="19.3 -25.44 21.96 -28.95 "/><polyline fill="none" stroke="#444" stroke-width="0.5" stroke-linecap="square" stroke-miterlimit="1"  points="22.63 -29.83 23.29 -30.71 "/><polyline fill="none" stroke="#444" stroke-width="0.5" stroke-linecap="square" stroke-miterlimit="1"  points="24.52 -22.14 23.02 -22.13 23.09 -23.63 26.94 -27.56 "/><polyline fill="none" stroke="#444" stroke-width="0.5" stroke-linecap="square" stroke-miterlimit="1"  points="26.97 -24.35 26.2 -25.18 25.4 -25.99 24.57 -26.77 23.73 -27.52 "/><polyline fill="none" stroke="#444" stroke-width="0.5" stroke-linecap="square" stroke-miterlimit="1"  points="27.28 -16.61 26.74 -17.45 26.19 -18.28 25.6 -19.09 25.86 -20.56 27.58 -21.93 29.13 -21.72 29.8 -20.8 30.43 -19.86 31.04 -18.9 "/><polyline fill="none" stroke="#444" stroke-width="0.5" stroke-linecap="square" stroke-miterlimit="1"  points="30.21 -15.9 31.68 -15.43 33.15 -14.88 33.6 -13.84 32.99 -12.39 29.89 -11.23 "/><polyline fill="none" stroke="#444" stroke-width="0.5" stroke-linecap="square" stroke-miterlimit="1"  points="28.26 -14.87 34.11 -17.95 "/><polyline fill="none" stroke="#444" stroke-width="0.5" stroke-linecap="square" stroke-miterlimit="1"  points="31.62 -4.48 31.74 -3.49 31.84 -2.49 31.9 -1.5 33.03 -0.52 37.44 -0.58 38.5 -1.81 38.42 -3.01 38.31 -4.21 38.16 -5.4 "/><polyline fill="none" stroke="#444" stroke-width="0.5" stroke-linecap="square" stroke-miterlimit="1"  points="38.31 -4.21 31.74 -3.49 "/><polyline fill="none" stroke="#444" stroke-width="0.5" stroke-linecap="square" stroke-miterlimit="1"  points="35.8 6.22 35.98 5.09 36.12 3.97 36.23 2.84 36.3 1.7 "/><polyline fill="none" stroke="#444" stroke-width="0.5" stroke-linecap="square" stroke-miterlimit="1"  points="33.63 5.84 33.8 4.78 33.93 3.73 34.03 2.66 34.1 1.6 "/><polyline fill="none" stroke="#444" stroke-width="0.5" stroke-linecap="square" stroke-miterlimit="1"  points="36.42 8.69 37.19 10.12 30.81 8.38 "/><polyline fill="none" stroke="#444" stroke-width="0.5" stroke-linecap="square" stroke-miterlimit="1"  points="30.54 9.34 30.81 8.38 31.06 7.42 "/><polyline fill="none" stroke="#444" stroke-width="0.5" stroke-linecap="square" stroke-miterlimit="1"  points="30.93 11.62 29.89 11.23 "/><polyline fill="none" stroke="#444" stroke-width="0.5" stroke-linecap="square" stroke-miterlimit="1"  points="32.92 20.04 33.53 19 34.11 17.95 34.65 16.87 35.16 15.78 33.15 14.88 32.67 15.91 32.16 16.92 31.61 17.92 30.1 18.32 28.22 17.18 27.78 15.75 28.26 14.87 28.71 13.98 30.14 13.53 "/><polyline fill="none" stroke="#444" stroke-width="0.5" stroke-linecap="square" stroke-miterlimit="1"  points="25.4 24.42 24.63 25.2 23.83 25.96 23.01 26.69 22.85 28.25 23.55 29.11 25.16 29.19 26.06 28.39 26.94 27.56 27.79 26.71 23.02 22.13 "/><polyline fill="none" stroke="#444" stroke-width="0.5" stroke-linecap="square" stroke-miterlimit="1"  points="17.19 32.02 18.18 31.46 19.15 30.88 20.11 30.27 21.05 29.62 "/><polyline fill="none" stroke="#444" stroke-width="0.5" stroke-linecap="square" stroke-miterlimit="1"  points="16.15 30.08 17.08 29.56 17.99 29.01 18.89 28.43 19.77 27.83 "/><polyline fill="none" stroke="#444" stroke-width="0.5" stroke-linecap="square" stroke-miterlimit="1"  points="10.26 32.56 11.27 32.22 12.27 31.86 13.26 31.46 14.24 31.03 13.83 32.81 13.33 34.6 12.72 36.38 10.54 30.14 "/><polyline fill="none" stroke="#444" stroke-width="0.5" stroke-linecap="square" stroke-miterlimit="1"  points="3.04 35.11 1.94 35.18 0.84 35.23 -0.26 35.24 -1.4 36.31 -1.44 37.41 -0.28 38.54 0.92 38.53 2.13 38.48 3.33 38.4 2.76 31.82 "/><polyline fill="none" stroke="#444" stroke-width="0.5" stroke-linecap="square" stroke-miterlimit="1"  points="-3.22 31.77 -3.44 33.96 -4.79 36.02 -6.28 38.03 -7.04 35.65 -7.65 33.27 -7.16 31.12 "/><polyline fill="none" stroke="#444" stroke-width="0.5" stroke-linecap="square" stroke-miterlimit="1"  points="-3.44 33.96 -4.5 33.84 -5.56 33.68 -6.61 33.49 -7.65 33.27 "/><polyline fill="none" stroke="#444" stroke-width="0.5" stroke-linecap="square" stroke-miterlimit="1"  points="-14.6 33.28 -13.56 33.72 -12.5 34.12 -11.43 34.5 -10.34 34.84 "/><polyline fill="none" stroke="#444" stroke-width="0.5" stroke-linecap="square" stroke-miterlimit="1"  points="-13.72 31.26 -12.74 31.67 -11.74 32.05 -10.73 32.41 -9.72 32.73 "/><polyline fill="none" stroke="#444" stroke-width="0.5" stroke-linecap="square" stroke-miterlimit="1"  points="-18.06 26.34 -17.23 26.89 -16.38 27.41 -15.52 27.91 -14.64 28.38 -15.64 30.34 -17.12 30.8 -18.07 30.25 -19.01 29.67 -20.55 29.97 -21.17 30.88 -20.79 32.45 -19.77 33.09 -18.73 33.69 -17.16 33.28 "/><polyline fill="none" stroke="#444" stroke-width="0.5" stroke-linecap="square" stroke-miterlimit="1"  points="-22.69 24.01 -21.2 23.88 -20.45 24.53 -20.35 26.03 -23.06 29.5 -24.68 29.61 -25.59 28.82 -25.72 27.21 -22.69 24.01 "/></g></g><g class="guides gearguides" opacity="0.2"><circle class="pitch" fill="none" stroke="#f00" stroke-miterlimit="10" cx="0" cy="0" r="75"/><circle class="outer" fill="none" stroke="#ccc" stroke-miterlimit="10" stroke-dasharray="2,2" cx="0" cy="0" r="100"/><circle class="base" fill="none" stroke="#00f" stroke-miterlimit="10" stroke-dasharray="2,2" cx="0" cy="0" r="70.48"/></g></g></svg>